<?xml version="1.0" encoding="us-ascii" standalone="no"?><svg xmlns="http://www.w3.org/2000/svg" xmlns:xlink="http://www.w3.org/1999/xlink" contentStyleType="text/css" height="580px" preserveAspectRatio="none" style="width:441px;height:580px;background:#FFFFFF;" version="1.1" viewBox="0 0 441 580" width="441px" zoomAndPan="magnify"><defs/><g><text fill="#000000" font-family="sans-serif" font-size="14" font-weight="bold" lengthAdjust="spacing" textLength="112" x="163" y="34.5332">generate_data()</text><ellipse cx="252.75" cy="58.6094" fill="#222222" rx="10" ry="10" style="stroke:#222222;stroke-width:1.0;"/><polygon fill="#F1F1F1" points="215.25,88.6094,290.25,88.6094,302.25,100.6094,290.25,112.6094,215.25,112.6094,203.25,100.6094,215.25,88.6094" style="stroke:#181818;stroke-width:0.5;"/><text fill="#000000" font-family="sans-serif" font-size="11" lengthAdjust="spacing" textLength="75" x="215.25" y="105.1104">patients = None</text><text fill="#000000" font-family="sans-serif" font-size="11" lengthAdjust="spacing" textLength="18" x="185.25" y="98.1924">yes</text><text fill="#000000" font-family="sans-serif" font-size="11" lengthAdjust="spacing" textLength="12" x="302.25" y="98.1924">no</text><rect fill="#F1F1F1" height="35.0938" rx="12.5" ry="12.5" style="stroke:#181818;stroke-width:0.5;" width="243" x="30.25" y="122.6094"/><text fill="#000000" font-family="sans-serif" font-size="12" lengthAdjust="spacing" textLength="223" x="40.25" y="145.0664">patients = generate_patients(n_patients)</text><rect fill="#F1F1F1" height="35.0938" rx="12.5" ry="12.5" style="stroke:#181818;stroke-width:0.5;" width="121" x="293.25" y="122.6094"/><text fill="#000000" font-family="sans-serif" font-size="12" lengthAdjust="spacing" textLength="101" x="303.25" y="145.0664">patients = patients</text><polygon fill="#F1F1F1" points="252.75,163.7031,264.75,175.7031,252.75,187.7031,240.75,175.7031,252.75,163.7031" style="stroke:#181818;stroke-width:0.5;"/><polygon fill="#F1F1F1" points="212.75,207.7031,292.75,207.7031,304.75,219.7031,292.75,231.7031,212.75,231.7031,200.75,219.7031,212.75,207.7031" style="stroke:#181818;stroke-width:0.5;"/><text fill="#000000" font-family="sans-serif" font-size="11" lengthAdjust="spacing" textLength="80" x="212.75" y="224.2041">hospitals = None</text><text fill="#000000" font-family="sans-serif" font-size="11" lengthAdjust="spacing" textLength="18" x="182.75" y="217.2861">yes</text><text fill="#000000" font-family="sans-serif" font-size="11" lengthAdjust="spacing" textLength="12" x="304.75" y="217.2861">no</text><rect fill="#F1F1F1" height="35.0938" rx="12.5" ry="12.5" style="stroke:#181818;stroke-width:0.5;" width="264" x="11" y="241.7031"/><text fill="#000000" font-family="sans-serif" font-size="12" lengthAdjust="spacing" textLength="244" x="21" y="264.1602">hospitals = generate_hospitals(n_hospitals)</text><rect fill="#F1F1F1" height="35.0938" rx="12.5" ry="12.5" style="stroke:#181818;stroke-width:0.5;" width="135" x="295" y="241.7031"/><text fill="#000000" font-family="sans-serif" font-size="12" lengthAdjust="spacing" textLength="115" x="305" y="264.1602">hospitals = hospitals</text><polygon fill="#F1F1F1" points="252.75,282.7969,264.75,294.7969,252.75,306.7969,240.75,294.7969,252.75,282.7969" style="stroke:#181818;stroke-width:0.5;"/><rect fill="#F1F1F1" height="35.0938" rx="12.5" ry="12.5" style="stroke:#181818;stroke-width:0.5;" width="325" x="90.25" y="326.7969"/><text fill="#000000" font-family="sans-serif" font-size="12" lengthAdjust="spacing" textLength="305" x="100.25" y="349.2539">generate_treatment_table(patients, hospitals, n_cases)</text><rect fill="#F1F1F1" height="35.0938" rx="12.5" ry="12.5" style="stroke:#181818;stroke-width:0.5;" width="184" x="160.75" y="381.8906"/><text fill="#000000" font-family="sans-serif" font-size="12" lengthAdjust="spacing" textLength="164" x="170.75" y="404.3477">join(patients, treatment_table)</text><rect fill="#F1F1F1" height="35.0938" rx="12.5" ry="12.5" style="stroke:#181818;stroke-width:0.5;" width="191" x="157.25" y="436.9844"/><text fill="#000000" font-family="sans-serif" font-size="12" lengthAdjust="spacing" textLength="171" x="167.25" y="459.4414">join(hospitals, treatment_table)</text><rect fill="#F1F1F1" height="35.0938" rx="12.5" ry="12.5" style="stroke:#181818;stroke-width:0.5;" width="272" x="116.75" y="492.0781"/><text fill="#000000" font-family="sans-serif" font-size="12" lengthAdjust="spacing" textLength="252" x="126.75" y="514.5352">get_distance(patients["PLZ"], hospitals["PLZ"])</text><ellipse cx="252.75" cy="558.1719" fill="none" rx="11" ry="11" style="stroke:#222222;stroke-width:1.0;"/><ellipse cx="252.75" cy="558.1719" fill="#222222" rx="6" ry="6" style="stroke:#222222;stroke-width:1.0;"/><line style="stroke:#181818;stroke-width:1.0;" x1="203.25" x2="151.75" y1="100.6094" y2="100.6094"/><line style="stroke:#181818;stroke-width:1.0;" x1="151.75" x2="151.75" y1="100.6094" y2="122.6094"/><polygon fill="#181818" points="147.75,112.6094,151.75,122.6094,155.75,112.6094,151.75,116.6094" style="stroke:#181818;stroke-width:1.0;"/><line style="stroke:#181818;stroke-width:1.0;" x1="302.25" x2="353.75" y1="100.6094" y2="100.6094"/><line style="stroke:#181818;stroke-width:1.0;" x1="353.75" x2="353.75" y1="100.6094" y2="122.6094"/><polygon fill="#181818" points="349.75,112.6094,353.75,122.6094,357.75,112.6094,353.75,116.6094" style="stroke:#181818;stroke-width:1.0;"/><line style="stroke:#181818;stroke-width:1.0;" x1="151.75" x2="151.75" y1="157.7031" y2="175.7031"/><line style="stroke:#181818;stroke-width:1.0;" x1="151.75" x2="240.75" y1="175.7031" y2="175.7031"/><polygon fill="#181818" points="230.75,171.7031,240.75,175.7031,230.75,179.7031,234.75,175.7031" style="stroke:#181818;stroke-width:1.0;"/><line style="stroke:#181818;stroke-width:1.0;" x1="353.75" x2="353.75" y1="157.7031" y2="175.7031"/><line style="stroke:#181818;stroke-width:1.0;" x1="353.75" x2="264.75" y1="175.7031" y2="175.7031"/><polygon fill="#181818" points="274.75,171.7031,264.75,175.7031,274.75,179.7031,270.75,175.7031" style="stroke:#181818;stroke-width:1.0;"/><line style="stroke:#181818;stroke-width:1.0;" x1="252.75" x2="252.75" y1="68.6094" y2="88.6094"/><polygon fill="#181818" points="248.75,78.6094,252.75,88.6094,256.75,78.6094,252.75,82.6094" style="stroke:#181818;stroke-width:1.0;"/><line style="stroke:#181818;stroke-width:1.0;" x1="200.75" x2="143" y1="219.7031" y2="219.7031"/><line style="stroke:#181818;stroke-width:1.0;" x1="143" x2="143" y1="219.7031" y2="241.7031"/><polygon fill="#181818" points="139,231.7031,143,241.7031,147,231.7031,143,235.7031" style="stroke:#181818;stroke-width:1.0;"/><line style="stroke:#181818;stroke-width:1.0;" x1="304.75" x2="362.5" y1="219.7031" y2="219.7031"/><line style="stroke:#181818;stroke-width:1.0;" x1="362.5" x2="362.5" y1="219.7031" y2="241.7031"/><polygon fill="#181818" points="358.5,231.7031,362.5,241.7031,366.5,231.7031,362.5,235.7031" style="stroke:#181818;stroke-width:1.0;"/><line style="stroke:#181818;stroke-width:1.0;" x1="143" x2="143" y1="276.7969" y2="294.7969"/><line style="stroke:#181818;stroke-width:1.0;" x1="143" x2="240.75" y1="294.7969" y2="294.7969"/><polygon fill="#181818" points="230.75,290.7969,240.75,294.7969,230.75,298.7969,234.75,294.7969" style="stroke:#181818;stroke-width:1.0;"/><line style="stroke:#181818;stroke-width:1.0;" x1="362.5" x2="362.5" y1="276.7969" y2="294.7969"/><line style="stroke:#181818;stroke-width:1.0;" x1="362.5" x2="264.75" y1="294.7969" y2="294.7969"/><polygon fill="#181818" points="274.75,290.7969,264.75,294.7969,274.75,298.7969,270.75,294.7969" style="stroke:#181818;stroke-width:1.0;"/><line style="stroke:#181818;stroke-width:1.0;" x1="252.75" x2="252.75" y1="187.7031" y2="207.7031"/><polygon fill="#181818" points="248.75,197.7031,252.75,207.7031,256.75,197.7031,252.75,201.7031" style="stroke:#181818;stroke-width:1.0;"/><line style="stroke:#181818;stroke-width:1.0;" x1="252.75" x2="252.75" y1="306.7969" y2="326.7969"/><polygon fill="#181818" points="248.75,316.7969,252.75,326.7969,256.75,316.7969,252.75,320.7969" style="stroke:#181818;stroke-width:1.0;"/><line style="stroke:#181818;stroke-width:1.0;" x1="252.75" x2="252.75" y1="361.8906" y2="381.8906"/><polygon fill="#181818" points="248.75,371.8906,252.75,381.8906,256.75,371.8906,252.75,375.8906" style="stroke:#181818;stroke-width:1.0;"/><line style="stroke:#181818;stroke-width:1.0;" x1="252.75" x2="252.75" y1="416.9844" y2="436.9844"/><polygon fill="#181818" points="248.75,426.9844,252.75,436.9844,256.75,426.9844,252.75,430.9844" style="stroke:#181818;stroke-width:1.0;"/><line style="stroke:#181818;stroke-width:1.0;" x1="252.75" x2="252.75" y1="472.0781" y2="492.0781"/><polygon fill="#181818" points="248.75,482.0781,252.75,492.0781,256.75,482.0781,252.75,486.0781" style="stroke:#181818;stroke-width:1.0;"/><line style="stroke:#181818;stroke-width:1.0;" x1="252.75" x2="252.75" y1="527.1719" y2="547.1719"/><polygon fill="#181818" points="248.75,537.1719,252.75,547.1719,256.75,537.1719,252.75,541.1719" style="stroke:#181818;stroke-width:1.0;"/><!--SRC=[TP112i9034NtSuhGrHHwWeet476jI8bjsewCcTB9njixYas7ehlFp_zv8UB44mp4DADGqw6WBKqKdCMu7ko4ueWbmXwEWQa46Od1FYcM1g3EnhfZyIohB7U6V2Im7BQrHQO4Twx_GCSG9oVe_r7pkMBLJ5pLMt3ULBsWQzqbCw4yqbcDuCsJVg5QInLmqsAaDwA-1yTPQ5FNH5R-4Hb8ciwbrtEx4Y_5wN0khXduwwH6b32z0000]--></g></svg>