<?xml version="1.0" encoding="us-ascii" standalone="no"?><svg xmlns="http://www.w3.org/2000/svg" xmlns:xlink="http://www.w3.org/1999/xlink" contentStyleType="text/css" height="843px" preserveAspectRatio="none" style="width:1007px;height:843px;background:#FFFFFF;" version="1.1" viewBox="0 0 1007 843" width="1007px" zoomAndPan="magnify"><defs/><g><text fill="#000000" font-family="sans-serif" font-size="14" font-weight="bold" lengthAdjust="spacing" textLength="96" x="454" y="34.5332">SIMULATION()</text><ellipse cx="606.25" cy="58.6094" fill="#222222" rx="10" ry="10" style="stroke:#222222;stroke-width:1.0;"/><rect fill="#F1F1F1" height="35.0938" rx="12.5" ry="12.5" style="stroke:#181818;stroke-width:0.5;" width="76" x="568.25" y="88.6094"/><text fill="#000000" font-family="sans-serif" font-size="12" lengthAdjust="spacing" textLength="56" x="578.25" y="111.0664">new PLZ()</text><rect fill="#F1F1F1" height="35.0938" rx="12.5" ry="12.5" style="stroke:#181818;stroke-width:0.5;" width="81" x="565.75" y="143.7031"/><text fill="#000000" font-family="sans-serif" font-size="12" lengthAdjust="spacing" textLength="61" x="575.75" y="166.1602">new DRG()</text><polygon fill="#F1F1F1" points="558.75,198.7969,653.75,198.7969,665.75,210.7969,653.75,222.7969,558.75,222.7969,546.75,210.7969,558.75,198.7969" style="stroke:#181818;stroke-width:0.5;"/><text fill="#000000" font-family="sans-serif" font-size="11" lengthAdjust="spacing" textLength="95" x="558.75" y="215.2979">multiprocessing != 0</text><text fill="#000000" font-family="sans-serif" font-size="11" lengthAdjust="spacing" textLength="18" x="528.75" y="208.3799">yes</text><text fill="#000000" font-family="sans-serif" font-size="11" lengthAdjust="spacing" textLength="12" x="665.75" y="208.3799">no</text><rect fill="#F1F1F1" height="35.0938" rx="12.5" ry="12.5" style="stroke:#181818;stroke-width:0.5;" width="146" x="279" y="232.7969"/><text fill="#000000" font-family="sans-serif" font-size="12" lengthAdjust="spacing" textLength="126" x="289" y="255.2539">create id_list(n_cases)</text><rect fill="#F1F1F1" height="35.0938" rx="12.5" ry="12.5" style="stroke:#181818;stroke-width:0.5;" width="221" x="241.5" y="287.8906"/><text fill="#000000" font-family="sans-serif" font-size="12" lengthAdjust="spacing" textLength="201" x="251.5" y="310.3477">create sublists(id_list, n_processes)</text><rect fill="#F1F1F1" height="35.0938" rx="12.5" ry="12.5" style="stroke:#181818;stroke-width:0.5;" width="219" x="242.5" y="342.9844"/><text fill="#000000" font-family="sans-serif" font-size="12" lengthAdjust="spacing" textLength="199" x="252.5" y="365.4414">generate_patients(n_patients, state)</text><rect fill="#F1F1F1" height="35.0938" rx="12.5" ry="12.5" style="stroke:#181818;stroke-width:0.5;" width="233" x="235.5" y="398.0781"/><text fill="#000000" font-family="sans-serif" font-size="12" lengthAdjust="spacing" textLength="213" x="245.5" y="420.5352">generate_hospitals(n_hospitals, state)</text><rect fill="#555555" height="6" rx="2.5" ry="2.5" style="stroke:#555555;stroke-width:1.0;" width="684" x="11" y="453.1719"/><rect fill="#F1F1F1" height="35.0938" rx="12.5" ry="12.5" style="stroke:#181818;stroke-width:0.5;" width="285" x="23" y="479.1719"/><text fill="#000000" font-family="sans-serif" font-size="12" lengthAdjust="spacing" textLength="265" x="33" y="501.6289">generate_data(patients, hospitals, sublist, state)</text><rect fill="#F1F1F1" height="35.0938" rx="12.5" ry="12.5" style="stroke:#181818;stroke-width:0.5;" width="285" x="336" y="479.1719"/><text fill="#000000" font-family="sans-serif" font-size="12" lengthAdjust="spacing" textLength="265" x="346" y="501.6289">generate_data(patients, hospitals, sublist, state)</text><rect fill="#F1F1F1" height="35.0938" rx="12.5" ry="12.5" style="stroke:#181818;stroke-width:0.5;" width="32" x="649" y="479.1719"/><text fill="#000000" font-family="sans-serif" font-size="12" lengthAdjust="spacing" textLength="9" x="662" y="501.6289">...</text><rect fill="#555555" height="6" rx="2.5" ry="2.5" style="stroke:#555555;stroke-width:1.0;" width="684" x="11" y="534.2656"/><rect fill="#F1F1F1" height="35.0938" rx="12.5" ry="12.5" style="stroke:#181818;stroke-width:0.5;" width="132" x="286" y="560.2656"/><text fill="#000000" font-family="sans-serif" font-size="12" lengthAdjust="spacing" textLength="112" x="296" y="582.7227">merge_data(sublist)</text><rect fill="#F1F1F1" height="35.0938" rx="12.5" ry="12.5" style="stroke:#181818;stroke-width:0.5;" width="291" x="705" y="232.7969"/><text fill="#000000" font-family="sans-serif" font-size="12" lengthAdjust="spacing" textLength="271" x="715" y="255.2539">generate_data(n_patients, n_hospitals, n_cases)</text><polygon fill="#F1F1F1" points="606.25,601.3594,618.25,613.3594,606.25,625.3594,594.25,613.3594,606.25,601.3594" style="stroke:#181818;stroke-width:0.5;"/><rect fill="#F1F1F1" height="35.0938" rx="12.5" ry="12.5" style="stroke:#181818;stroke-width:0.5;" width="160" x="526.25" y="645.3594"/><text fill="#000000" font-family="sans-serif" font-size="12" lengthAdjust="spacing" textLength="140" x="536.25" y="667.8164">inject_fraud(hospital_ids)</text><rect fill="#F1F1F1" height="35.0938" rx="12.5" ry="12.5" style="stroke:#181818;stroke-width:0.5;" width="126" x="543.25" y="700.4531"/><text fill="#000000" font-family="sans-serif" font-size="12" lengthAdjust="spacing" textLength="106" x="553.25" y="722.9102">execute_grouping()</text><rect fill="#F1F1F1" height="35.0938" rx="12.5" ry="12.5" style="stroke:#181818;stroke-width:0.5;" width="86" x="563.25" y="755.5469"/><text fill="#000000" font-family="sans-serif" font-size="12" lengthAdjust="spacing" textLength="66" x="573.25" y="778.0039">add_claim()</text><ellipse cx="606.25" cy="821.6406" fill="none" rx="11" ry="11" style="stroke:#222222;stroke-width:1.0;"/><ellipse cx="606.25" cy="821.6406" fill="#222222" rx="6" ry="6" style="stroke:#222222;stroke-width:1.0;"/><line style="stroke:#181818;stroke-width:1.0;" x1="606.25" x2="606.25" y1="68.6094" y2="88.6094"/><polygon fill="#181818" points="602.25,78.6094,606.25,88.6094,610.25,78.6094,606.25,82.6094" style="stroke:#181818;stroke-width:1.0;"/><line style="stroke:#181818;stroke-width:1.0;" x1="606.25" x2="606.25" y1="123.7031" y2="143.7031"/><polygon fill="#181818" points="602.25,133.7031,606.25,143.7031,610.25,133.7031,606.25,137.7031" style="stroke:#181818;stroke-width:1.0;"/><line style="stroke:#181818;stroke-width:1.0;" x1="352" x2="352" y1="267.8906" y2="287.8906"/><polygon fill="#181818" points="348,277.8906,352,287.8906,356,277.8906,352,281.8906" style="stroke:#181818;stroke-width:1.0;"/><line style="stroke:#181818;stroke-width:1.0;" x1="352" x2="352" y1="322.9844" y2="342.9844"/><polygon fill="#181818" points="348,332.9844,352,342.9844,356,332.9844,352,336.9844" style="stroke:#181818;stroke-width:1.0;"/><line style="stroke:#181818;stroke-width:1.0;" x1="352" x2="352" y1="378.0781" y2="398.0781"/><polygon fill="#181818" points="348,388.0781,352,398.0781,356,388.0781,352,392.0781" style="stroke:#181818;stroke-width:1.0;"/><line style="stroke:#181818;stroke-width:1.0;" x1="165.5" x2="165.5" y1="459.1719" y2="479.1719"/><polygon fill="#181818" points="161.5,469.1719,165.5,479.1719,169.5,469.1719,165.5,473.1719" style="stroke:#181818;stroke-width:1.0;"/><line style="stroke:#181818;stroke-width:1.0;" x1="478.5" x2="478.5" y1="459.1719" y2="479.1719"/><polygon fill="#181818" points="474.5,469.1719,478.5,479.1719,482.5,469.1719,478.5,473.1719" style="stroke:#181818;stroke-width:1.0;"/><line style="stroke:#181818;stroke-width:1.0;" x1="665" x2="665" y1="459.1719" y2="479.1719"/><polygon fill="#181818" points="661,469.1719,665,479.1719,669,469.1719,665,473.1719" style="stroke:#181818;stroke-width:1.0;"/><line style="stroke:#181818;stroke-width:1.0;" x1="165.5" x2="165.5" y1="514.2656" y2="534.2656"/><polygon fill="#181818" points="161.5,524.2656,165.5,534.2656,169.5,524.2656,165.5,528.2656" style="stroke:#181818;stroke-width:1.0;"/><line style="stroke:#181818;stroke-width:1.0;" x1="478.5" x2="478.5" y1="514.2656" y2="534.2656"/><polygon fill="#181818" points="474.5,524.2656,478.5,534.2656,482.5,524.2656,478.5,528.2656" style="stroke:#181818;stroke-width:1.0;"/><line style="stroke:#181818;stroke-width:1.0;" x1="665" x2="665" y1="514.2656" y2="534.2656"/><polygon fill="#181818" points="661,524.2656,665,534.2656,669,524.2656,665,528.2656" style="stroke:#181818;stroke-width:1.0;"/><line style="stroke:#181818;stroke-width:1.0;" x1="352" x2="352" y1="433.1719" y2="453.1719"/><polygon fill="#181818" points="348,443.1719,352,453.1719,356,443.1719,352,447.1719" style="stroke:#181818;stroke-width:1.0;"/><line style="stroke:#181818;stroke-width:1.0;" x1="352" x2="352" y1="540.2656" y2="560.2656"/><polygon fill="#181818" points="348,550.2656,352,560.2656,356,550.2656,352,554.2656" style="stroke:#181818;stroke-width:1.0;"/><line style="stroke:#181818;stroke-width:1.0;" x1="546.75" x2="352" y1="210.7969" y2="210.7969"/><line style="stroke:#181818;stroke-width:1.0;" x1="352" x2="352" y1="210.7969" y2="232.7969"/><polygon fill="#181818" points="348,222.7969,352,232.7969,356,222.7969,352,226.7969" style="stroke:#181818;stroke-width:1.0;"/><line style="stroke:#181818;stroke-width:1.0;" x1="665.75" x2="850.5" y1="210.7969" y2="210.7969"/><line style="stroke:#181818;stroke-width:1.0;" x1="850.5" x2="850.5" y1="210.7969" y2="232.7969"/><polygon fill="#181818" points="846.5,222.7969,850.5,232.7969,854.5,222.7969,850.5,226.7969" style="stroke:#181818;stroke-width:1.0;"/><line style="stroke:#181818;stroke-width:1.0;" x1="352" x2="352" y1="595.3594" y2="613.3594"/><line style="stroke:#181818;stroke-width:1.0;" x1="352" x2="594.25" y1="613.3594" y2="613.3594"/><polygon fill="#181818" points="584.25,609.3594,594.25,613.3594,584.25,617.3594,588.25,613.3594" style="stroke:#181818;stroke-width:1.0;"/><line style="stroke:#181818;stroke-width:1.0;" x1="850.5" x2="850.5" y1="267.8906" y2="613.3594"/><line style="stroke:#181818;stroke-width:1.0;" x1="850.5" x2="618.25" y1="613.3594" y2="613.3594"/><polygon fill="#181818" points="628.25,609.3594,618.25,613.3594,628.25,617.3594,624.25,613.3594" style="stroke:#181818;stroke-width:1.0;"/><line style="stroke:#181818;stroke-width:1.0;" x1="606.25" x2="606.25" y1="178.7969" y2="198.7969"/><polygon fill="#181818" points="602.25,188.7969,606.25,198.7969,610.25,188.7969,606.25,192.7969" style="stroke:#181818;stroke-width:1.0;"/><line style="stroke:#181818;stroke-width:1.0;" x1="606.25" x2="606.25" y1="625.3594" y2="645.3594"/><polygon fill="#181818" points="602.25,635.3594,606.25,645.3594,610.25,635.3594,606.25,639.3594" style="stroke:#181818;stroke-width:1.0;"/><line style="stroke:#181818;stroke-width:1.0;" x1="606.25" x2="606.25" y1="680.4531" y2="700.4531"/><polygon fill="#181818" points="602.25,690.4531,606.25,700.4531,610.25,690.4531,606.25,694.4531" style="stroke:#181818;stroke-width:1.0;"/><line style="stroke:#181818;stroke-width:1.0;" x1="606.25" x2="606.25" y1="735.5469" y2="755.5469"/><polygon fill="#181818" points="602.25,745.5469,606.25,755.5469,610.25,745.5469,606.25,749.5469" style="stroke:#181818;stroke-width:1.0;"/><line style="stroke:#181818;stroke-width:1.0;" x1="606.25" x2="606.25" y1="790.6406" y2="810.6406"/><polygon fill="#181818" points="602.25,800.6406,606.25,810.6406,610.25,800.6406,606.25,804.6406" style="stroke:#181818;stroke-width:1.0;"/><!--SRC=[jP9FJyCm3CNl_HJcbafJnRaJ1oGaD6a3n9yBboWaRcTedIfn1NnxqhMigyQLd5xqVdcsx4GnGJ8XQH2UDhkNxVNpvlvEvLd9-0aFsrULhqTzytWxQAf0jNqZr0LlCKRY6Ywku387sIE3-iQOPv1EQGCQGI2d6ugYM5iJaxbUkB5_6zoe9cm5hAVacQsHCIHQTqO8ET5yb2k8agmpTEzZHsAQWJtg9Lpvy74GovVEY55p_EdZiTdp532r8VwVB2YAOdIHtTnpsMAefm9JLWh19Y8ezddsHn-dGriCPLvDAa5LLXA_enLT1TCxzGjgSWDIuXVQFcNMmVTTMl_XXnZdj6qCjSCjYkz-0000]--></g></svg>