<?xml version="1.0" encoding="us-ascii" standalone="no"?><svg xmlns="http://www.w3.org/2000/svg" xmlns:xlink="http://www.w3.org/1999/xlink" contentStyleType="text/css" height="1100px" preserveAspectRatio="none" style="width:317px;height:1100px;background:#FFFFFF;" version="1.1" viewBox="0 0 317 1100" width="317px" zoomAndPan="magnify"><defs/><g><text fill="#000000" font-family="sans-serif" font-size="14" font-weight="bold" lengthAdjust="spacing" textLength="94" x="110" y="34.5332">inject_fraud()</text><ellipse cx="154" cy="58.6094" fill="#222222" rx="10" ry="10" style="stroke:#222222;stroke-width:1.0;"/><rect fill="#F1F1F1" height="35.0938" rx="12.5" ry="12.5" style="stroke:#181818;stroke-width:0.5;" width="138" x="85" y="186.4453"/><text fill="#000000" font-family="sans-serif" font-size="12" lengthAdjust="spacing" textLength="118" x="95" y="208.9023">increase_ventilation()</text><ellipse cx="154" cy="260.4922" fill="none" rx="11" ry="11" style="stroke:#222222;stroke-width:1.0;"/><ellipse cx="154" cy="260.4922" fill="#222222" rx="6" ry="6" style="stroke:#222222;stroke-width:1.0;"/><polygon fill="#F1F1F1" points="51,137.5273,257,137.5273,269,149.5273,257,161.5273,51,161.5273,39,149.5273,51,137.5273" style="stroke:#181818;stroke-width:0.5;"/><text fill="#000000" font-family="sans-serif" font-size="11" lengthAdjust="spacing" textLength="18" x="158" y="172.9463">yes</text><text fill="#000000" font-family="sans-serif" font-size="11" lengthAdjust="spacing" textLength="206" x="51" y="154.0283">Ventilation &lt;= Threshold - fraud coefficient</text><polygon fill="#F1F1F1" points="109.5,88.6094,198.5,88.6094,210.5,100.6094,198.5,112.6094,109.5,112.6094,97.5,100.6094,109.5,88.6094" style="stroke:#181818;stroke-width:0.5;"/><text fill="#000000" font-family="sans-serif" font-size="11" lengthAdjust="spacing" textLength="18" x="158" y="124.0283">yes</text><text fill="#000000" font-family="sans-serif" font-size="11" lengthAdjust="spacing" textLength="89" x="109.5" y="105.1104">Ventilation != None</text><polygon fill="#F1F1F1" points="154,313.4922,166,325.4922,154,337.4922,142,325.4922,154,313.4922" style="stroke:#181818;stroke-width:0.5;"/><rect fill="#F1F1F1" height="35.0938" rx="12.5" ry="12.5" style="stroke:#181818;stroke-width:0.5;" width="145" x="81.5" y="406.4102"/><text fill="#000000" font-family="sans-serif" font-size="12" lengthAdjust="spacing" textLength="125" x="91.5" y="428.8672">change_to_cesarean()</text><ellipse cx="154" cy="480.457" fill="none" rx="11" ry="11" style="stroke:#222222;stroke-width:1.0;"/><ellipse cx="154" cy="480.457" fill="#222222" rx="6" ry="6" style="stroke:#222222;stroke-width:1.0;"/><polygon fill="#F1F1F1" points="103,357.4922,205,357.4922,217,369.4922,205,381.4922,103,381.4922,91,369.4922,103,357.4922" style="stroke:#181818;stroke-width:0.5;"/><text fill="#000000" font-family="sans-serif" font-size="11" lengthAdjust="spacing" textLength="18" x="158" y="392.9111">yes</text><text fill="#000000" font-family="sans-serif" font-size="11" lengthAdjust="spacing" textLength="102" x="103" y="373.9932">primary_icd == "O80"</text><rect fill="#F1F1F1" height="35.0938" rx="12.5" ry="12.5" style="stroke:#181818;stroke-width:0.5;" width="123" x="92.5" y="631.293"/><text fill="#000000" font-family="sans-serif" font-size="12" lengthAdjust="spacing" textLength="103" x="102.5" y="653.75">decrease_weight()</text><ellipse cx="154" cy="705.3398" fill="none" rx="11" ry="11" style="stroke:#222222;stroke-width:1.0;"/><ellipse cx="154" cy="705.3398" fill="#222222" rx="6" ry="6" style="stroke:#222222;stroke-width:1.0;"/><polygon fill="#F1F1F1" points="59.5,582.375,248.5,582.375,260.5,594.375,248.5,606.375,59.5,606.375,47.5,594.375,59.5,582.375" style="stroke:#181818;stroke-width:0.5;"/><text fill="#000000" font-family="sans-serif" font-size="11" lengthAdjust="spacing" textLength="18" x="158" y="617.7939">yes</text><text fill="#000000" font-family="sans-serif" font-size="11" lengthAdjust="spacing" textLength="189" x="59.5" y="598.876">weight &lt;= Threshold - fraud coefficient</text><polygon fill="#F1F1F1" points="118,533.457,190,533.457,202,545.457,190,557.457,118,557.457,106,545.457,118,533.457" style="stroke:#181818;stroke-width:0.5;"/><text fill="#000000" font-family="sans-serif" font-size="11" lengthAdjust="spacing" textLength="18" x="158" y="568.876">yes</text><text fill="#000000" font-family="sans-serif" font-size="11" lengthAdjust="spacing" textLength="72" x="118" y="549.958">weight != None</text><polygon fill="#F1F1F1" points="154,758.3398,166,770.3398,154,782.3398,142,770.3398,154,758.3398" style="stroke:#181818;stroke-width:0.5;"/><rect fill="#F1F1F1" height="35.0938" rx="12.5" ry="12.5" style="stroke:#181818;stroke-width:0.5;" width="191" x="58.5" y="851.2578"/><text fill="#000000" font-family="sans-serif" font-size="12" lengthAdjust="spacing" textLength="171" x="68.5" y="873.7148">newborn_add_personal_care()</text><ellipse cx="154" cy="925.3047" fill="none" rx="11" ry="11" style="stroke:#222222;stroke-width:1.0;"/><ellipse cx="154" cy="925.3047" fill="#222222" rx="6" ry="6" style="stroke:#222222;stroke-width:1.0;"/><polygon fill="#F1F1F1" points="136,802.3398,172,802.3398,184,814.3398,172,826.3398,136,826.3398,124,814.3398,136,802.3398" style="stroke:#181818;stroke-width:0.5;"/><text fill="#000000" font-family="sans-serif" font-size="11" lengthAdjust="spacing" textLength="18" x="158" y="837.7588">yes</text><text fill="#000000" font-family="sans-serif" font-size="11" lengthAdjust="spacing" textLength="36" x="136" y="818.8408">age &lt; 1</text><polygon fill="#F1F1F1" points="90,978.3047,218,978.3047,230,990.3047,218,1002.3047,90,1002.3047,78,990.3047,90,978.3047" style="stroke:#181818;stroke-width:0.5;"/><text fill="#000000" font-family="sans-serif" font-size="11" lengthAdjust="spacing" textLength="128" x="90" y="994.8057">random value &lt; coefficient</text><text fill="#000000" font-family="sans-serif" font-size="11" lengthAdjust="spacing" textLength="18" x="60" y="987.8877">yes</text><text fill="#000000" font-family="sans-serif" font-size="11" lengthAdjust="spacing" textLength="12" x="230" y="987.8877">no</text><rect fill="#F1F1F1" height="35.0938" rx="12.5" ry="12.5" style="stroke:#181818;stroke-width:0.5;" width="114" x="11" y="1012.3047"/><text fill="#000000" font-family="sans-serif" font-size="12" lengthAdjust="spacing" textLength="94" x="21" y="1034.7617">adjust_duration()</text><ellipse cx="68" cy="1078.3984" fill="none" rx="11" ry="11" style="stroke:#222222;stroke-width:1.0;"/><ellipse cx="68" cy="1078.3984" fill="#222222" rx="6" ry="6" style="stroke:#222222;stroke-width:1.0;"/><rect fill="#F1F1F1" height="35.0938" rx="12.5" ry="12.5" style="stroke:#181818;stroke-width:0.5;" width="125" x="177.5" y="1012.3047"/><text fill="#000000" font-family="sans-serif" font-size="12" lengthAdjust="spacing" textLength="105" x="187.5" y="1034.7617">select_ICD_order()</text><ellipse cx="240" cy="1078.3984" fill="none" rx="11" ry="11" style="stroke:#222222;stroke-width:1.0;"/><ellipse cx="240" cy="1078.3984" fill="#222222" rx="6" ry="6" style="stroke:#222222;stroke-width:1.0;"/><line style="stroke:#181818;stroke-width:1.0;" x1="154" x2="154" y1="221.5391" y2="249.4922"/><polygon fill="#181818" points="150,239.4922,154,249.4922,158,239.4922,154,243.4922" style="stroke:#181818;stroke-width:1.0;"/><line style="stroke:#181818;stroke-width:1.0;" x1="154" x2="154" y1="161.5273" y2="186.4453"/><polygon fill="#181818" points="150,176.4453,154,186.4453,158,176.4453,154,180.4453" style="stroke:#181818;stroke-width:1.0;"/><line style="stroke:#181818;stroke-width:1.0;" x1="269" x2="281" y1="149.5273" y2="149.5273"/><polygon fill="#181818" points="277,219.4922,281,229.4922,285,219.4922,281,223.4922" style="stroke:#181818;stroke-width:1.0;"/><line style="stroke:#181818;stroke-width:1.0;" x1="281" x2="281" y1="149.5273" y2="293.4922"/><line style="stroke:#181818;stroke-width:1.0;" x1="281" x2="154" y1="293.4922" y2="293.4922"/><line style="stroke:#181818;stroke-width:1.0;" x1="154" x2="154" y1="293.4922" y2="313.4922"/><polygon fill="#181818" points="150,303.4922,154,313.4922,158,303.4922,154,307.4922" style="stroke:#181818;stroke-width:1.0;"/><line style="stroke:#181818;stroke-width:1.0;" x1="154" x2="154" y1="112.6094" y2="137.5273"/><polygon fill="#181818" points="150,127.5273,154,137.5273,158,127.5273,154,131.5273" style="stroke:#181818;stroke-width:1.0;"/><line style="stroke:#181818;stroke-width:1.0;" x1="210.5" x2="291" y1="100.6094" y2="100.6094"/><polygon fill="#181818" points="287,213.4922,291,223.4922,295,213.4922,291,217.4922" style="stroke:#181818;stroke-width:1.0;"/><line style="stroke:#181818;stroke-width:1.0;" x1="291" x2="291" y1="100.6094" y2="325.4922"/><line style="stroke:#181818;stroke-width:1.0;" x1="291" x2="166" y1="325.4922" y2="325.4922"/><polygon fill="#181818" points="176,321.4922,166,325.4922,176,329.4922,172,325.4922" style="stroke:#181818;stroke-width:1.0;"/><line style="stroke:#181818;stroke-width:1.0;" x1="154" x2="154" y1="68.6094" y2="88.6094"/><polygon fill="#181818" points="150,78.6094,154,88.6094,158,78.6094,154,82.6094" style="stroke:#181818;stroke-width:1.0;"/><line style="stroke:#181818;stroke-width:1.0;" x1="154" x2="154" y1="441.5039" y2="469.457"/><polygon fill="#181818" points="150,459.457,154,469.457,158,459.457,154,463.457" style="stroke:#181818;stroke-width:1.0;"/><line style="stroke:#181818;stroke-width:1.0;" x1="154" x2="154" y1="381.4922" y2="406.4102"/><polygon fill="#181818" points="150,396.4102,154,406.4102,158,396.4102,154,400.4102" style="stroke:#181818;stroke-width:1.0;"/><line style="stroke:#181818;stroke-width:1.0;" x1="217" x2="236.5" y1="369.4922" y2="369.4922"/><polygon fill="#181818" points="232.5,439.457,236.5,449.457,240.5,439.457,236.5,443.457" style="stroke:#181818;stroke-width:1.0;"/><line style="stroke:#181818;stroke-width:1.0;" x1="236.5" x2="236.5" y1="369.4922" y2="513.457"/><line style="stroke:#181818;stroke-width:1.0;" x1="236.5" x2="154" y1="513.457" y2="513.457"/><line style="stroke:#181818;stroke-width:1.0;" x1="154" x2="154" y1="513.457" y2="533.457"/><polygon fill="#181818" points="150,523.457,154,533.457,158,523.457,154,527.457" style="stroke:#181818;stroke-width:1.0;"/><line style="stroke:#181818;stroke-width:1.0;" x1="154" x2="154" y1="337.4922" y2="357.4922"/><polygon fill="#181818" points="150,347.4922,154,357.4922,158,347.4922,154,351.4922" style="stroke:#181818;stroke-width:1.0;"/><line style="stroke:#181818;stroke-width:1.0;" x1="154" x2="154" y1="666.3867" y2="694.3398"/><polygon fill="#181818" points="150,684.3398,154,694.3398,158,684.3398,154,688.3398" style="stroke:#181818;stroke-width:1.0;"/><line style="stroke:#181818;stroke-width:1.0;" x1="154" x2="154" y1="606.375" y2="631.293"/><polygon fill="#181818" points="150,621.293,154,631.293,158,621.293,154,625.293" style="stroke:#181818;stroke-width:1.0;"/><line style="stroke:#181818;stroke-width:1.0;" x1="260.5" x2="272.5" y1="594.375" y2="594.375"/><polygon fill="#181818" points="268.5,664.3398,272.5,674.3398,276.5,664.3398,272.5,668.3398" style="stroke:#181818;stroke-width:1.0;"/><line style="stroke:#181818;stroke-width:1.0;" x1="272.5" x2="272.5" y1="594.375" y2="738.3398"/><line style="stroke:#181818;stroke-width:1.0;" x1="272.5" x2="154" y1="738.3398" y2="738.3398"/><line style="stroke:#181818;stroke-width:1.0;" x1="154" x2="154" y1="738.3398" y2="758.3398"/><polygon fill="#181818" points="150,748.3398,154,758.3398,158,748.3398,154,752.3398" style="stroke:#181818;stroke-width:1.0;"/><line style="stroke:#181818;stroke-width:1.0;" x1="154" x2="154" y1="557.457" y2="582.375"/><polygon fill="#181818" points="150,572.375,154,582.375,158,572.375,154,576.375" style="stroke:#181818;stroke-width:1.0;"/><line style="stroke:#181818;stroke-width:1.0;" x1="202" x2="282.5" y1="545.457" y2="545.457"/><polygon fill="#181818" points="278.5,658.3398,282.5,668.3398,286.5,658.3398,282.5,662.3398" style="stroke:#181818;stroke-width:1.0;"/><line style="stroke:#181818;stroke-width:1.0;" x1="282.5" x2="282.5" y1="545.457" y2="770.3398"/><line style="stroke:#181818;stroke-width:1.0;" x1="282.5" x2="166" y1="770.3398" y2="770.3398"/><polygon fill="#181818" points="176,766.3398,166,770.3398,176,774.3398,172,770.3398" style="stroke:#181818;stroke-width:1.0;"/><line style="stroke:#181818;stroke-width:1.0;" x1="154" x2="154" y1="886.3516" y2="914.3047"/><polygon fill="#181818" points="150,904.3047,154,914.3047,158,904.3047,154,908.3047" style="stroke:#181818;stroke-width:1.0;"/><line style="stroke:#181818;stroke-width:1.0;" x1="154" x2="154" y1="826.3398" y2="851.2578"/><polygon fill="#181818" points="150,841.2578,154,851.2578,158,841.2578,154,845.2578" style="stroke:#181818;stroke-width:1.0;"/><line style="stroke:#181818;stroke-width:1.0;" x1="184" x2="259.5" y1="814.3398" y2="814.3398"/><polygon fill="#181818" points="255.5,884.3047,259.5,894.3047,263.5,884.3047,259.5,888.3047" style="stroke:#181818;stroke-width:1.0;"/><line style="stroke:#181818;stroke-width:1.0;" x1="259.5" x2="259.5" y1="814.3398" y2="958.3047"/><line style="stroke:#181818;stroke-width:1.0;" x1="259.5" x2="154" y1="958.3047" y2="958.3047"/><line style="stroke:#181818;stroke-width:1.0;" x1="154" x2="154" y1="958.3047" y2="978.3047"/><polygon fill="#181818" points="150,968.3047,154,978.3047,158,968.3047,154,972.3047" style="stroke:#181818;stroke-width:1.0;"/><line style="stroke:#181818;stroke-width:1.0;" x1="154" x2="154" y1="782.3398" y2="802.3398"/><polygon fill="#181818" points="150,792.3398,154,802.3398,158,792.3398,154,796.3398" style="stroke:#181818;stroke-width:1.0;"/><line style="stroke:#181818;stroke-width:1.0;" x1="68" x2="68" y1="1047.3984" y2="1067.3984"/><polygon fill="#181818" points="64,1057.3984,68,1067.3984,72,1057.3984,68,1061.3984" style="stroke:#181818;stroke-width:1.0;"/><line style="stroke:#181818;stroke-width:1.0;" x1="240" x2="240" y1="1047.3984" y2="1067.3984"/><polygon fill="#181818" points="236,1057.3984,240,1067.3984,244,1057.3984,240,1061.3984" style="stroke:#181818;stroke-width:1.0;"/><line style="stroke:#181818;stroke-width:1.0;" x1="78" x2="68" y1="990.3047" y2="990.3047"/><line style="stroke:#181818;stroke-width:1.0;" x1="68" x2="68" y1="990.3047" y2="1012.3047"/><polygon fill="#181818" points="64,1002.3047,68,1012.3047,72,1002.3047,68,1006.3047" style="stroke:#181818;stroke-width:1.0;"/><line style="stroke:#181818;stroke-width:1.0;" x1="230" x2="240" y1="990.3047" y2="990.3047"/><line style="stroke:#181818;stroke-width:1.0;" x1="240" x2="240" y1="990.3047" y2="1012.3047"/><polygon fill="#181818" points="236,1002.3047,240,1012.3047,244,1002.3047,240,1006.3047" style="stroke:#181818;stroke-width:1.0;"/><!--SRC=[bPAnJiCm48RtFCNHAHcGO4EbcM1XWGMnMeTzQQvopz7vqgflJv86KKK5YScM_Fkx_xDiR960PKVUNAFOXx8gig5QmGsK7oJ64OsJm4qDhqce0cj9e3nHhWg0PMfJmtkhbDiK0zp2X0IVg6dOyv1RN0TOitWbpEGEFvYoUfmEiwLks904RehYl8mJE-Kzwicn3r3Ni7fxk5ijo6lVecp9MNAUCWuZPkh4d8aZwqYyRUqFlJdmVxD0izcPS5NgeWXk2JPml_GGEduc5OSXk8uq9y7e_21qNKTHGjh30MC_udulkCQmwxEvqEl5ct-NYvcWb3G5CyNnUxmyFRkaWNGv-0i0]--></g></svg>