<?xml version="1.0" encoding="us-ascii" standalone="no"?><svg xmlns="http://www.w3.org/2000/svg" xmlns:xlink="http://www.w3.org/1999/xlink" contentStyleType="text/css" height="997px" preserveAspectRatio="none" style="width:819px;height:997px;background:#FFFFFF;" version="1.1" viewBox="0 0 819 997" width="819px" zoomAndPan="magnify"><defs/><g><text fill="#000000" font-family="sans-serif" font-size="14" font-weight="bold" lengthAdjust="spacing" textLength="193" x="311.5" y="34.5332">generate_treatment_table()</text><ellipse cx="396" cy="58.6094" fill="#222222" rx="10" ry="10" style="stroke:#222222;stroke-width:1.0;"/><rect fill="#F1F1F1" height="35.0938" rx="12.5" ry="12.5" style="stroke:#181818;stroke-width:0.5;" width="483" x="154.5" y="88.6094"/><text fill="#000000" font-family="sans-serif" font-size="12" lengthAdjust="spacing" textLength="463" x="164.5" y="111.0664">generate_treatment_table(patients, hospitals, n_cases, start_date, end_date, id_list)</text><polygon fill="#F1F1F1" points="361,143.7031,431,143.7031,443,155.7031,431,167.7031,361,167.7031,349,155.7031,361,143.7031" style="stroke:#181818;stroke-width:0.5;"/><text fill="#000000" font-family="sans-serif" font-size="11" lengthAdjust="spacing" textLength="70" x="361" y="160.2041">id_list == None</text><text fill="#000000" font-family="sans-serif" font-size="11" lengthAdjust="spacing" textLength="18" x="331" y="153.2861">yes</text><text fill="#000000" font-family="sans-serif" font-size="11" lengthAdjust="spacing" textLength="12" x="443" y="153.2861">no</text><rect fill="#F1F1F1" height="35.0938" rx="12.5" ry="12.5" style="stroke:#181818;stroke-width:0.5;" width="138" x="257.75" y="177.7031"/><text fill="#000000" font-family="sans-serif" font-size="12" lengthAdjust="spacing" textLength="118" x="267.75" y="200.1602">id_list = list(n_cases)</text><rect fill="#F1F1F1" height="35.0938" rx="12.5" ry="12.5" style="stroke:#181818;stroke-width:0.5;" width="99" x="415.75" y="177.7031"/><text fill="#000000" font-family="sans-serif" font-size="12" lengthAdjust="spacing" textLength="79" x="425.75" y="200.1602">id_list = id_list</text><polygon fill="#F1F1F1" points="396,218.7969,408,230.7969,396,242.7969,384,230.7969,396,218.7969" style="stroke:#181818;stroke-width:0.5;"/><rect fill="#F1F1F1" height="35.0938" rx="12.5" ry="12.5" style="stroke:#181818;stroke-width:0.5;" width="182" x="305" y="306.7969"/><text fill="#000000" font-family="sans-serif" font-size="12" lengthAdjust="spacing" textLength="162" x="315" y="329.2539">patient_id = random(patients)</text><rect fill="#F1F1F1" height="35.0938" rx="12.5" ry="12.5" style="stroke:#181818;stroke-width:0.5;" width="382" x="205" y="361.8906"/><text fill="#000000" font-family="sans-serif" font-size="12" lengthAdjust="spacing" textLength="362" x="215" y="384.3477">hospital_id = match_hospital_on_patient(patient["PLZ"], hospitals)</text><rect fill="#F1F1F1" height="35.0938" rx="12.5" ry="12.5" style="stroke:#181818;stroke-width:0.5;" width="342" x="225" y="416.9844"/><text fill="#000000" font-family="sans-serif" font-size="12" lengthAdjust="spacing" textLength="322" x="235" y="439.4414">admission_date = get_random_date(start_date, end_date)</text><rect fill="#F1F1F1" height="35.0938" rx="12.5" ry="12.5" style="stroke:#181818;stroke-width:0.5;" width="511" x="140.5" y="472.0781"/><text fill="#000000" font-family="sans-serif" font-size="12" lengthAdjust="spacing" textLength="491" x="150.5" y="494.5352">primary_ICD = get_random_primary_icd(patient["GENDER"], patient["AGE"], patient["PLZ"])</text><rect fill="#F1F1F1" height="35.0938" rx="12.5" ry="12.5" style="stroke:#181818;stroke-width:0.5;" width="493" x="149.5" y="527.1719"/><text fill="#000000" font-family="sans-serif" font-size="12" lengthAdjust="spacing" textLength="473" x="159.5" y="549.6289">secondary_ICD = get_secondary_list(patient["GENDER"], patient["AGE"], patient["PLZ"])</text><rect fill="#F1F1F1" height="35.0938" rx="12.5" ry="12.5" style="stroke:#181818;stroke-width:0.5;" width="553" x="119.5" y="589.7656"/><text fill="#000000" font-family="sans-serif" font-size="12" lengthAdjust="spacing" textLength="533" x="129.5" y="612.2227">OPS = get_random_ops_list_v2(patient["GENDER"], patient["AGE"], primary_ICD, secondary_ICD)</text><rect fill="#F1F1F1" height="35.0938" rx="12.5" ry="12.5" style="stroke:#181818;stroke-width:0.5;" width="208" x="292" y="644.8594"/><text fill="#000000" font-family="sans-serif" font-size="12" lengthAdjust="spacing" textLength="188" x="302" y="667.3164">ventilation = check_for_breathing()</text><rect fill="#F1F1F1" height="35.0938" rx="12.5" ry="12.5" style="stroke:#181818;stroke-width:0.5;" width="516" x="138" y="699.9531"/><text fill="#000000" font-family="sans-serif" font-size="12" lengthAdjust="spacing" textLength="496" x="148" y="722.4102">days = get_DRG_params(primary_ICD, secondary_ICD, OPS, ventilation, admission_date)</text><rect fill="#F1F1F1" height="35.0938" rx="12.5" ry="12.5" style="stroke:#181818;stroke-width:0.5;" width="248" x="272" y="755.0469"/><text fill="#000000" font-family="sans-serif" font-size="12" lengthAdjust="spacing" textLength="228" x="282" y="777.5039">discharge_date = admission_date + days</text><rect fill="#F1F1F1" height="35.0938" rx="12.5" ry="12.5" style="stroke:#181818;stroke-width:0.5;" width="770" x="11" y="810.1406"/><text fill="#000000" font-family="sans-serif" font-size="12" lengthAdjust="spacing" textLength="750" x="21" y="832.5977">primary_ICD, secondary_ICD, OPS = adjust_coding(primary_ICD, secondary_ICD, OPS, patient["GENDER"], patient["AGE"], patient["PLZ"])</text><polygon fill="#F1F1F1" points="396,262.7969,408,274.7969,396,286.7969,384,274.7969,396,262.7969" style="stroke:#181818;stroke-width:0.5;"/><polygon fill="#F1F1F1" points="352,865.2344,440,865.2344,452,877.2344,440,889.2344,352,889.2344,340,877.2344,352,865.2344" style="stroke:#181818;stroke-width:0.5;"/><text fill="#000000" font-family="sans-serif" font-size="11" lengthAdjust="spacing" textLength="88" x="352" y="881.7354">generated &lt; id_list</text><rect fill="#F1F1F1" height="35.0938" rx="12.5" ry="12.5" style="stroke:#181818;stroke-width:0.5;" width="114" x="339" y="909.2344"/><text fill="#000000" font-family="sans-serif" font-size="12" lengthAdjust="spacing" textLength="94" x="349" y="931.6914">return treatments</text><ellipse cx="396" cy="975.3281" fill="none" rx="11" ry="11" style="stroke:#222222;stroke-width:1.0;"/><ellipse cx="396" cy="975.3281" fill="#222222" rx="6" ry="6" style="stroke:#222222;stroke-width:1.0;"/><line style="stroke:#181818;stroke-width:1.0;" x1="396" x2="396" y1="68.6094" y2="88.6094"/><polygon fill="#181818" points="392,78.6094,396,88.6094,400,78.6094,396,82.6094" style="stroke:#181818;stroke-width:1.0;"/><line style="stroke:#181818;stroke-width:1.0;" x1="349" x2="326.75" y1="155.7031" y2="155.7031"/><line style="stroke:#181818;stroke-width:1.0;" x1="326.75" x2="326.75" y1="155.7031" y2="177.7031"/><polygon fill="#181818" points="322.75,167.7031,326.75,177.7031,330.75,167.7031,326.75,171.7031" style="stroke:#181818;stroke-width:1.0;"/><line style="stroke:#181818;stroke-width:1.0;" x1="443" x2="465.25" y1="155.7031" y2="155.7031"/><line style="stroke:#181818;stroke-width:1.0;" x1="465.25" x2="465.25" y1="155.7031" y2="177.7031"/><polygon fill="#181818" points="461.25,167.7031,465.25,177.7031,469.25,167.7031,465.25,171.7031" style="stroke:#181818;stroke-width:1.0;"/><line style="stroke:#181818;stroke-width:1.0;" x1="326.75" x2="326.75" y1="212.7969" y2="230.7969"/><line style="stroke:#181818;stroke-width:1.0;" x1="326.75" x2="384" y1="230.7969" y2="230.7969"/><polygon fill="#181818" points="374,226.7969,384,230.7969,374,234.7969,378,230.7969" style="stroke:#181818;stroke-width:1.0;"/><line style="stroke:#181818;stroke-width:1.0;" x1="465.25" x2="465.25" y1="212.7969" y2="230.7969"/><line style="stroke:#181818;stroke-width:1.0;" x1="465.25" x2="408" y1="230.7969" y2="230.7969"/><polygon fill="#181818" points="418,226.7969,408,230.7969,418,234.7969,414,230.7969" style="stroke:#181818;stroke-width:1.0;"/><line style="stroke:#181818;stroke-width:1.0;" x1="396" x2="396" y1="123.7031" y2="143.7031"/><polygon fill="#181818" points="392,133.7031,396,143.7031,400,133.7031,396,137.7031" style="stroke:#181818;stroke-width:1.0;"/><line style="stroke:#181818;stroke-width:1.0;" x1="396" x2="396" y1="341.8906" y2="361.8906"/><polygon fill="#181818" points="392,351.8906,396,361.8906,400,351.8906,396,355.8906" style="stroke:#181818;stroke-width:1.0;"/><line style="stroke:#181818;stroke-width:1.0;" x1="396" x2="396" y1="396.9844" y2="416.9844"/><polygon fill="#181818" points="392,406.9844,396,416.9844,400,406.9844,396,410.9844" style="stroke:#181818;stroke-width:1.0;"/><line style="stroke:#181818;stroke-width:1.0;" x1="396" x2="396" y1="452.0781" y2="472.0781"/><polygon fill="#181818" points="392,462.0781,396,472.0781,400,462.0781,396,466.0781" style="stroke:#181818;stroke-width:1.0;"/><line style="stroke:#181818;stroke-width:1.0;" x1="396" x2="396" y1="507.1719" y2="527.1719"/><polygon fill="#181818" points="392,517.1719,396,527.1719,400,517.1719,396,521.1719" style="stroke:#181818;stroke-width:1.0;"/><line style="stroke:#181818;stroke-width:1.0;" x1="396" x2="396" y1="562.2656" y2="589.7656"/><polygon fill="#181818" points="392,579.7656,396,589.7656,400,579.7656,396,583.7656" style="stroke:#181818;stroke-width:1.0;"/><line style="stroke:#181818;stroke-width:1.0;" x1="396" x2="396" y1="624.8594" y2="644.8594"/><polygon fill="#181818" points="392,634.8594,396,644.8594,400,634.8594,396,638.8594" style="stroke:#181818;stroke-width:1.0;"/><line style="stroke:#181818;stroke-width:1.0;" x1="396" x2="396" y1="679.9531" y2="699.9531"/><polygon fill="#181818" points="392,689.9531,396,699.9531,400,689.9531,396,693.9531" style="stroke:#181818;stroke-width:1.0;"/><line style="stroke:#181818;stroke-width:1.0;" x1="396" x2="396" y1="735.0469" y2="755.0469"/><polygon fill="#181818" points="392,745.0469,396,755.0469,400,745.0469,396,749.0469" style="stroke:#181818;stroke-width:1.0;"/><line style="stroke:#181818;stroke-width:1.0;" x1="396" x2="396" y1="790.1406" y2="810.1406"/><polygon fill="#181818" points="392,800.1406,396,810.1406,400,800.1406,396,804.1406" style="stroke:#181818;stroke-width:1.0;"/><line style="stroke:#181818;stroke-width:1.0;" x1="396" x2="396" y1="286.7969" y2="306.7969"/><polygon fill="#181818" points="392,296.7969,396,306.7969,400,296.7969,396,300.7969" style="stroke:#181818;stroke-width:1.0;"/><line style="stroke:#181818;stroke-width:1.0;" x1="452" x2="793" y1="877.2344" y2="877.2344"/><polygon fill="#181818" points="789,582.2656,793,572.2656,797,582.2656,793,578.2656" style="stroke:#181818;stroke-width:1.0;"/><line style="stroke:#181818;stroke-width:1.0;" x1="793" x2="793" y1="274.7969" y2="877.2344"/><line style="stroke:#181818;stroke-width:1.0;" x1="793" x2="408" y1="274.7969" y2="274.7969"/><polygon fill="#181818" points="418,270.7969,408,274.7969,418,278.7969,414,274.7969" style="stroke:#181818;stroke-width:1.0;"/><line style="stroke:#181818;stroke-width:1.0;" x1="396" x2="396" y1="845.2344" y2="865.2344"/><polygon fill="#181818" points="392,855.2344,396,865.2344,400,855.2344,396,859.2344" style="stroke:#181818;stroke-width:1.0;"/><line style="stroke:#181818;stroke-width:1.0;" x1="396" x2="396" y1="242.7969" y2="262.7969"/><polygon fill="#181818" points="392,252.7969,396,262.7969,400,252.7969,396,256.7969" style="stroke:#181818;stroke-width:1.0;"/><line style="stroke:#181818;stroke-width:1.0;" x1="396" x2="396" y1="889.2344" y2="909.2344"/><polygon fill="#181818" points="392,899.2344,396,909.2344,400,899.2344,396,903.2344" style="stroke:#181818;stroke-width:1.0;"/><line style="stroke:#181818;stroke-width:1.0;" x1="396" x2="396" y1="944.3281" y2="964.3281"/><polygon fill="#181818" points="392,954.3281,396,964.3281,400,954.3281,396,958.3281" style="stroke:#181818;stroke-width:1.0;"/><!--SRC=[dLF1JiCm3BtdAonEcUY9Os47nAO92G626mX5eV7MG9jKYHdQt-DqRRS24sYxrF7UUtwEOx9K8QpGOT24YW9ggj6H8lrQePo8I3gGo0yY6asMJp63qiV6aguuTAhG4JbesSemCGDqfekiKPMDD3aNmYv1TaUOJk7MEvm0bUX0RZ1E1F0l7m2GFh9JPpfM4K4w_mFNHOnmnYw52DYmRP5tRfKr30hQ6LyF7R1UtlUm1TIQYb8DEUzKX-qvpoVtDqydBtkz9n5jQXkZPNXgbtLMI6fRhCt8tsub4PjWQnqswlfgDcRrVzZ2x4elvhUp-KEgFgGk5_FHkNMNb2CMtfcnzYxNtkfHkdVtZsEdlecjd5gV_Kjnrp4_bdsJINtDK5innJkkKfHOlAkb3-erlS7IkfLCAACtiJCnUrZmY8Akepoid06xpc1FF8Fno5fL6ujIXnNsG_msrLD8TST3-wrGotpxu1ifl4cM_pHsp22sxni-IylRBFjbDN0nx9h80z97S30iC9kFv9il]--></g></svg>