<?xml version="1.0" encoding="us-ascii" standalone="no"?><svg xmlns="http://www.w3.org/2000/svg" xmlns:xlink="http://www.w3.org/1999/xlink" contentStyleType="text/css" height="553px" preserveAspectRatio="none" style="width:366px;height:553px;background:#FFFFFF;" version="1.1" viewBox="0 0 366 553" width="366px" zoomAndPan="magnify"><defs/><g><text fill="#000000" font-family="sans-serif" font-size="14" font-weight="bold" lengthAdjust="spacing" textLength="139" x="112" y="34.5332">generate_patients()</text><ellipse cx="153.25" cy="58.6094" fill="#222222" rx="10" ry="10" style="stroke:#222222;stroke-width:1.0;"/><rect fill="#F1F1F1" height="35.0938" rx="12.5" ry="12.5" style="stroke:#181818;stroke-width:0.5;" width="219" x="43.75" y="88.6094"/><text fill="#000000" font-family="sans-serif" font-size="12" lengthAdjust="spacing" textLength="199" x="53.75" y="111.0664">generate_patients(n_patients, state)</text><polygon fill="#F1F1F1" points="119.75,187.7031,186.75,187.7031,198.75,199.7031,186.75,211.7031,119.75,211.7031,107.75,199.7031,119.75,187.7031" style="stroke:#181818;stroke-width:0.5;"/><text fill="#000000" font-family="sans-serif" font-size="11" lengthAdjust="spacing" textLength="67" x="119.75" y="204.2041">state == None</text><text fill="#000000" font-family="sans-serif" font-size="11" lengthAdjust="spacing" textLength="18" x="89.75" y="197.2861">yes</text><text fill="#000000" font-family="sans-serif" font-size="11" lengthAdjust="spacing" textLength="12" x="198.75" y="197.2861">no</text><rect fill="#F1F1F1" height="35.0938" rx="12.5" ry="12.5" style="stroke:#181818;stroke-width:0.5;" width="117" x="11" y="221.7031"/><text fill="#000000" font-family="sans-serif" font-size="12" lengthAdjust="spacing" textLength="97" x="21" y="244.1602">get_random_plz()</text><rect fill="#F1F1F1" height="35.0938" rx="12.5" ry="12.5" style="stroke:#181818;stroke-width:0.5;" width="178" x="148" y="221.7031"/><text fill="#000000" font-family="sans-serif" font-size="12" lengthAdjust="spacing" textLength="158" x="158" y="244.1602">get_random_state_plz(state)</text><polygon fill="#F1F1F1" points="153.25,262.7969,165.25,274.7969,153.25,286.7969,141.25,274.7969,153.25,262.7969" style="stroke:#181818;stroke-width:0.5;"/><rect fill="#F1F1F1" height="35.0938" rx="12.5" ry="12.5" style="stroke:#181818;stroke-width:0.5;" width="141" x="82.75" y="311.25"/><text fill="#000000" font-family="sans-serif" font-size="12" lengthAdjust="spacing" textLength="121" x="92.75" y="333.707">get_random_gender()</text><rect fill="#F1F1F1" height="35.0938" rx="12.5" ry="12.5" style="stroke:#181818;stroke-width:0.5;" width="162" x="72.25" y="366.3438"/><text fill="#000000" font-family="sans-serif" font-size="12" lengthAdjust="spacing" textLength="142" x="82.25" y="388.8008">get_random_age(gender)</text><polygon fill="#F1F1F1" points="153.25,143.7031,165.25,155.7031,153.25,167.7031,141.25,155.7031,153.25,143.7031" style="stroke:#181818;stroke-width:0.5;"/><polygon fill="#F1F1F1" points="97.75,421.4375,208.75,421.4375,220.75,433.4375,208.75,445.4375,97.75,445.4375,85.75,433.4375,97.75,421.4375" style="stroke:#181818;stroke-width:0.5;"/><text fill="#000000" font-family="sans-serif" font-size="11" lengthAdjust="spacing" textLength="111" x="97.75" y="437.9385">generated &lt; n_patients</text><rect fill="#F1F1F1" height="35.0938" rx="12.5" ry="12.5" style="stroke:#181818;stroke-width:0.5;" width="99" x="103.75" y="465.4375"/><text fill="#000000" font-family="sans-serif" font-size="12" lengthAdjust="spacing" textLength="79" x="113.75" y="487.8945">return patients</text><ellipse cx="153.25" cy="531.5313" fill="none" rx="11" ry="11" style="stroke:#222222;stroke-width:1.0;"/><ellipse cx="153.25" cy="531.5313" fill="#222222" rx="6" ry="6" style="stroke:#222222;stroke-width:1.0;"/><line style="stroke:#181818;stroke-width:1.0;" x1="153.25" x2="153.25" y1="68.6094" y2="88.6094"/><polygon fill="#181818" points="149.25,78.6094,153.25,88.6094,157.25,78.6094,153.25,82.6094" style="stroke:#181818;stroke-width:1.0;"/><line style="stroke:#181818;stroke-width:1.0;" x1="107.75" x2="69.5" y1="199.7031" y2="199.7031"/><line style="stroke:#181818;stroke-width:1.0;" x1="69.5" x2="69.5" y1="199.7031" y2="221.7031"/><polygon fill="#181818" points="65.5,211.7031,69.5,221.7031,73.5,211.7031,69.5,215.7031" style="stroke:#181818;stroke-width:1.0;"/><line style="stroke:#181818;stroke-width:1.0;" x1="198.75" x2="237" y1="199.7031" y2="199.7031"/><line style="stroke:#181818;stroke-width:1.0;" x1="237" x2="237" y1="199.7031" y2="221.7031"/><polygon fill="#181818" points="233,211.7031,237,221.7031,241,211.7031,237,215.7031" style="stroke:#181818;stroke-width:1.0;"/><line style="stroke:#181818;stroke-width:1.0;" x1="69.5" x2="69.5" y1="256.7969" y2="274.7969"/><line style="stroke:#181818;stroke-width:1.0;" x1="69.5" x2="141.25" y1="274.7969" y2="274.7969"/><polygon fill="#181818" points="131.25,270.7969,141.25,274.7969,131.25,278.7969,135.25,274.7969" style="stroke:#181818;stroke-width:1.0;"/><line style="stroke:#181818;stroke-width:1.0;" x1="237" x2="237" y1="256.7969" y2="274.7969"/><line style="stroke:#181818;stroke-width:1.0;" x1="237" x2="165.25" y1="274.7969" y2="274.7969"/><polygon fill="#181818" points="175.25,270.7969,165.25,274.7969,175.25,278.7969,171.25,274.7969" style="stroke:#181818;stroke-width:1.0;"/><line style="stroke:#181818;stroke-width:1.0;" x1="153.25" x2="153.25" y1="286.7969" y2="311.25"/><polygon fill="#181818" points="149.25,301.25,153.25,311.25,157.25,301.25,153.25,305.25" style="stroke:#181818;stroke-width:1.0;"/><line style="stroke:#181818;stroke-width:1.0;" x1="153.25" x2="153.25" y1="346.3438" y2="366.3438"/><polygon fill="#181818" points="149.25,356.3438,153.25,366.3438,157.25,356.3438,153.25,360.3438" style="stroke:#181818;stroke-width:1.0;"/><line style="stroke:#181818;stroke-width:1.0;" x1="153.25" x2="153.25" y1="167.7031" y2="187.7031"/><polygon fill="#181818" points="149.25,177.7031,153.25,187.7031,157.25,177.7031,153.25,181.7031" style="stroke:#181818;stroke-width:1.0;"/><line style="stroke:#181818;stroke-width:1.0;" x1="220.75" x2="340" y1="433.4375" y2="433.4375"/><polygon fill="#181818" points="336,306.7969,340,296.7969,344,306.7969,340,302.7969" style="stroke:#181818;stroke-width:1.0;"/><line style="stroke:#181818;stroke-width:1.0;" x1="340" x2="340" y1="155.7031" y2="433.4375"/><line style="stroke:#181818;stroke-width:1.0;" x1="340" x2="165.25" y1="155.7031" y2="155.7031"/><polygon fill="#181818" points="175.25,151.7031,165.25,155.7031,175.25,159.7031,171.25,155.7031" style="stroke:#181818;stroke-width:1.0;"/><line style="stroke:#181818;stroke-width:1.0;" x1="153.25" x2="153.25" y1="401.4375" y2="421.4375"/><polygon fill="#181818" points="149.25,411.4375,153.25,421.4375,157.25,411.4375,153.25,415.4375" style="stroke:#181818;stroke-width:1.0;"/><line style="stroke:#181818;stroke-width:1.0;" x1="153.25" x2="153.25" y1="123.7031" y2="143.7031"/><polygon fill="#181818" points="149.25,133.7031,153.25,143.7031,157.25,133.7031,153.25,137.7031" style="stroke:#181818;stroke-width:1.0;"/><line style="stroke:#181818;stroke-width:1.0;" x1="153.25" x2="153.25" y1="445.4375" y2="465.4375"/><polygon fill="#181818" points="149.25,455.4375,153.25,465.4375,157.25,455.4375,153.25,459.4375" style="stroke:#181818;stroke-width:1.0;"/><line style="stroke:#181818;stroke-width:1.0;" x1="153.25" x2="153.25" y1="500.5313" y2="520.5313"/><polygon fill="#181818" points="149.25,510.5313,153.25,520.5313,157.25,510.5313,153.25,514.5313" style="stroke:#181818;stroke-width:1.0;"/><!--SRC=[PL112iCm3Blx5Juci1UqwnVsXHA8sWOw9oGUOtlzievqXVfa95csh45Ny0n1TeenEGqGBSOI5NLPgJjpihSNhYA5xIaZmIc5YSq6yJ3mBGeiwm9XyqAnnBMgduxPYO_tCQrlKsUn5h2HU1PiLfkixO7uCD5HK-_po5-V8-fcc1-p7yVF9TIifWNoVEL_54jTXZwoS4Fw-e6OFW00]--></g></svg>