<?xml version="1.0" encoding="us-ascii" standalone="no"?><svg xmlns="http://www.w3.org/2000/svg" xmlns:xlink="http://www.w3.org/1999/xlink" contentStyleType="text/css" height="996px" preserveAspectRatio="none" style="width:2474px;height:996px;background:#FFFFFF;" version="1.1" viewBox="0 0 2474 996" width="2474px" zoomAndPan="magnify"><defs/><g><rect fill="#FFFFFF" height="902.7891" style="stroke:#181818;stroke-width:1.0;" width="10" x="217" y="47.6094"/><rect fill="#FFFFFF" height="902.7891" style="stroke:#181818;stroke-width:1.0;" width="10" x="425" y="47.6094"/><rect fill="#FFFFFF" height="902.7891" style="stroke:#181818;stroke-width:1.0;" width="10" x="714" y="47.6094"/><rect fill="#FFFFFF" height="902.7891" style="stroke:#181818;stroke-width:1.0;" width="10" x="991" y="47.6094"/><rect fill="#FFFFFF" height="902.7891" style="stroke:#181818;stroke-width:1.0;" width="10" x="1148" y="47.6094"/><rect fill="none" height="849.4375" style="stroke:#000000;stroke-width:1.5;" width="1489.5" x="397.5" y="100.9609"/><rect fill="none" height="105.0547" style="stroke:#000000;stroke-width:1.5;" width="248" x="967.5" y="331.0703"/><line style="stroke:#181818;stroke-width:0.5;stroke-dasharray:5.0,5.0;" x1="221.5" x2="221.5" y1="37.6094" y2="959.3984"/><line style="stroke:#181818;stroke-width:0.5;stroke-dasharray:5.0,5.0;" x1="429.5" x2="429.5" y1="37.6094" y2="959.3984"/><line style="stroke:#181818;stroke-width:0.5;stroke-dasharray:5.0,5.0;" x1="718.5" x2="718.5" y1="37.6094" y2="959.3984"/><line style="stroke:#181818;stroke-width:0.5;stroke-dasharray:5.0,5.0;" x1="995.5" x2="995.5" y1="37.6094" y2="959.3984"/><line style="stroke:#181818;stroke-width:0.5;stroke-dasharray:5.0,5.0;" x1="1152.5" x2="1152.5" y1="37.6094" y2="959.3984"/><line style="stroke:#181818;stroke-width:0.5;stroke-dasharray:5.0,5.0;" x1="1472.5" x2="1472.5" y1="37.6094" y2="959.3984"/><line style="stroke:#181818;stroke-width:0.5;stroke-dasharray:5.0,5.0;" x1="1887" x2="1887" y1="37.6094" y2="959.3984"/><line style="stroke:#181818;stroke-width:0.5;stroke-dasharray:5.0,5.0;" x1="2215.5" x2="2215.5" y1="37.6094" y2="959.3984"/><line style="stroke:#181818;stroke-width:0.5;stroke-dasharray:5.0,5.0;" x1="2306.5" x2="2306.5" y1="37.6094" y2="959.3984"/><rect fill="#E2E2F0" height="31.6094" rx="2.5" ry="2.5" style="stroke:#181818;stroke-width:0.5;" width="79" x="182.5" y="5"/><text fill="#000000" font-family="sans-serif" font-size="14" lengthAdjust="spacing" textLength="65" x="189.5" y="26.5332">Simulation</text><rect fill="#E2E2F0" height="31.6094" rx="2.5" ry="2.5" style="stroke:#181818;stroke-width:0.5;" width="79" x="182.5" y="958.3984"/><text fill="#000000" font-family="sans-serif" font-size="14" lengthAdjust="spacing" textLength="65" x="189.5" y="979.9316">Simulation</text><rect fill="#E2E2F0" height="31.6094" rx="2.5" ry="2.5" style="stroke:#181818;stroke-width:0.5;" width="45" x="407.5" y="5"/><text fill="#000000" font-family="sans-serif" font-size="14" lengthAdjust="spacing" textLength="31" x="414.5" y="26.5332">DRG</text><rect fill="#E2E2F0" height="31.6094" rx="2.5" ry="2.5" style="stroke:#181818;stroke-width:0.5;" width="45" x="407.5" y="958.3984"/><text fill="#000000" font-family="sans-serif" font-size="14" lengthAdjust="spacing" textLength="31" x="414.5" y="979.9316">DRG</text><rect fill="#E2E2F0" height="31.6094" rx="2.5" ry="2.5" style="stroke:#181818;stroke-width:0.5;" width="79" x="679.5" y="5"/><text fill="#000000" font-family="sans-serif" font-size="14" lengthAdjust="spacing" textLength="65" x="686.5" y="26.5332">Generator</text><rect fill="#E2E2F0" height="31.6094" rx="2.5" ry="2.5" style="stroke:#181818;stroke-width:0.5;" width="79" x="679.5" y="958.3984"/><text fill="#000000" font-family="sans-serif" font-size="14" lengthAdjust="spacing" textLength="65" x="686.5" y="979.9316">Generator</text><rect fill="#E2E2F0" height="31.6094" rx="2.5" ry="2.5" style="stroke:#181818;stroke-width:0.5;" width="37" x="977.5" y="5"/><text fill="#000000" font-family="sans-serif" font-size="14" lengthAdjust="spacing" textLength="23" x="984.5" y="26.5332">ICD</text><rect fill="#E2E2F0" height="31.6094" rx="2.5" ry="2.5" style="stroke:#181818;stroke-width:0.5;" width="37" x="977.5" y="958.3984"/><text fill="#000000" font-family="sans-serif" font-size="14" lengthAdjust="spacing" textLength="23" x="984.5" y="979.9316">ICD</text><rect fill="#E2E2F0" height="31.6094" rx="2.5" ry="2.5" style="stroke:#181818;stroke-width:0.5;" width="43" x="1131.5" y="5"/><text fill="#000000" font-family="sans-serif" font-size="14" lengthAdjust="spacing" textLength="29" x="1138.5" y="26.5332">OPS</text><rect fill="#E2E2F0" height="31.6094" rx="2.5" ry="2.5" style="stroke:#181818;stroke-width:0.5;" width="43" x="1131.5" y="958.3984"/><text fill="#000000" font-family="sans-serif" font-size="14" lengthAdjust="spacing" textLength="29" x="1138.5" y="979.9316">OPS</text><rect fill="#E2E2F0" height="31.6094" rx="2.5" ry="2.5" style="stroke:#181818;stroke-width:0.5;" width="91" x="1427.5" y="5"/><text fill="#000000" font-family="sans-serif" font-size="14" lengthAdjust="spacing" textLength="77" x="1434.5" y="26.5332">Adjustments</text><rect fill="#E2E2F0" height="31.6094" rx="2.5" ry="2.5" style="stroke:#181818;stroke-width:0.5;" width="91" x="1427.5" y="958.3984"/><text fill="#000000" font-family="sans-serif" font-size="14" lengthAdjust="spacing" textLength="77" x="1434.5" y="979.9316">Adjustments</text><rect fill="#E2E2F0" height="31.6094" rx="2.5" ry="2.5" style="stroke:#181818;stroke-width:0.5;" width="88" x="1843" y="5"/><text fill="#000000" font-family="sans-serif" font-size="14" lengthAdjust="spacing" textLength="74" x="1850" y="26.5332">inject_fraud</text><rect fill="#E2E2F0" height="31.6094" rx="2.5" ry="2.5" style="stroke:#181818;stroke-width:0.5;" width="88" x="1843" y="958.3984"/><text fill="#000000" font-family="sans-serif" font-size="14" lengthAdjust="spacing" textLength="74" x="1850" y="979.9316">inject_fraud</text><rect fill="#E2E2F0" height="31.6094" rx="2.5" ry="2.5" style="stroke:#181818;stroke-width:0.5;" width="95" x="2168.5" y="5"/><text fill="#000000" font-family="sans-serif" font-size="14" lengthAdjust="spacing" textLength="81" x="2175.5" y="26.5332">create_fraud</text><rect fill="#E2E2F0" height="31.6094" rx="2.5" ry="2.5" style="stroke:#181818;stroke-width:0.5;" width="95" x="2168.5" y="958.3984"/><text fill="#000000" font-family="sans-serif" font-size="14" lengthAdjust="spacing" textLength="81" x="2175.5" y="979.9316">create_fraud</text><rect fill="#E2E2F0" height="31.6094" rx="2.5" ry="2.5" style="stroke:#181818;stroke-width:0.5;" width="67" x="2273.5" y="5"/><text fill="#000000" font-family="sans-serif" font-size="14" lengthAdjust="spacing" textLength="53" x="2280.5" y="26.5332">Grouper</text><rect fill="#E2E2F0" height="31.6094" rx="2.5" ry="2.5" style="stroke:#181818;stroke-width:0.5;" width="67" x="2273.5" y="958.3984"/><text fill="#000000" font-family="sans-serif" font-size="14" lengthAdjust="spacing" textLength="53" x="2280.5" y="979.9316">Grouper</text><rect fill="#FFFFFF" height="902.7891" style="stroke:#181818;stroke-width:1.0;" width="10" x="217" y="47.6094"/><rect fill="#FFFFFF" height="902.7891" style="stroke:#181818;stroke-width:1.0;" width="10" x="425" y="47.6094"/><rect fill="#FFFFFF" height="902.7891" style="stroke:#181818;stroke-width:1.0;" width="10" x="714" y="47.6094"/><rect fill="#FFFFFF" height="902.7891" style="stroke:#181818;stroke-width:1.0;" width="10" x="991" y="47.6094"/><rect fill="#FFFFFF" height="902.7891" style="stroke:#181818;stroke-width:1.0;" width="10" x="1148" y="47.6094"/><line style="stroke:#000000;stroke-width:1.0;stroke-dasharray:2.0,2.0;" x1="0" x2="2467" y1="48.6094" y2="48.6094"/><rect fill="#EEEEEE" height="3" style="stroke:#EEEEEE;stroke-width:1.0;" width="2467" x="0" y="70.7852"/><line style="stroke:#000000;stroke-width:1.0;" x1="0" x2="2467" y1="70.7852" y2="70.7852"/><line style="stroke:#000000;stroke-width:1.0;" x1="0" x2="2467" y1="73.7852" y2="73.7852"/><rect fill="#EEEEEE" height="24.3516" style="stroke:#000000;stroke-width:2.0;" width="228" x="1119.5" y="59.6094"/><text fill="#000000" font-family="sans-serif" font-size="13" font-weight="bold" lengthAdjust="spacing" textLength="210" x="1125.5" y="77.1045">GENERATE TREATMENT DETAILS</text><path d="M397.5,100.9609 L470.5,100.9609 L470.5,109.3125 L460.5,119.3125 L397.5,119.3125 L397.5,100.9609 " fill="#EEEEEE" style="stroke:#000000;stroke-width:1.5;"/><rect fill="none" height="849.4375" style="stroke:#000000;stroke-width:1.5;" width="1489.5" x="397.5" y="100.9609"/><text fill="#000000" font-family="sans-serif" font-size="13" font-weight="bold" lengthAdjust="spacing" textLength="28" x="412.5" y="115.4561">loop</text><text fill="#000000" font-family="sans-serif" font-size="11" font-weight="bold" lengthAdjust="spacing" textLength="83" x="485.5" y="114.3799">[n_treatments]</text><line style="stroke:#181818;stroke-width:1.0;" x1="724" x2="766" y1="141.6641" y2="141.6641"/><line style="stroke:#181818;stroke-width:1.0;" x1="766" x2="766" y1="141.6641" y2="154.6641"/><line style="stroke:#181818;stroke-width:1.0;" x1="725" x2="766" y1="154.6641" y2="154.6641"/><polygon fill="#181818" points="735,150.6641,725,154.6641,735,158.6641,731,154.6641" style="stroke:#181818;stroke-width:1.0;"/><text fill="#000000" font-family="sans-serif" font-size="13" lengthAdjust="spacing" textLength="163" x="731" y="136.8076">match_hospital_on_patient()</text><polygon fill="#181818" points="979,181.0156,989,185.0156,979,189.0156,983,185.0156" style="stroke:#181818;stroke-width:1.0;"/><line style="stroke:#181818;stroke-width:1.0;" x1="724" x2="985" y1="185.0156" y2="185.0156"/><text fill="#000000" font-family="sans-serif" font-size="13" lengthAdjust="spacing" textLength="243" x="731" y="180.1592">get_random_primary_icd(age, gender, plz)</text><line style="stroke:#181818;stroke-width:1.0;" x1="1001" x2="1043" y1="215.3672" y2="215.3672"/><line style="stroke:#181818;stroke-width:1.0;" x1="1043" x2="1043" y1="215.3672" y2="228.3672"/><line style="stroke:#181818;stroke-width:1.0;" x1="1002" x2="1043" y1="228.3672" y2="228.3672"/><polygon fill="#181818" points="1012,224.3672,1002,228.3672,1012,232.3672,1008,228.3672" style="stroke:#181818;stroke-width:1.0;"/><text fill="#000000" font-family="sans-serif" font-size="13" lengthAdjust="spacing" textLength="133" x="1008" y="210.5107">get_gender_relevancy()</text><polygon fill="#181818" points="735,254.7188,725,258.7188,735,262.7188,731,258.7188" style="stroke:#181818;stroke-width:1.0;"/><line style="stroke:#181818;stroke-width:1.0;stroke-dasharray:2.0,2.0;" x1="729" x2="990" y1="258.7188" y2="258.7188"/><text fill="#000000" font-family="sans-serif" font-size="13" lengthAdjust="spacing" textLength="53" x="741" y="253.8623">ICD code</text><polygon fill="#181818" points="979,285.0703,989,289.0703,979,293.0703,983,289.0703" style="stroke:#181818;stroke-width:1.0;"/><line style="stroke:#181818;stroke-width:1.0;" x1="724" x2="985" y1="289.0703" y2="289.0703"/><text fill="#000000" font-family="sans-serif" font-size="13" lengthAdjust="spacing" textLength="210" x="731" y="284.2139">get_secondary_list(age, gender, plz)</text><line style="stroke:#181818;stroke-width:1.0;" x1="1001" x2="1043" y1="303.0703" y2="303.0703"/><line style="stroke:#181818;stroke-width:1.0;" x1="1043" x2="1043" y1="303.0703" y2="316.0703"/><line style="stroke:#181818;stroke-width:1.0;" x1="1002" x2="1043" y1="316.0703" y2="316.0703"/><polygon fill="#181818" points="1012,312.0703,1002,316.0703,1012,320.0703,1008,316.0703" style="stroke:#181818;stroke-width:1.0;"/><path d="M967.5,331.0703 L1040.5,331.0703 L1040.5,339.4219 L1030.5,349.4219 L967.5,349.4219 L967.5,331.0703 " fill="#EEEEEE" style="stroke:#000000;stroke-width:1.5;"/><rect fill="none" height="105.0547" style="stroke:#000000;stroke-width:1.5;" width="248" x="967.5" y="331.0703"/><text fill="#000000" font-family="sans-serif" font-size="13" font-weight="bold" lengthAdjust="spacing" textLength="28" x="982.5" y="345.5654">loop</text><text fill="#000000" font-family="sans-serif" font-size="11" font-weight="bold" lengthAdjust="spacing" textLength="155" x="1055.5" y="344.4893">[number of secondary ICDs]</text><line style="stroke:#181818;stroke-width:1.0;" x1="1001" x2="1043" y1="371.7734" y2="371.7734"/><line style="stroke:#181818;stroke-width:1.0;" x1="1043" x2="1043" y1="371.7734" y2="384.7734"/><line style="stroke:#181818;stroke-width:1.0;" x1="1002" x2="1043" y1="384.7734" y2="384.7734"/><polygon fill="#181818" points="1012,380.7734,1002,384.7734,1012,388.7734,1008,384.7734" style="stroke:#181818;stroke-width:1.0;"/><text fill="#000000" font-family="sans-serif" font-size="13" lengthAdjust="spacing" textLength="133" x="1008" y="366.917">get_gender_relevancy()</text><line style="stroke:#181818;stroke-width:1.0;" x1="1001" x2="1043" y1="415.125" y2="415.125"/><line style="stroke:#181818;stroke-width:1.0;" x1="1043" x2="1043" y1="415.125" y2="428.125"/><line style="stroke:#181818;stroke-width:1.0;" x1="1002" x2="1043" y1="428.125" y2="428.125"/><polygon fill="#181818" points="1012,424.125,1002,428.125,1012,432.125,1008,428.125" style="stroke:#181818;stroke-width:1.0;"/><text fill="#000000" font-family="sans-serif" font-size="13" lengthAdjust="spacing" textLength="90" x="1008" y="410.2686">final_selection()</text><polygon fill="#181818" points="735,461.4766,725,465.4766,735,469.4766,731,465.4766" style="stroke:#181818;stroke-width:1.0;"/><line style="stroke:#181818;stroke-width:1.0;stroke-dasharray:2.0,2.0;" x1="729" x2="990" y1="465.4766" y2="465.4766"/><text fill="#000000" font-family="sans-serif" font-size="13" lengthAdjust="spacing" textLength="97" x="741" y="460.6201">list of ICD-Codes</text><polygon fill="#181818" points="1136,508.1797,1146,512.1797,1136,516.1797,1140,512.1797" style="stroke:#181818;stroke-width:1.0;"/><line style="stroke:#181818;stroke-width:1.0;" x1="724" x2="1142" y1="512.1797" y2="512.1797"/><text fill="#000000" font-family="sans-serif" font-size="13" lengthAdjust="spacing" textLength="215" x="731" y="490.9717">get_random_ops_list_v2(age, gender,</text><text fill="#000000" font-family="sans-serif" font-size="13" lengthAdjust="spacing" textLength="115" x="731" y="507.3232">primary, secondary)</text><polygon fill="#181818" points="446,538.5313,436,542.5313,446,546.5313,442,542.5313" style="stroke:#181818;stroke-width:1.0;"/><line style="stroke:#181818;stroke-width:1.0;" x1="440" x2="1147" y1="542.5313" y2="542.5313"/><text fill="#000000" font-family="sans-serif" font-size="13" lengthAdjust="spacing" textLength="245" x="452" y="537.6748">get_OPS_list_on_ICD(primary, secondary)</text><line style="stroke:#181818;stroke-width:1.0;" x1="435" x2="477" y1="572.8828" y2="572.8828"/><line style="stroke:#181818;stroke-width:1.0;" x1="477" x2="477" y1="572.8828" y2="585.8828"/><line style="stroke:#181818;stroke-width:1.0;" x1="436" x2="477" y1="585.8828" y2="585.8828"/><polygon fill="#181818" points="446,581.8828,436,585.8828,446,589.8828,442,585.8828" style="stroke:#181818;stroke-width:1.0;"/><text fill="#000000" font-family="sans-serif" font-size="13" lengthAdjust="spacing" textLength="135" x="442" y="568.0264">get_DRG_list_primary()</text><line style="stroke:#181818;stroke-width:1.0;" x1="435" x2="477" y1="616.2344" y2="616.2344"/><line style="stroke:#181818;stroke-width:1.0;" x1="477" x2="477" y1="616.2344" y2="629.2344"/><line style="stroke:#181818;stroke-width:1.0;" x1="436" x2="477" y1="629.2344" y2="629.2344"/><polygon fill="#181818" points="446,625.2344,436,629.2344,446,633.2344,442,629.2344" style="stroke:#181818;stroke-width:1.0;"/><text fill="#000000" font-family="sans-serif" font-size="13" lengthAdjust="spacing" textLength="152" x="442" y="611.3779">get_DRG_list_secondary()</text><polygon fill="#181818" points="1136,655.5859,1146,659.5859,1136,663.5859,1140,659.5859" style="stroke:#181818;stroke-width:1.0;"/><line style="stroke:#181818;stroke-width:1.0;stroke-dasharray:2.0,2.0;" x1="435" x2="1142" y1="659.5859" y2="659.5859"/><text fill="#000000" font-family="sans-serif" font-size="13" lengthAdjust="spacing" textLength="150" x="442" y="654.7295">list of relevant OPS codes</text><line style="stroke:#181818;stroke-width:1.0;" x1="1158" x2="1200" y1="689.9375" y2="689.9375"/><line style="stroke:#181818;stroke-width:1.0;" x1="1200" x2="1200" y1="689.9375" y2="702.9375"/><line style="stroke:#181818;stroke-width:1.0;" x1="1159" x2="1200" y1="702.9375" y2="702.9375"/><polygon fill="#181818" points="1169,698.9375,1159,702.9375,1169,706.9375,1165,702.9375" style="stroke:#181818;stroke-width:1.0;"/><text fill="#000000" font-family="sans-serif" font-size="13" lengthAdjust="spacing" textLength="123" x="1165" y="685.0811">substract_negatives()</text><polygon fill="#181818" points="735,729.2891,725,733.2891,735,737.2891,731,733.2891" style="stroke:#181818;stroke-width:1.0;"/><line style="stroke:#181818;stroke-width:1.0;stroke-dasharray:2.0,2.0;" x1="729" x2="1147" y1="733.2891" y2="733.2891"/><text fill="#000000" font-family="sans-serif" font-size="13" lengthAdjust="spacing" textLength="102" x="741" y="728.4326">list of OPS codes</text><line style="stroke:#181818;stroke-width:1.0;" x1="724" x2="766" y1="763.6406" y2="763.6406"/><line style="stroke:#181818;stroke-width:1.0;" x1="766" x2="766" y1="763.6406" y2="776.6406"/><line style="stroke:#181818;stroke-width:1.0;" x1="725" x2="766" y1="776.6406" y2="776.6406"/><polygon fill="#181818" points="735,772.6406,725,776.6406,735,780.6406,731,776.6406" style="stroke:#181818;stroke-width:1.0;"/><text fill="#000000" font-family="sans-serif" font-size="13" lengthAdjust="spacing" textLength="78" x="731" y="758.7842">is_breathing()</text><polygon fill="#181818" points="446,819.3438,436,823.3438,446,827.3438,442,823.3438" style="stroke:#181818;stroke-width:1.0;"/><line style="stroke:#181818;stroke-width:1.0;" x1="440" x2="713" y1="823.3438" y2="823.3438"/><text fill="#000000" font-family="sans-serif" font-size="13" lengthAdjust="spacing" textLength="251" x="452" y="802.1357">get_DRG_params(primary, secondary, ops,</text><text fill="#000000" font-family="sans-serif" font-size="13" lengthAdjust="spacing" textLength="127" x="452" y="818.4873">breathing, date, state)</text><line style="stroke:#181818;stroke-width:1.0;" x1="435" x2="477" y1="853.6953" y2="853.6953"/><line style="stroke:#181818;stroke-width:1.0;" x1="477" x2="477" y1="853.6953" y2="866.6953"/><line style="stroke:#181818;stroke-width:1.0;" x1="436" x2="477" y1="866.6953" y2="866.6953"/><polygon fill="#181818" points="446,862.6953,436,866.6953,446,870.6953,442,866.6953" style="stroke:#181818;stroke-width:1.0;"/><text fill="#000000" font-family="sans-serif" font-size="13" lengthAdjust="spacing" textLength="115" x="442" y="848.8389">get_DRG_overview()</text><line style="stroke:#181818;stroke-width:1.0;" x1="435" x2="477" y1="897.0469" y2="897.0469"/><line style="stroke:#181818;stroke-width:1.0;" x1="477" x2="477" y1="897.0469" y2="910.0469"/><line style="stroke:#181818;stroke-width:1.0;" x1="436" x2="477" y1="910.0469" y2="910.0469"/><polygon fill="#181818" points="446,906.0469,436,910.0469,446,914.0469,442,910.0469" style="stroke:#181818;stroke-width:1.0;"/><text fill="#000000" font-family="sans-serif" font-size="13" lengthAdjust="spacing" textLength="253" x="442" y="892.1904">generate_random_days(lower, upper, mean)</text><polygon fill="#181818" points="702,936.3984,712,940.3984,702,944.3984,706,940.3984" style="stroke:#181818;stroke-width:1.0;"/><line style="stroke:#181818;stroke-width:1.0;stroke-dasharray:2.0,2.0;" x1="435" x2="708" y1="940.3984" y2="940.3984"/><text fill="#000000" font-family="sans-serif" font-size="13" lengthAdjust="spacing" textLength="28" x="442" y="935.542">days</text><line style="stroke:#000000;stroke-width:1.0;stroke-dasharray:2.0,2.0;" x1="0" x2="2467" y1="948.3984" y2="948.3984"/><!--SRC=[xHfhRzkwzRj-1TVxmGwG36rtXm71Ci1eSdCpzBP1alR3RW62bcYRhKHg9EN4_VKxf2YArCEHtGxRi0Q8RP67vyNpfFZxsT_GFIkgd6Wc-3bYdEavnobHL9qYZaiOfrp3xq-SuurG9TCaXqUbYQQdI1AUYGAxfqySC6bMIf5IfHXVdoGarMmBam6LfFs9WFpbtRMZ6q33O79nWQwltbtTBHwkqEtYuURgtSCzMhoxHB- -lx-zULYylKSN5md9DUfGHN-uG2yJ17ynfMlAgIHQo7EqhdzIB-0ybjKAT69nU9xySZlidmpccpUNNePe3KpqeT_VtWz3muGTo8Ke0-NRiHwMlTBKY2dFkjGx-nsHU5vRtW3cG-Pm4ZBl9wTptsAVodvCv7d-CwB9FDpdG0IEjQH45sRg9A6veiXy78BPEuxHJaicKCR9yxQprrI-jsLytyqo__0t0y-zkrfSeZVt7z4lDs-lhACcCv3KO6DfzkhbkdZzylKhjLCQVn4PLNzCrTPWrxYKhC00WtEcZDYpo9dQfr4qoMnqoXgGLRYXGkJEF213Q2ftYgOHSnD8mHB1iqE9fHkQVi6WxenAB6bEjuIdkuaa6qBeaUaDWkbKijAOhqfc6PsWmcG6bkSC47P4B1rNu24PRiR8akKCp4g5aTl4i6Z7efW- -oa4R35RUksZbSGQVyHlVqd48duzmAGR3GodDzCPiCJ7QJUhG1oNlh3W-BQsfu21U28oPAk9yAc3mIBlZ5ckJAwCk1fP6p1strZVPDPwgpmxqUXUXlhh0vP0bNrcO7284GVhMN3FUuc7QppPBPLRHX-xXDrmdtG0xuW78tl8X-iuVIp9cYPHAVC0eV7XDoXcqENLm-Achc9S76upKB8l21T4fniVWOt8BhpFn_AB2LskLdEHpqInEJ1tYkeOSuhA_6kzl8bE3MJN_wDnHxBLNczLFTyR7e_5TTIA8aoD8z3r29N_MSuTutwp1WA_1ukDmGob4BZtxBpFG7NQsh_hBN0_gFRcGhPgWXsT3cAhOSp7uFI-r3b5m-CqQpUhYYMLIAnYz6tjCt4lkg0hni4P5K2b9jLsAgs1dRFo01imTVR6fDwH-YzmNb4gkuTu-phUna_SsTLfAvNRLvScpTAkF_YndYz4qFLSDEIJfFcOl3C3MBlSHVOMZ8vp6DfKP_0RkGmmEpPjishsmvG3TYCW-CB-pSUqtwQWUft94NPTwPFlNZ2FBWHiX6eCo5ccjboctfBQ-WWygLegBK54pEaQaiMMDdjkeOODiqMtDnqnXPScSMsWznxAG95K9P6aK0FwEZLwDuRiSPsYp1uh1Ctba9w27Du7STsASv-CxDGy5u_6OwgoD5y59JnMRI2PWQzbRr9vJxX5zhbITSu-HyG-OD2PKSKq6HiFjkxiex4tnW2_dGYUU-Jhdc5BSfOnlSE_tdmSjSldqNpTQQ754qinb1jKCjFg6IID74O5fgEOYcybSi15KfOTnHJ9CjTqvD1jCxAa6j2beX1oQSGrRSWnUBd01TLaQRbxt53kaDDX6urswoihfp5k8egfqggYd9kFm_GNO91qonIieXdUK2Br_50yJQYmJUoIIRqvUZTYL11EgS8RHeypEI4bf4qJxa2OJeKow4Qns5FTPIYVhYJyACXd8MEwB_vyzfUVNvpqGgbPtkJXJWoDP5fLUUv3g0KBSipXRhsIbOdWt2luUQrAMkOafLZa6Ivs8YKomuolY4pruKXMUSMW0gnacLTAJLzVS_-Fbw-2N7OmyOf_uUAHO_f42YYpR7rrC195EJF1WxgqS1GI4ASG1qZl33lV5UL658UeZV0rRMhFbP0G_UYQs_fpt3CEa8DK2gB8SeU5tW05ndr9uj4EDmfJRVZmnhEfaIE6mnxhMpsfoS_W0OoBWc0jd8Q_IQSExHUMSReBpFnRSBhzXmHN4dwGfRgLAwehXI6nIVZUipgkU6fHQDPJU_rQ9Eh7t33iRgVm7DaTUpmSp9dJmVY4BObFKv9a_EZV7vLWRKg2S6NxeYOyWBbvz_UhDm_ebxl5Xqjpv1AVwJF-sRZfIf8gEu-UvZUNoXJ3mHb-Uu0QmBMZgM6Dkb7RSkQKprk68GIBUYF2zOQBSANXmZmh6bJN_bUzFeIt6eh50F7H5YWo9-T6L59D8Emi29mZ9LGHcEkOtmIwWVrCe0Whm50vjbKUbKgOLXhSbCuxBZE1ScIa4sXdrAdvaRBrHi_hhydaQl3fMWMci90cvB1iF3GyGxWKIZ4mUt2wOkaIufITTP4ggrpwCooO9kSKiKnDekmFBS0hj80kolHerhK33umyeCjHZAy-BmcqakQ45S1GADcOotLHNqjHWVcS8_f4qwhX0A_DSDsSja6Y1atSTxGQCYsqgT5gOEna45PMV0YY9sSDaw5QlBDetyBOvTZQhxJkDZOwivjufAgELT9HwWaW2YhNxltfTFqThZ9dPv7bQrgKU0aHEjjDLPi_UQZMstac8GutnmOnkG_N7qCU8vnZupvT-PnHSVRFYixDjWudZ9WeVQgFU9fAgwr4ZBIIgYhNNSSQmleVFjCujadhtQFuxbrRW_X7j_QZM_k_xzPwbvoEQj-QnJywkk_PqGsL2_- -fcuieSLvfTF0sT4Aifn6zjRKU5eqRy_ltd-uHM_UBcv-k-ytR__zjKmeE1GCW_LBHwXmYMcBRE4pdtoZCYLvQiQeMmYr2fJwhlensvun1NO5_BgtBFuwWNNmg0qVVJkLKKsOlGBM1J6zctaJ0TMB9sGKGq_yjOm5po6mu3-Hu8KVQSQY2naHP3AB7lrLZBhwMLOPa3V6RDKSljQBiJHbMwXcgwcQw-v9HF0Ow3sPBSKJUc7lkK6oKY_GJszDDtWjoIwPWKbfbhBIl9ap_KrmTIcSwjng6fngBXs5aqDtVmRcErTn1Y3yVPdUN7G99fpjNsA8feVVm4SWdJqDf_RSx8DeWq3boUz_FJkBjgvvqpVK8BHm_m80]--></g></svg>