<?xml version="1.0" encoding="us-ascii" standalone="no"?><svg xmlns="http://www.w3.org/2000/svg" xmlns:xlink="http://www.w3.org/1999/xlink" contentStyleType="text/css" height="952px" preserveAspectRatio="none" style="width:2474px;height:952px;background:#FFFFFF;" version="1.1" viewBox="0 0 2474 952" width="2474px" zoomAndPan="magnify"><defs/><g><rect fill="#FFFFFF" height="804.625" style="stroke:#181818;stroke-width:1.0;" width="10" x="217" y="102.6641"/><rect fill="#FFFFFF" height="774.2734" style="stroke:#181818;stroke-width:1.0;" width="10" x="425" y="133.0156"/><rect fill="#FFFFFF" height="657.8672" style="stroke:#181818;stroke-width:1.0;" width="10" x="714" y="249.4219"/><rect fill="#FFFFFF" height="627.5156" style="stroke:#181818;stroke-width:1.0;" width="10" x="991" y="279.7734"/><rect fill="#FFFFFF" height="597.1641" style="stroke:#181818;stroke-width:1.0;" width="10" x="1148" y="310.125"/><rect fill="none" height="705.9219" style="stroke:#000000;stroke-width:1.5;" width="1012" x="172.5" y="192.3672"/><rect fill="none" height="61.7031" style="stroke:#000000;stroke-width:1.5;" width="184.5" x="669.5" y="325.125"/><rect fill="none" height="61.7031" style="stroke:#000000;stroke-width:1.5;" width="190.5" x="669.5" y="477.8828"/><rect fill="none" height="61.7031" style="stroke:#000000;stroke-width:1.5;" width="184.5" x="669.5" y="753.8828"/><rect fill="none" height="61.7031" style="stroke:#000000;stroke-width:1.5;" width="190.5" x="669.5" y="829.5859"/><line style="stroke:#181818;stroke-width:0.5;stroke-dasharray:5.0,5.0;" x1="221.5" x2="221.5" y1="37.6094" y2="916.2891"/><line style="stroke:#181818;stroke-width:0.5;stroke-dasharray:5.0,5.0;" x1="429.5" x2="429.5" y1="37.6094" y2="916.2891"/><line style="stroke:#181818;stroke-width:0.5;stroke-dasharray:5.0,5.0;" x1="718.5" x2="718.5" y1="37.6094" y2="916.2891"/><line style="stroke:#181818;stroke-width:0.5;stroke-dasharray:5.0,5.0;" x1="995.5" x2="995.5" y1="37.6094" y2="916.2891"/><line style="stroke:#181818;stroke-width:0.5;stroke-dasharray:5.0,5.0;" x1="1152.5" x2="1152.5" y1="37.6094" y2="916.2891"/><line style="stroke:#181818;stroke-width:0.5;stroke-dasharray:5.0,5.0;" x1="1472.5" x2="1472.5" y1="37.6094" y2="916.2891"/><line style="stroke:#181818;stroke-width:0.5;stroke-dasharray:5.0,5.0;" x1="1887" x2="1887" y1="37.6094" y2="916.2891"/><line style="stroke:#181818;stroke-width:0.5;stroke-dasharray:5.0,5.0;" x1="2215.5" x2="2215.5" y1="37.6094" y2="916.2891"/><line style="stroke:#181818;stroke-width:0.5;stroke-dasharray:5.0,5.0;" x1="2306.5" x2="2306.5" y1="37.6094" y2="916.2891"/><rect fill="#E2E2F0" height="31.6094" rx="2.5" ry="2.5" style="stroke:#181818;stroke-width:0.5;" width="79" x="182.5" y="5"/><text fill="#000000" font-family="sans-serif" font-size="14" lengthAdjust="spacing" textLength="65" x="189.5" y="26.5332">Simulation</text><rect fill="#E2E2F0" height="31.6094" rx="2.5" ry="2.5" style="stroke:#181818;stroke-width:0.5;" width="79" x="182.5" y="915.2891"/><text fill="#000000" font-family="sans-serif" font-size="14" lengthAdjust="spacing" textLength="65" x="189.5" y="936.8223">Simulation</text><rect fill="#E2E2F0" height="31.6094" rx="2.5" ry="2.5" style="stroke:#181818;stroke-width:0.5;" width="45" x="407.5" y="5"/><text fill="#000000" font-family="sans-serif" font-size="14" lengthAdjust="spacing" textLength="31" x="414.5" y="26.5332">DRG</text><rect fill="#E2E2F0" height="31.6094" rx="2.5" ry="2.5" style="stroke:#181818;stroke-width:0.5;" width="45" x="407.5" y="915.2891"/><text fill="#000000" font-family="sans-serif" font-size="14" lengthAdjust="spacing" textLength="31" x="414.5" y="936.8223">DRG</text><rect fill="#E2E2F0" height="31.6094" rx="2.5" ry="2.5" style="stroke:#181818;stroke-width:0.5;" width="79" x="679.5" y="5"/><text fill="#000000" font-family="sans-serif" font-size="14" lengthAdjust="spacing" textLength="65" x="686.5" y="26.5332">Generator</text><rect fill="#E2E2F0" height="31.6094" rx="2.5" ry="2.5" style="stroke:#181818;stroke-width:0.5;" width="79" x="679.5" y="915.2891"/><text fill="#000000" font-family="sans-serif" font-size="14" lengthAdjust="spacing" textLength="65" x="686.5" y="936.8223">Generator</text><rect fill="#E2E2F0" height="31.6094" rx="2.5" ry="2.5" style="stroke:#181818;stroke-width:0.5;" width="37" x="977.5" y="5"/><text fill="#000000" font-family="sans-serif" font-size="14" lengthAdjust="spacing" textLength="23" x="984.5" y="26.5332">ICD</text><rect fill="#E2E2F0" height="31.6094" rx="2.5" ry="2.5" style="stroke:#181818;stroke-width:0.5;" width="37" x="977.5" y="915.2891"/><text fill="#000000" font-family="sans-serif" font-size="14" lengthAdjust="spacing" textLength="23" x="984.5" y="936.8223">ICD</text><rect fill="#E2E2F0" height="31.6094" rx="2.5" ry="2.5" style="stroke:#181818;stroke-width:0.5;" width="43" x="1131.5" y="5"/><text fill="#000000" font-family="sans-serif" font-size="14" lengthAdjust="spacing" textLength="29" x="1138.5" y="26.5332">OPS</text><rect fill="#E2E2F0" height="31.6094" rx="2.5" ry="2.5" style="stroke:#181818;stroke-width:0.5;" width="43" x="1131.5" y="915.2891"/><text fill="#000000" font-family="sans-serif" font-size="14" lengthAdjust="spacing" textLength="29" x="1138.5" y="936.8223">OPS</text><rect fill="#E2E2F0" height="31.6094" rx="2.5" ry="2.5" style="stroke:#181818;stroke-width:0.5;" width="91" x="1427.5" y="5"/><text fill="#000000" font-family="sans-serif" font-size="14" lengthAdjust="spacing" textLength="77" x="1434.5" y="26.5332">Adjustments</text><rect fill="#E2E2F0" height="31.6094" rx="2.5" ry="2.5" style="stroke:#181818;stroke-width:0.5;" width="91" x="1427.5" y="915.2891"/><text fill="#000000" font-family="sans-serif" font-size="14" lengthAdjust="spacing" textLength="77" x="1434.5" y="936.8223">Adjustments</text><rect fill="#E2E2F0" height="31.6094" rx="2.5" ry="2.5" style="stroke:#181818;stroke-width:0.5;" width="88" x="1843" y="5"/><text fill="#000000" font-family="sans-serif" font-size="14" lengthAdjust="spacing" textLength="74" x="1850" y="26.5332">inject_fraud</text><rect fill="#E2E2F0" height="31.6094" rx="2.5" ry="2.5" style="stroke:#181818;stroke-width:0.5;" width="88" x="1843" y="915.2891"/><text fill="#000000" font-family="sans-serif" font-size="14" lengthAdjust="spacing" textLength="74" x="1850" y="936.8223">inject_fraud</text><rect fill="#E2E2F0" height="31.6094" rx="2.5" ry="2.5" style="stroke:#181818;stroke-width:0.5;" width="95" x="2168.5" y="5"/><text fill="#000000" font-family="sans-serif" font-size="14" lengthAdjust="spacing" textLength="81" x="2175.5" y="26.5332">create_fraud</text><rect fill="#E2E2F0" height="31.6094" rx="2.5" ry="2.5" style="stroke:#181818;stroke-width:0.5;" width="95" x="2168.5" y="915.2891"/><text fill="#000000" font-family="sans-serif" font-size="14" lengthAdjust="spacing" textLength="81" x="2175.5" y="936.8223">create_fraud</text><rect fill="#E2E2F0" height="31.6094" rx="2.5" ry="2.5" style="stroke:#181818;stroke-width:0.5;" width="67" x="2273.5" y="5"/><text fill="#000000" font-family="sans-serif" font-size="14" lengthAdjust="spacing" textLength="53" x="2280.5" y="26.5332">Grouper</text><rect fill="#E2E2F0" height="31.6094" rx="2.5" ry="2.5" style="stroke:#181818;stroke-width:0.5;" width="67" x="2273.5" y="915.2891"/><text fill="#000000" font-family="sans-serif" font-size="14" lengthAdjust="spacing" textLength="53" x="2280.5" y="936.8223">Grouper</text><rect fill="#FFFFFF" height="804.625" style="stroke:#181818;stroke-width:1.0;" width="10" x="217" y="102.6641"/><rect fill="#FFFFFF" height="774.2734" style="stroke:#181818;stroke-width:1.0;" width="10" x="425" y="133.0156"/><rect fill="#FFFFFF" height="657.8672" style="stroke:#181818;stroke-width:1.0;" width="10" x="714" y="249.4219"/><rect fill="#FFFFFF" height="627.5156" style="stroke:#181818;stroke-width:1.0;" width="10" x="991" y="279.7734"/><rect fill="#FFFFFF" height="597.1641" style="stroke:#181818;stroke-width:1.0;" width="10" x="1148" y="310.125"/><polygon fill="#181818" points="205,98.6641,215,102.6641,205,106.6641,209,102.6641" style="stroke:#181818;stroke-width:1.0;"/><line style="stroke:#181818;stroke-width:1.0;" x1="0" x2="211" y1="102.6641" y2="102.6641"/><text fill="#000000" font-family="sans-serif" font-size="13" lengthAdjust="spacing" textLength="142" x="7" y="65.1045">init(n_cases, n_patients,</text><text fill="#000000" font-family="sans-serif" font-size="13" lengthAdjust="spacing" textLength="194" x="7" y="81.4561">n_hospitals, state, random_state,</text><text fill="#000000" font-family="sans-serif" font-size="13" lengthAdjust="spacing" textLength="95" x="7" y="97.8076">multiprocessing)</text><polygon fill="#181818" points="413,129.0156,423,133.0156,413,137.0156,417,133.0156" style="stroke:#181818;stroke-width:1.0;"/><line style="stroke:#181818;stroke-width:1.0;" x1="227" x2="419" y1="133.0156" y2="133.0156"/><text fill="#000000" font-family="sans-serif" font-size="13" lengthAdjust="spacing" textLength="25" x="234" y="128.1592">init()</text><rect fill="#EEEEEE" height="3" style="stroke:#EEEEEE;stroke-width:1.0;" width="2467" x="0" y="162.1914"/><line style="stroke:#000000;stroke-width:1.0;" x1="0" x2="2467" y1="162.1914" y2="162.1914"/><line style="stroke:#000000;stroke-width:1.0;" x1="0" x2="2467" y1="165.1914" y2="165.1914"/><rect fill="#EEEEEE" height="24.3516" style="stroke:#000000;stroke-width:2.0;" width="265" x="1101" y="151.0156"/><text fill="#000000" font-family="sans-serif" font-size="13" font-weight="bold" lengthAdjust="spacing" textLength="247" x="1107" y="168.5107">GENERATE PATIENTS AND HOSPITALS</text><path d="M172.5,192.3672 L233.5,192.3672 L233.5,200.7188 L223.5,210.7188 L172.5,210.7188 L172.5,192.3672 " fill="#EEEEEE" style="stroke:#000000;stroke-width:1.5;"/><rect fill="none" height="705.9219" style="stroke:#000000;stroke-width:1.5;" width="1012" x="172.5" y="192.3672"/><text fill="#000000" font-family="sans-serif" font-size="13" font-weight="bold" lengthAdjust="spacing" textLength="16" x="187.5" y="206.8623">alt</text><text fill="#000000" font-family="sans-serif" font-size="11" font-weight="bold" lengthAdjust="spacing" textLength="120" x="248.5" y="205.7861">[multiprocessing != 0]</text><polygon fill="#181818" points="702,245.4219,712,249.4219,702,253.4219,706,249.4219" style="stroke:#181818;stroke-width:1.0;"/><line style="stroke:#181818;stroke-width:1.0;" x1="227" x2="708" y1="249.4219" y2="249.4219"/><text fill="#000000" font-family="sans-serif" font-size="13" lengthAdjust="spacing" textLength="171" x="234" y="228.2139">generate_patients(n_patients,</text><text fill="#000000" font-family="sans-serif" font-size="13" lengthAdjust="spacing" textLength="33" x="234" y="244.5654">state)</text><polygon fill="#181818" points="979,275.7734,989,279.7734,979,283.7734,983,279.7734" style="stroke:#181818;stroke-width:1.0;"/><line style="stroke:#181818;stroke-width:1.0;" x1="724" x2="985" y1="279.7734" y2="279.7734"/><text fill="#000000" font-family="sans-serif" font-size="13" lengthAdjust="spacing" textLength="25" x="731" y="274.917">init()</text><polygon fill="#181818" points="1136,306.125,1146,310.125,1136,314.125,1140,310.125" style="stroke:#181818;stroke-width:1.0;"/><line style="stroke:#181818;stroke-width:1.0;" x1="724" x2="1142" y1="310.125" y2="310.125"/><text fill="#000000" font-family="sans-serif" font-size="13" lengthAdjust="spacing" textLength="25" x="731" y="305.2686">init()</text><path d="M669.5,325.125 L742.5,325.125 L742.5,333.4766 L732.5,343.4766 L669.5,343.4766 L669.5,325.125 " fill="#EEEEEE" style="stroke:#000000;stroke-width:1.5;"/><rect fill="none" height="61.7031" style="stroke:#000000;stroke-width:1.5;" width="184.5" x="669.5" y="325.125"/><text fill="#000000" font-family="sans-serif" font-size="13" font-weight="bold" lengthAdjust="spacing" textLength="28" x="684.5" y="339.6201">loop</text><text fill="#000000" font-family="sans-serif" font-size="11" font-weight="bold" lengthAdjust="spacing" textLength="66" x="757.5" y="338.5439">[n_patients]</text><line style="stroke:#181818;stroke-width:1.0;" x1="724" x2="766" y1="365.8281" y2="365.8281"/><line style="stroke:#181818;stroke-width:1.0;" x1="766" x2="766" y1="365.8281" y2="378.8281"/><line style="stroke:#181818;stroke-width:1.0;" x1="725" x2="766" y1="378.8281" y2="378.8281"/><polygon fill="#181818" points="735,374.8281,725,378.8281,735,382.8281,731,378.8281" style="stroke:#181818;stroke-width:1.0;"/><text fill="#000000" font-family="sans-serif" font-size="13" lengthAdjust="spacing" textLength="111" x="731" y="360.9717">generate_patients()</text><polygon fill="#181818" points="238,412.1797,228,416.1797,238,420.1797,234,416.1797" style="stroke:#181818;stroke-width:1.0;"/><line style="stroke:#181818;stroke-width:1.0;stroke-dasharray:2.0,2.0;" x1="232" x2="713" y1="416.1797" y2="416.1797"/><text fill="#000000" font-family="sans-serif" font-size="13" lengthAdjust="spacing" textLength="46" x="244" y="411.3232">patients</text><polygon fill="#181818" points="702,458.8828,712,462.8828,702,466.8828,706,462.8828" style="stroke:#181818;stroke-width:1.0;"/><line style="stroke:#181818;stroke-width:1.0;" x1="227" x2="708" y1="462.8828" y2="462.8828"/><text fill="#000000" font-family="sans-serif" font-size="13" lengthAdjust="spacing" textLength="113" x="234" y="441.6748">generate_hospitals(</text><text fill="#000000" font-family="sans-serif" font-size="13" lengthAdjust="spacing" textLength="107" x="234" y="458.0264">n_hospitals, state)</text><path d="M669.5,477.8828 L742.5,477.8828 L742.5,486.2344 L732.5,496.2344 L669.5,496.2344 L669.5,477.8828 " fill="#EEEEEE" style="stroke:#000000;stroke-width:1.5;"/><rect fill="none" height="61.7031" style="stroke:#000000;stroke-width:1.5;" width="190.5" x="669.5" y="477.8828"/><text fill="#000000" font-family="sans-serif" font-size="13" font-weight="bold" lengthAdjust="spacing" textLength="28" x="684.5" y="492.3779">loop</text><text fill="#000000" font-family="sans-serif" font-size="11" font-weight="bold" lengthAdjust="spacing" textLength="72" x="757.5" y="491.3018">[n_hospitals]</text><line style="stroke:#181818;stroke-width:1.0;" x1="724" x2="766" y1="518.5859" y2="518.5859"/><line style="stroke:#181818;stroke-width:1.0;" x1="766" x2="766" y1="518.5859" y2="531.5859"/><line style="stroke:#181818;stroke-width:1.0;" x1="725" x2="766" y1="531.5859" y2="531.5859"/><polygon fill="#181818" points="735,527.5859,725,531.5859,735,535.5859,731,531.5859" style="stroke:#181818;stroke-width:1.0;"/><text fill="#000000" font-family="sans-serif" font-size="13" lengthAdjust="spacing" textLength="117" x="731" y="513.7295">generate_hospitals()</text><polygon fill="#181818" points="238,564.9375,228,568.9375,238,572.9375,234,568.9375" style="stroke:#181818;stroke-width:1.0;"/><line style="stroke:#181818;stroke-width:1.0;stroke-dasharray:2.0,2.0;" x1="232" x2="713" y1="568.9375" y2="568.9375"/><text fill="#000000" font-family="sans-serif" font-size="13" lengthAdjust="spacing" textLength="52" x="244" y="564.0811">hospitals</text><polygon fill="#181818" points="702,611.6406,712,615.6406,702,619.6406,706,615.6406" style="stroke:#181818;stroke-width:1.0;"/><line style="stroke:#181818;stroke-width:1.0;" x1="227" x2="708" y1="615.6406" y2="615.6406"/><text fill="#000000" font-family="sans-serif" font-size="13" lengthAdjust="spacing" textLength="136" x="234" y="594.4326">generate_data(patients,</text><text fill="#000000" font-family="sans-serif" font-size="13" lengthAdjust="spacing" textLength="140" x="234" y="610.7842">hospitals, n_treatments)</text><line style="stroke:#000000;stroke-width:1.0;stroke-dasharray:2.0,2.0;" x1="172.5" x2="1184.5" y1="624.6406" y2="624.6406"/><text fill="#000000" font-family="sans-serif" font-size="11" font-weight="bold" lengthAdjust="spacing" textLength="32" x="177.5" y="636.0596">[else]</text><polygon fill="#181818" points="702,674.1797,712,678.1797,702,682.1797,706,678.1797" style="stroke:#181818;stroke-width:1.0;"/><line style="stroke:#181818;stroke-width:1.0;" x1="227" x2="708" y1="678.1797" y2="678.1797"/><text fill="#000000" font-family="sans-serif" font-size="13" lengthAdjust="spacing" textLength="139" x="234" y="656.9717">generate_data(n_cases,</text><text fill="#000000" font-family="sans-serif" font-size="13" lengthAdjust="spacing" textLength="138" x="234" y="673.3232">n_patients, n_hospitals)</text><polygon fill="#181818" points="979,704.5313,989,708.5313,979,712.5313,983,708.5313" style="stroke:#181818;stroke-width:1.0;"/><line style="stroke:#181818;stroke-width:1.0;" x1="724" x2="985" y1="708.5313" y2="708.5313"/><text fill="#000000" font-family="sans-serif" font-size="13" lengthAdjust="spacing" textLength="25" x="731" y="703.6748">init()</text><polygon fill="#181818" points="1136,734.8828,1146,738.8828,1136,742.8828,1140,738.8828" style="stroke:#181818;stroke-width:1.0;"/><line style="stroke:#181818;stroke-width:1.0;" x1="724" x2="1142" y1="738.8828" y2="738.8828"/><text fill="#000000" font-family="sans-serif" font-size="13" lengthAdjust="spacing" textLength="25" x="731" y="734.0264">init()</text><path d="M669.5,753.8828 L742.5,753.8828 L742.5,762.2344 L732.5,772.2344 L669.5,772.2344 L669.5,753.8828 " fill="#EEEEEE" style="stroke:#000000;stroke-width:1.5;"/><rect fill="none" height="61.7031" style="stroke:#000000;stroke-width:1.5;" width="184.5" x="669.5" y="753.8828"/><text fill="#000000" font-family="sans-serif" font-size="13" font-weight="bold" lengthAdjust="spacing" textLength="28" x="684.5" y="768.3779">loop</text><text fill="#000000" font-family="sans-serif" font-size="11" font-weight="bold" lengthAdjust="spacing" textLength="66" x="757.5" y="767.3018">[n_patients]</text><line style="stroke:#181818;stroke-width:1.0;" x1="724" x2="766" y1="794.5859" y2="794.5859"/><line style="stroke:#181818;stroke-width:1.0;" x1="766" x2="766" y1="794.5859" y2="807.5859"/><line style="stroke:#181818;stroke-width:1.0;" x1="725" x2="766" y1="807.5859" y2="807.5859"/><polygon fill="#181818" points="735,803.5859,725,807.5859,735,811.5859,731,807.5859" style="stroke:#181818;stroke-width:1.0;"/><text fill="#000000" font-family="sans-serif" font-size="13" lengthAdjust="spacing" textLength="111" x="731" y="789.7295">generate_patients()</text><path d="M669.5,829.5859 L742.5,829.5859 L742.5,837.9375 L732.5,847.9375 L669.5,847.9375 L669.5,829.5859 " fill="#EEEEEE" style="stroke:#000000;stroke-width:1.5;"/><rect fill="none" height="61.7031" style="stroke:#000000;stroke-width:1.5;" width="190.5" x="669.5" y="829.5859"/><text fill="#000000" font-family="sans-serif" font-size="13" font-weight="bold" lengthAdjust="spacing" textLength="28" x="684.5" y="844.0811">loop</text><text fill="#000000" font-family="sans-serif" font-size="11" font-weight="bold" lengthAdjust="spacing" textLength="72" x="757.5" y="843.0049">[n_hospitals]</text><line style="stroke:#181818;stroke-width:1.0;" x1="724" x2="766" y1="870.2891" y2="870.2891"/><line style="stroke:#181818;stroke-width:1.0;" x1="766" x2="766" y1="870.2891" y2="883.2891"/><line style="stroke:#181818;stroke-width:1.0;" x1="725" x2="766" y1="883.2891" y2="883.2891"/><polygon fill="#181818" points="735,879.2891,725,883.2891,735,887.2891,731,883.2891" style="stroke:#181818;stroke-width:1.0;"/><text fill="#000000" font-family="sans-serif" font-size="13" lengthAdjust="spacing" textLength="117" x="731" y="865.4326">generate_hospitals()</text><line style="stroke:#000000;stroke-width:1.0;stroke-dasharray:2.0,2.0;" x1="0" x2="2467" y1="905.2891" y2="905.2891"/><!--SRC=[xHfhRzkwzRj-1TVxmGwG36rtXm71Ci1eSdCpzBP1alR3RW62bcYRhKHg9EN4_VKxf2YArCEHtGxRi0Q8RP67vyNpfFZxsT_GFIkgd6Wc-3bYdEavnobHL9qYZaiOfrp3xq-SuurG9TCaXqUbYQQdI1AUYGAxfqySC6bMIf5IfHXVdoGarMmBam6LfFs9WFpbtRMZ6q33O79nWQwltbtTBHwkqEtYuURgtSCzMhoxHB- -lx-zULYylKSN5md9DUfGHN-uG2yJ17ynfMlAgIHQo7EqhdzIB-0ybjKAT69nU9xySZlidmpccpUNNePe3KpqeT_VtWz3muGTo8Ke0-NRiHwMlTBKY2dFkjGx-nsHU5vRtW3cG-Pm4ZBl9wTptsAVodvCv7d-CwB9FDpdG0IEjQH45sRg9A6veiXy78BPEuxHJaicKCR9yxQprrI-jsLytyqo__0t0y-zkrfSeZVt7z4lDs-lhACcCv3KO6DfzkhbkdZzylKhjLCQVn4PLNzCrTPWrxYKhC00WtEcZDYpo9dQfr4qoMnqoXgGLRYXGkJEF213Q2ftYgOHSnD8mHB1iqE9fHkQVi6WxenAB6bEjuIdkuaa6qBeaUaDWkbKijAOhqfc6PsWmcG6bkSC47P4B1rNu24PRiR8akKCp4g5aTl4i6Z7efW- -oa4R35RUksZbSGQVyHlVqd48duzmAGR3GodDzCPiCJ7QJUhG1oNlh3W-BQsfu21U28oPAk9yAc3mIBlZ5ckJAwCk1fP6p1strZVPDPwgpmxqUXUXlhh0vP0bNrcO7284GVhMN3FUuc7QppPBPLRHX-xXDrmdtG0xuW78tl8X-iuVIp9cYPHAVC0eV7XDoXcqENLm-Achc9S76upKB8l21T4fniVWOt8BhpFn_AB2LskLdEHpqInEJ1tYkeOSuhA_6kzl8bE3MJN_wDnHxBLNczLFTyR7e_5TTIA8aoD8z3r29N_MSuTutwp1WA_1ukDmGob4BZtxBpFG7NQsh_hBN0_gFRcGhPgWXsT3cAhOSp7uFI-r3b5m-CqQpUhYYMLIAnYz6tjCt4lkg0hni4P5K2b9jLsAgs1dRFo01imTVR6fDwH-YzmNb4gkuTu-phUna_SsTLfAvNRLvScpTAkF_YndYz4qFLSDEIJfFcOl3C3MBlSHVOMZ8vp6DfKP_0RkGmmEpPjishsmvG3TYCW-CB-pSUqtwQWUft94NPTwPFlNZ2FBWHiX6eCo5ccjboctfBQ-WWygLegBK54pEaQaiMMDdjkeOODiqMtDnqnXPScSMsWznxAG95K9P6aK0FwEZLwDuRiSPsYp1uh1Ctba9w27Du7STsASv-CxDGy5u_6OwgoD5y59JnMRI2PWQzbRr9vJxX5zhbITSu-HyG-OD2PKSKq6HiFjkxiex4tnW2_dGYUU-Jhdc5BSfOnlSE_tdmSjSldqNpTQQ754qinb1jKCjFg6IID74O5fgEOYcybSi15KfOTnHJ9CjTqvD1jCxAa6j2beX1oQSGrRSWnUBd01TLaQRbxt53kaDDX6urswoihfp5k8egfqggYd9kFm_GNO91qonIieXdUK2Br_50yJQYmJUoIIRqvUZTYL11EgS8RHeypEI4bf4qJxa2OJeKow4Qns5FTPIYVhYJyACXd8MEwB_vyzfUVNvpqGgbPtkJXJWoDP5fLUUv3g0KBSipXRhsIbOdWt2luUQrAMkOafLZa6Ivs8YKomuolY4pruKXMUSMW0gnacLTAJLzVS_-Fbw-2N7OmyOf_uUAHO_f42YYpR7rrC195EJF1WxgqS1GI4ASG1qZl33lV5UL658UeZV0rRMhFbP0G_UYQs_fpt3CEa8DK2gB8SeU5tW05ndr9uj4EDmfJRVZmnhEfaIE6mnxhMpsfoS_W0OoBWc0jd8Q_IQSExHUMSReBpFnRSBhzXmHN4dwGfRgLAwehXI6nIVZUipgkU6fHQDPJU_rQ9Eh7t33iRgVm7DaTUpmSp9dJmVY4BObFKv9a_EZV7vLWRKg2S6NxeYOyWBbvz_UhDm_ebxl5Xqjpv1AVwJF-sRZfIf8gEu-UvZUNoXJ3mHb-Uu0QmBMZgM6Dkb7RSkQKprk68GIBUYF2zOQBSANXmZmh6bJN_bUzFeIt6eh50F7H5YWo9-T6L59D8Emi29mZ9LGHcEkOtmIwWVrCe0Whm50vjbKUbKgOLXhSbCuxBZE1ScIa4sXdrAdvaRBrHi_hhydaQl3fMWMci90cvB1iF3GyGxWKIZ4mUt2wOkaIufITTP4ggrpwCooO9kSKiKnDekmFBS0hj80kolHerhK33umyeCjHZAy-BmcqakQ45S1GADcOotLHNqjHWVcS8_f4qwhX0A_DSDsSja6Y1atSTxGQCYsqgT5gOEna45PMV0YY9sSDaw5QlBDetyBOvTZQhxJkDZOwivjufAgELT9HwWaW2YhNxltfTFqThZ9dPv7bQrgKU0aHEjjDLPi_UQZMstac8GutnmOnkG_N7qCU8vnZupvT-PnHSVRFYixDjWudZ9WeVQgFU9fAgwr4ZBIIgYhNNSSQmleVFjCujadhtQFuxbrRW_X7j_QZM_k_xzPwbvoEQj-QnJywkk_PqGsL2_- -fcuieSLvfTF0sT4Aifn6zjRKU5eqRy_ltd-uHM_UBcv-k-ytR__zjKmeE1GCW_LBHwXmYMcBRE4pdtoZCYLvQiQeMmYr2fJwhlensvun1NO5_BgtBFuwWNNmg0qVVJkLKKsOlGBM1J6zctaJ0TMB9sGKGq_yjOm5po6mu3-Hu8KVQSQY2naHP3AB7lrLZBhwMLOPa3V6RDKSljQBiJHbMwXcgwcQw-v9HF0Ow3sPBSKJUc7lkK6oKY_GJszDDtWjoIwPWKbfbhBIl9ap_KrmTIcSwjng6fngBXs5aqDtVmRcErTn1Y3yVPdUN7G99fpjNsA8feVVm4SWdJqDf_RSx8DeWq3boUz_FJkBjgvvqpVK8BHm_m80]--></g></svg>