<?xml version="1.0" encoding="us-ascii" standalone="no"?><svg xmlns="http://www.w3.org/2000/svg" xmlns:xlink="http://www.w3.org/1999/xlink" contentStyleType="text/css" height="1097px" preserveAspectRatio="none" style="width:2474px;height:1097px;background:#FFFFFF;" version="1.1" viewBox="0 0 2474 1097" width="2474px" zoomAndPan="magnify"><defs/><g><rect fill="#FFFFFF" height="1004.1953" style="stroke:#181818;stroke-width:1.0;" width="10" x="217" y="47.6094"/><rect fill="#FFFFFF" height="935.4922" style="stroke:#181818;stroke-width:1.0;" width="10" x="1882" y="116.3125"/><rect fill="#FFFFFF" height="500.5703" style="stroke:#181818;stroke-width:1.0;" width="10" x="1887" y="551.2344"/><rect fill="#FFFFFF" height="299.8125" style="stroke:#181818;stroke-width:1.0;" width="10" x="1892" y="741.9922"/><rect fill="#FFFFFF" height="65.7031" style="stroke:#181818;stroke-width:1.0;" width="10" x="1897" y="976.1016"/><rect fill="#FFFFFF" height="404.5703" style="stroke:#181818;stroke-width:1.0;" width="10" x="2211" y="116.3125"/><rect fill="#FFFFFF" height="117.0547" style="stroke:#181818;stroke-width:1.0;" width="10" x="2302" y="586.5859"/><rect fill="#FFFFFF" height="160.4063" style="stroke:#181818;stroke-width:1.0;" width="10" x="2302" y="777.3438"/><rect fill="none" height="382.5703" style="stroke:#000000;stroke-width:1.5;" width="440.5" x="1833" y="131.3125"/><line style="stroke:#181818;stroke-width:0.5;stroke-dasharray:5.0,5.0;" x1="221.5" x2="221.5" y1="37.6094" y2="1060.8047"/><line style="stroke:#181818;stroke-width:0.5;stroke-dasharray:5.0,5.0;" x1="429.5" x2="429.5" y1="37.6094" y2="1060.8047"/><line style="stroke:#181818;stroke-width:0.5;stroke-dasharray:5.0,5.0;" x1="718.5" x2="718.5" y1="37.6094" y2="1060.8047"/><line style="stroke:#181818;stroke-width:0.5;stroke-dasharray:5.0,5.0;" x1="995.5" x2="995.5" y1="37.6094" y2="1060.8047"/><line style="stroke:#181818;stroke-width:0.5;stroke-dasharray:5.0,5.0;" x1="1152.5" x2="1152.5" y1="37.6094" y2="1060.8047"/><line style="stroke:#181818;stroke-width:0.5;stroke-dasharray:5.0,5.0;" x1="1472.5" x2="1472.5" y1="37.6094" y2="1060.8047"/><line style="stroke:#181818;stroke-width:0.5;stroke-dasharray:5.0,5.0;" x1="1887" x2="1887" y1="37.6094" y2="1060.8047"/><line style="stroke:#181818;stroke-width:0.5;stroke-dasharray:5.0,5.0;" x1="2215.5" x2="2215.5" y1="37.6094" y2="1060.8047"/><line style="stroke:#181818;stroke-width:0.5;stroke-dasharray:5.0,5.0;" x1="2306.5" x2="2306.5" y1="37.6094" y2="1060.8047"/><rect fill="#E2E2F0" height="31.6094" rx="2.5" ry="2.5" style="stroke:#181818;stroke-width:0.5;" width="79" x="182.5" y="5"/><text fill="#000000" font-family="sans-serif" font-size="14" lengthAdjust="spacing" textLength="65" x="189.5" y="26.5332">Simulation</text><rect fill="#E2E2F0" height="31.6094" rx="2.5" ry="2.5" style="stroke:#181818;stroke-width:0.5;" width="79" x="182.5" y="1059.8047"/><text fill="#000000" font-family="sans-serif" font-size="14" lengthAdjust="spacing" textLength="65" x="189.5" y="1081.3379">Simulation</text><rect fill="#E2E2F0" height="31.6094" rx="2.5" ry="2.5" style="stroke:#181818;stroke-width:0.5;" width="45" x="407.5" y="5"/><text fill="#000000" font-family="sans-serif" font-size="14" lengthAdjust="spacing" textLength="31" x="414.5" y="26.5332">DRG</text><rect fill="#E2E2F0" height="31.6094" rx="2.5" ry="2.5" style="stroke:#181818;stroke-width:0.5;" width="45" x="407.5" y="1059.8047"/><text fill="#000000" font-family="sans-serif" font-size="14" lengthAdjust="spacing" textLength="31" x="414.5" y="1081.3379">DRG</text><rect fill="#E2E2F0" height="31.6094" rx="2.5" ry="2.5" style="stroke:#181818;stroke-width:0.5;" width="79" x="679.5" y="5"/><text fill="#000000" font-family="sans-serif" font-size="14" lengthAdjust="spacing" textLength="65" x="686.5" y="26.5332">Generator</text><rect fill="#E2E2F0" height="31.6094" rx="2.5" ry="2.5" style="stroke:#181818;stroke-width:0.5;" width="79" x="679.5" y="1059.8047"/><text fill="#000000" font-family="sans-serif" font-size="14" lengthAdjust="spacing" textLength="65" x="686.5" y="1081.3379">Generator</text><rect fill="#E2E2F0" height="31.6094" rx="2.5" ry="2.5" style="stroke:#181818;stroke-width:0.5;" width="37" x="977.5" y="5"/><text fill="#000000" font-family="sans-serif" font-size="14" lengthAdjust="spacing" textLength="23" x="984.5" y="26.5332">ICD</text><rect fill="#E2E2F0" height="31.6094" rx="2.5" ry="2.5" style="stroke:#181818;stroke-width:0.5;" width="37" x="977.5" y="1059.8047"/><text fill="#000000" font-family="sans-serif" font-size="14" lengthAdjust="spacing" textLength="23" x="984.5" y="1081.3379">ICD</text><rect fill="#E2E2F0" height="31.6094" rx="2.5" ry="2.5" style="stroke:#181818;stroke-width:0.5;" width="43" x="1131.5" y="5"/><text fill="#000000" font-family="sans-serif" font-size="14" lengthAdjust="spacing" textLength="29" x="1138.5" y="26.5332">OPS</text><rect fill="#E2E2F0" height="31.6094" rx="2.5" ry="2.5" style="stroke:#181818;stroke-width:0.5;" width="43" x="1131.5" y="1059.8047"/><text fill="#000000" font-family="sans-serif" font-size="14" lengthAdjust="spacing" textLength="29" x="1138.5" y="1081.3379">OPS</text><rect fill="#E2E2F0" height="31.6094" rx="2.5" ry="2.5" style="stroke:#181818;stroke-width:0.5;" width="91" x="1427.5" y="5"/><text fill="#000000" font-family="sans-serif" font-size="14" lengthAdjust="spacing" textLength="77" x="1434.5" y="26.5332">Adjustments</text><rect fill="#E2E2F0" height="31.6094" rx="2.5" ry="2.5" style="stroke:#181818;stroke-width:0.5;" width="91" x="1427.5" y="1059.8047"/><text fill="#000000" font-family="sans-serif" font-size="14" lengthAdjust="spacing" textLength="77" x="1434.5" y="1081.3379">Adjustments</text><rect fill="#E2E2F0" height="31.6094" rx="2.5" ry="2.5" style="stroke:#181818;stroke-width:0.5;" width="88" x="1843" y="5"/><text fill="#000000" font-family="sans-serif" font-size="14" lengthAdjust="spacing" textLength="74" x="1850" y="26.5332">inject_fraud</text><rect fill="#E2E2F0" height="31.6094" rx="2.5" ry="2.5" style="stroke:#181818;stroke-width:0.5;" width="88" x="1843" y="1059.8047"/><text fill="#000000" font-family="sans-serif" font-size="14" lengthAdjust="spacing" textLength="74" x="1850" y="1081.3379">inject_fraud</text><rect fill="#E2E2F0" height="31.6094" rx="2.5" ry="2.5" style="stroke:#181818;stroke-width:0.5;" width="95" x="2168.5" y="5"/><text fill="#000000" font-family="sans-serif" font-size="14" lengthAdjust="spacing" textLength="81" x="2175.5" y="26.5332">create_fraud</text><rect fill="#E2E2F0" height="31.6094" rx="2.5" ry="2.5" style="stroke:#181818;stroke-width:0.5;" width="95" x="2168.5" y="1059.8047"/><text fill="#000000" font-family="sans-serif" font-size="14" lengthAdjust="spacing" textLength="81" x="2175.5" y="1081.3379">create_fraud</text><rect fill="#E2E2F0" height="31.6094" rx="2.5" ry="2.5" style="stroke:#181818;stroke-width:0.5;" width="67" x="2273.5" y="5"/><text fill="#000000" font-family="sans-serif" font-size="14" lengthAdjust="spacing" textLength="53" x="2280.5" y="26.5332">Grouper</text><rect fill="#E2E2F0" height="31.6094" rx="2.5" ry="2.5" style="stroke:#181818;stroke-width:0.5;" width="67" x="2273.5" y="1059.8047"/><text fill="#000000" font-family="sans-serif" font-size="14" lengthAdjust="spacing" textLength="53" x="2280.5" y="1081.3379">Grouper</text><rect fill="#FFFFFF" height="1004.1953" style="stroke:#181818;stroke-width:1.0;" width="10" x="217" y="47.6094"/><rect fill="#FFFFFF" height="935.4922" style="stroke:#181818;stroke-width:1.0;" width="10" x="1882" y="116.3125"/><rect fill="#FFFFFF" height="500.5703" style="stroke:#181818;stroke-width:1.0;" width="10" x="1887" y="551.2344"/><rect fill="#FFFFFF" height="299.8125" style="stroke:#181818;stroke-width:1.0;" width="10" x="1892" y="741.9922"/><rect fill="#FFFFFF" height="65.7031" style="stroke:#181818;stroke-width:1.0;" width="10" x="1897" y="976.1016"/><rect fill="#FFFFFF" height="404.5703" style="stroke:#181818;stroke-width:1.0;" width="10" x="2211" y="116.3125"/><rect fill="#FFFFFF" height="117.0547" style="stroke:#181818;stroke-width:1.0;" width="10" x="2302" y="586.5859"/><rect fill="#FFFFFF" height="160.4063" style="stroke:#181818;stroke-width:1.0;" width="10" x="2302" y="777.3438"/><line style="stroke:#000000;stroke-width:1.0;stroke-dasharray:2.0,2.0;" x1="0" x2="2467" y1="48.6094" y2="48.6094"/><rect fill="#EEEEEE" height="3" style="stroke:#EEEEEE;stroke-width:1.0;" width="2467" x="0" y="70.7852"/><line style="stroke:#000000;stroke-width:1.0;" x1="0" x2="2467" y1="70.7852" y2="70.7852"/><line style="stroke:#000000;stroke-width:1.0;" x1="0" x2="2467" y1="73.7852" y2="73.7852"/><rect fill="#EEEEEE" height="24.3516" style="stroke:#000000;stroke-width:2.0;" width="111" x="1178" y="59.6094"/><text fill="#000000" font-family="sans-serif" font-size="13" font-weight="bold" lengthAdjust="spacing" textLength="93" x="1184" y="77.1045">INJECT FRAUD</text><polygon fill="#181818" points="1870,112.3125,1880,116.3125,1870,120.3125,1874,116.3125" style="stroke:#181818;stroke-width:1.0;"/><line style="stroke:#181818;stroke-width:1.0;" x1="227" x2="1876" y1="116.3125" y2="116.3125"/><text fill="#000000" font-family="sans-serif" font-size="13" lengthAdjust="spacing" textLength="163" x="234" y="111.4561">inject_fraud(IDs of hospitals)</text><path d="M1833,131.3125 L1906,131.3125 L1906,139.6641 L1896,149.6641 L1833,149.6641 L1833,131.3125 " fill="#EEEEEE" style="stroke:#000000;stroke-width:1.5;"/><rect fill="none" height="382.5703" style="stroke:#000000;stroke-width:1.5;" width="440.5" x="1833" y="131.3125"/><text fill="#000000" font-family="sans-serif" font-size="13" font-weight="bold" lengthAdjust="spacing" textLength="28" x="1848" y="145.8076">loop</text><text fill="#000000" font-family="sans-serif" font-size="11" font-weight="bold" lengthAdjust="spacing" textLength="115" x="1921" y="144.7314">[len(treatment_info)]</text><polygon fill="#181818" points="2199,168.0156,2209,172.0156,2199,176.0156,2203,172.0156" style="stroke:#181818;stroke-width:1.0;"/><line style="stroke:#181818;stroke-width:1.0;" x1="1892" x2="2205" y1="172.0156" y2="172.0156"/><text fill="#000000" font-family="sans-serif" font-size="13" lengthAdjust="spacing" textLength="170" x="1899" y="167.1592">increase_breathing(breathing)</text><polygon fill="#181818" points="1903,198.3672,1893,202.3672,1903,206.3672,1899,202.3672" style="stroke:#181818;stroke-width:1.0;"/><line style="stroke:#181818;stroke-width:1.0;stroke-dasharray:2.0,2.0;" x1="1897" x2="2210" y1="202.3672" y2="202.3672"/><text fill="#000000" font-family="sans-serif" font-size="13" lengthAdjust="spacing" textLength="120" x="1909" y="197.5107">new ventilation hours</text><polygon fill="#181818" points="2199,228.7188,2209,232.7188,2199,236.7188,2203,232.7188" style="stroke:#181818;stroke-width:1.0;"/><line style="stroke:#181818;stroke-width:1.0;" x1="1892" x2="2205" y1="232.7188" y2="232.7188"/><text fill="#000000" font-family="sans-serif" font-size="13" lengthAdjust="spacing" textLength="178" x="1899" y="227.8623">change_to_caesarean(primary)</text><polygon fill="#181818" points="1903,259.0703,1893,263.0703,1903,267.0703,1899,263.0703" style="stroke:#181818;stroke-width:1.0;"/><line style="stroke:#181818;stroke-width:1.0;stroke-dasharray:2.0,2.0;" x1="1897" x2="2210" y1="263.0703" y2="263.0703"/><text fill="#000000" font-family="sans-serif" font-size="13" lengthAdjust="spacing" textLength="95" x="1909" y="258.2139">new primary ICD</text><polygon fill="#181818" points="2199,289.4219,2209,293.4219,2199,297.4219,2203,293.4219" style="stroke:#181818;stroke-width:1.0;"/><line style="stroke:#181818;stroke-width:1.0;" x1="1892" x2="2205" y1="293.4219" y2="293.4219"/><text fill="#000000" font-family="sans-serif" font-size="13" lengthAdjust="spacing" textLength="232" x="1899" y="288.5654">newborn_add_personal_care(secondary)</text><polygon fill="#181818" points="1903,319.7734,1893,323.7734,1903,327.7734,1899,323.7734" style="stroke:#181818;stroke-width:1.0;"/><line style="stroke:#181818;stroke-width:1.0;stroke-dasharray:2.0,2.0;" x1="1897" x2="2210" y1="323.7734" y2="323.7734"/><text fill="#000000" font-family="sans-serif" font-size="13" lengthAdjust="spacing" textLength="112" x="1909" y="318.917">new secondary ICD</text><polygon fill="#181818" points="2199,350.125,2209,354.125,2199,358.125,2203,354.125" style="stroke:#181818;stroke-width:1.0;"/><line style="stroke:#181818;stroke-width:1.0;" x1="1892" x2="2205" y1="354.125" y2="354.125"/><text fill="#000000" font-family="sans-serif" font-size="13" lengthAdjust="spacing" textLength="142" x="1899" y="349.2686">decrease_weight(weight)</text><polygon fill="#181818" points="1903,380.4766,1893,384.4766,1903,388.4766,1899,384.4766" style="stroke:#181818;stroke-width:1.0;"/><line style="stroke:#181818;stroke-width:1.0;stroke-dasharray:2.0,2.0;" x1="1897" x2="2210" y1="384.4766" y2="384.4766"/><text fill="#000000" font-family="sans-serif" font-size="13" lengthAdjust="spacing" textLength="64" x="1909" y="379.6201">new weight</text><polygon fill="#181818" points="2199,410.8281,2209,414.8281,2199,418.8281,2203,414.8281" style="stroke:#181818;stroke-width:1.0;"/><line style="stroke:#181818;stroke-width:1.0;" x1="1892" x2="2205" y1="414.8281" y2="414.8281"/><text fill="#000000" font-family="sans-serif" font-size="13" lengthAdjust="spacing" textLength="243" x="1899" y="409.9717">change_ICD_order(id, primary, secondary)</text><polygon fill="#181818" points="1903,441.1797,1893,445.1797,1903,449.1797,1899,445.1797" style="stroke:#181818;stroke-width:1.0;"/><line style="stroke:#181818;stroke-width:1.0;stroke-dasharray:2.0,2.0;" x1="1897" x2="2210" y1="445.1797" y2="445.1797"/><text fill="#000000" font-family="sans-serif" font-size="13" lengthAdjust="spacing" textLength="129" x="1909" y="440.3232">possible combinations</text><polygon fill="#181818" points="2199,471.5313,2209,475.5313,2199,479.5313,2203,475.5313" style="stroke:#181818;stroke-width:1.0;"/><line style="stroke:#181818;stroke-width:1.0;" x1="1892" x2="2205" y1="475.5313" y2="475.5313"/><text fill="#000000" font-family="sans-serif" font-size="13" lengthAdjust="spacing" textLength="167" x="1899" y="470.6748">adjust_duration(id, days, ids)</text><polygon fill="#181818" points="1903,501.8828,1893,505.8828,1903,509.8828,1899,505.8828" style="stroke:#181818;stroke-width:1.0;"/><line style="stroke:#181818;stroke-width:1.0;stroke-dasharray:2.0,2.0;" x1="1897" x2="2210" y1="505.8828" y2="505.8828"/><text fill="#000000" font-family="sans-serif" font-size="13" lengthAdjust="spacing" textLength="112" x="1909" y="501.0264">list of IDs to update</text><line style="stroke:#181818;stroke-width:1.0;" x1="1892" x2="1939" y1="538.2344" y2="538.2344"/><line style="stroke:#181818;stroke-width:1.0;" x1="1939" x2="1939" y1="538.2344" y2="551.2344"/><line style="stroke:#181818;stroke-width:1.0;" x1="1898" x2="1939" y1="551.2344" y2="551.2344"/><polygon fill="#181818" points="1908,547.2344,1898,551.2344,1908,555.2344,1904,551.2344" style="stroke:#181818;stroke-width:1.0;"/><text fill="#000000" font-family="sans-serif" font-size="13" lengthAdjust="spacing" textLength="230" x="1904" y="533.3779">select_ICD_order(claims, combinations)</text><polygon fill="#181818" points="2290,582.5859,2300,586.5859,2290,590.5859,2294,586.5859" style="stroke:#181818;stroke-width:1.0;"/><line style="stroke:#181818;stroke-width:1.0;" x1="1897" x2="2296" y1="586.5859" y2="586.5859"/><text fill="#000000" font-family="sans-serif" font-size="13" lengthAdjust="spacing" textLength="145" x="1904" y="581.7295">execute_fraud_grouping()</text><line style="stroke:#181818;stroke-width:1.0;" x1="2312" x2="2354" y1="616.9375" y2="616.9375"/><line style="stroke:#181818;stroke-width:1.0;" x1="2354" x2="2354" y1="616.9375" y2="629.9375"/><line style="stroke:#181818;stroke-width:1.0;" x1="2313" x2="2354" y1="629.9375" y2="629.9375"/><polygon fill="#181818" points="2323,625.9375,2313,629.9375,2323,633.9375,2319,629.9375" style="stroke:#181818;stroke-width:1.0;"/><text fill="#000000" font-family="sans-serif" font-size="13" lengthAdjust="spacing" textLength="136" x="2319" y="612.0811">prepare_fraud_grouper()</text><line style="stroke:#181818;stroke-width:1.0;" x1="2312" x2="2354" y1="660.2891" y2="660.2891"/><line style="stroke:#181818;stroke-width:1.0;" x1="2354" x2="2354" y1="660.2891" y2="673.2891"/><line style="stroke:#181818;stroke-width:1.0;" x1="2313" x2="2354" y1="673.2891" y2="673.2891"/><polygon fill="#181818" points="2323,669.2891,2313,673.2891,2323,677.2891,2319,673.2891" style="stroke:#181818;stroke-width:1.0;"/><text fill="#000000" font-family="sans-serif" font-size="13" lengthAdjust="spacing" textLength="76" x="2319" y="655.4326">run_grouper()</text><polygon fill="#181818" points="1908,699.6406,1898,703.6406,1908,707.6406,1904,703.6406" style="stroke:#181818;stroke-width:1.0;"/><line style="stroke:#181818;stroke-width:1.0;stroke-dasharray:2.0,2.0;" x1="1902" x2="2306" y1="703.6406" y2="703.6406"/><text fill="#000000" font-family="sans-serif" font-size="13" lengthAdjust="spacing" textLength="169" x="1914" y="698.7842">grouped claims-combinations</text><line style="stroke:#181818;stroke-width:1.0;" x1="1897" x2="1944" y1="728.9922" y2="728.9922"/><line style="stroke:#181818;stroke-width:1.0;" x1="1944" x2="1944" y1="728.9922" y2="741.9922"/><line style="stroke:#181818;stroke-width:1.0;" x1="1903" x2="1944" y1="741.9922" y2="741.9922"/><polygon fill="#181818" points="1913,737.9922,1903,741.9922,1913,745.9922,1909,741.9922" style="stroke:#181818;stroke-width:1.0;"/><text fill="#000000" font-family="sans-serif" font-size="13" lengthAdjust="spacing" textLength="159" x="1909" y="724.1357">adjust_duration(claims, ids)</text><polygon fill="#181818" points="2290,773.3438,2300,777.3438,2290,781.3438,2294,777.3438" style="stroke:#181818;stroke-width:1.0;"/><line style="stroke:#181818;stroke-width:1.0;" x1="1902" x2="2296" y1="777.3438" y2="777.3438"/><text fill="#000000" font-family="sans-serif" font-size="13" lengthAdjust="spacing" textLength="110" x="1909" y="772.4873">execute_grouping()</text><line style="stroke:#181818;stroke-width:1.0;" x1="2312" x2="2354" y1="807.6953" y2="807.6953"/><line style="stroke:#181818;stroke-width:1.0;" x1="2354" x2="2354" y1="807.6953" y2="820.6953"/><line style="stroke:#181818;stroke-width:1.0;" x1="2313" x2="2354" y1="820.6953" y2="820.6953"/><polygon fill="#181818" points="2323,816.6953,2313,820.6953,2323,824.6953,2319,820.6953" style="stroke:#181818;stroke-width:1.0;"/><text fill="#000000" font-family="sans-serif" font-size="13" lengthAdjust="spacing" textLength="101" x="2319" y="802.8389">prepare_grouper()</text><line style="stroke:#181818;stroke-width:1.0;" x1="2312" x2="2354" y1="851.0469" y2="851.0469"/><line style="stroke:#181818;stroke-width:1.0;" x1="2354" x2="2354" y1="851.0469" y2="864.0469"/><line style="stroke:#181818;stroke-width:1.0;" x1="2313" x2="2354" y1="864.0469" y2="864.0469"/><polygon fill="#181818" points="2323,860.0469,2313,864.0469,2323,868.0469,2319,864.0469" style="stroke:#181818;stroke-width:1.0;"/><text fill="#000000" font-family="sans-serif" font-size="13" lengthAdjust="spacing" textLength="76" x="2319" y="846.1904">run_grouper()</text><line style="stroke:#181818;stroke-width:1.0;" x1="2312" x2="2354" y1="894.3984" y2="894.3984"/><line style="stroke:#181818;stroke-width:1.0;" x1="2354" x2="2354" y1="894.3984" y2="907.3984"/><line style="stroke:#181818;stroke-width:1.0;" x1="2313" x2="2354" y1="907.3984" y2="907.3984"/><polygon fill="#181818" points="2323,903.3984,2313,907.3984,2323,911.3984,2319,907.3984" style="stroke:#181818;stroke-width:1.0;"/><text fill="#000000" font-family="sans-serif" font-size="13" lengthAdjust="spacing" textLength="76" x="2319" y="889.542">merge_data()</text><polygon fill="#181818" points="1913,933.75,1903,937.75,1913,941.75,1909,937.75" style="stroke:#181818;stroke-width:1.0;"/><line style="stroke:#181818;stroke-width:1.0;stroke-dasharray:2.0,2.0;" x1="1907" x2="2306" y1="937.75" y2="937.75"/><text fill="#000000" font-family="sans-serif" font-size="13" lengthAdjust="spacing" textLength="88" x="1919" y="932.8936">grouped claims</text><line style="stroke:#181818;stroke-width:1.0;" x1="1902" x2="1949" y1="963.1016" y2="963.1016"/><line style="stroke:#181818;stroke-width:1.0;" x1="1949" x2="1949" y1="963.1016" y2="976.1016"/><line style="stroke:#181818;stroke-width:1.0;" x1="1908" x2="1949" y1="976.1016" y2="976.1016"/><polygon fill="#181818" points="1918,972.1016,1908,976.1016,1918,980.1016,1914,976.1016" style="stroke:#181818;stroke-width:1.0;"/><text fill="#000000" font-family="sans-serif" font-size="13" lengthAdjust="spacing" textLength="188" x="1914" y="958.2451">select_duration(id, temp_bloody)</text><polygon fill="#181818" points="441,1007.4531,431,1011.4531,441,1015.4531,437,1011.4531" style="stroke:#181818;stroke-width:1.0;"/><line style="stroke:#181818;stroke-width:1.0;" x1="435" x2="1896" y1="1011.4531" y2="1011.4531"/><text fill="#000000" font-family="sans-serif" font-size="13" lengthAdjust="spacing" textLength="70" x="447" y="1006.5967">get_ugv(drg)</text><polygon fill="#181818" points="1875,1037.8047,1885,1041.8047,1875,1045.8047,1879,1041.8047" style="stroke:#181818;stroke-width:1.0;"/><line style="stroke:#181818;stroke-width:1.0;stroke-dasharray:2.0,2.0;" x1="430" x2="1881" y1="1041.8047" y2="1041.8047"/><text fill="#000000" font-family="sans-serif" font-size="13" lengthAdjust="spacing" textLength="28" x="437" y="1036.9482">UGV</text><line style="stroke:#000000;stroke-width:1.0;stroke-dasharray:2.0,2.0;" x1="0" x2="2467" y1="1049.8047" y2="1049.8047"/><!--SRC=[xHfhRzkwzRj-1TVxmGwG36rtXm71Ci1eSdCpzBP1alR3RW62bcYRhKHg9EN4_VKxf2YArCEHtGxRi0Q8RP67vyNpfFZxsT_GFIkgd6Wc-3bYdEavnobHL9qYZaiOfrp3xq-SuurG9TCaXqUbYQQdI1AUYGAxfqySC6bMIf5IfHXVdoGarMmBam6LfFs9WFpbtRMZ6q33O79nWQwltbtTBHwkqEtYuURgtSCzMhoxHB- -lx-zULYylKSN5md9DUfGHN-uG2yJ17ynfMlAgIHQo7EqhdzIB-0ybjKAT69nU9xySZlidmpccpUNNePe3KpqeT_VtWz3muGTo8Ke0-NRiHwMlTBKY2dFkjGx-nsHU5vRtW3cG-Pm4ZBl9wTptsAVodvCv7d-CwB9FDpdG0IEjQH45sRg9A6veiXy78BPEuxHJaicKCR9yxQprrI-jsLytyqo__0t0y-zkrfSeZVt7z4lDs-lhACcCv3KO6DfzkhbkdZzylKhjLCQVn4PLNzCrTPWrxYKhC00WtEcZDYpo9dQfr4qoMnqoXgGLRYXGkJEF213Q2ftYgOHSnD8mHB1iqE9fHkQVi6WxenAB6bEjuIdkuaa6qBeaUaDWkbKijAOhqfc6PsWmcG6bkSC47P4B1rNu24PRiR8akKCp4g5aTl4i6Z7efW- -oa4R35RUksZbSGQVyHlVqd48duzmAGR3GodDzCPiCJ7QJUhG1oNlh3W-BQsfu21U28oPAk9yAc3mIBlZ5ckJAwCk1fP6p1strZVPDPwgpmxqUXUXlhh0vP0bNrcO7284GVhMN3FUuc7QppPBPLRHX-xXDrmdtG0xuW78tl8X-iuVIp9cYPHAVC0eV7XDoXcqENLm-Achc9S76upKB8l21T4fniVWOt8BhpFn_AB2LskLdEHpqInEJ1tYkeOSuhA_6kzl8bE3MJN_wDnHxBLNczLFTyR7e_5TTIA8aoD8z3r29N_MSuTutwp1WA_1ukDmGob4BZtxBpFG7NQsh_hBN0_gFRcGhPgWXsT3cAhOSp7uFI-r3b5m-CqQpUhYYMLIAnYz6tjCt4lkg0hni4P5K2b9jLsAgs1dRFo01imTVR6fDwH-YzmNb4gkuTu-phUna_SsTLfAvNRLvScpTAkF_YndYz4qFLSDEIJfFcOl3C3MBlSHVOMZ8vp6DfKP_0RkGmmEpPjishsmvG3TYCW-CB-pSUqtwQWUft94NPTwPFlNZ2FBWHiX6eCo5ccjboctfBQ-WWygLegBK54pEaQaiMMDdjkeOODiqMtDnqnXPScSMsWznxAG95K9P6aK0FwEZLwDuRiSPsYp1uh1Ctba9w27Du7STsASv-CxDGy5u_6OwgoD5y59JnMRI2PWQzbRr9vJxX5zhbITSu-HyG-OD2PKSKq6HiFjkxiex4tnW2_dGYUU-Jhdc5BSfOnlSE_tdmSjSldqNpTQQ754qinb1jKCjFg6IID74O5fgEOYcybSi15KfOTnHJ9CjTqvD1jCxAa6j2beX1oQSGrRSWnUBd01TLaQRbxt53kaDDX6urswoihfp5k8egfqggYd9kFm_GNO91qonIieXdUK2Br_50yJQYmJUoIIRqvUZTYL11EgS8RHeypEI4bf4qJxa2OJeKow4Qns5FTPIYVhYJyACXd8MEwB_vyzfUVNvpqGgbPtkJXJWoDP5fLUUv3g0KBSipXRhsIbOdWt2luUQrAMkOafLZa6Ivs8YKomuolY4pruKXMUSMW0gnacLTAJLzVS_-Fbw-2N7OmyOf_uUAHO_f42YYpR7rrC195EJF1WxgqS1GI4ASG1qZl33lV5UL658UeZV0rRMhFbP0G_UYQs_fpt3CEa8DK2gB8SeU5tW05ndr9uj4EDmfJRVZmnhEfaIE6mnxhMpsfoS_W0OoBWc0jd8Q_IQSExHUMSReBpFnRSBhzXmHN4dwGfRgLAwehXI6nIVZUipgkU6fHQDPJU_rQ9Eh7t33iRgVm7DaTUpmSp9dJmVY4BObFKv9a_EZV7vLWRKg2S6NxeYOyWBbvz_UhDm_ebxl5Xqjpv1AVwJF-sRZfIf8gEu-UvZUNoXJ3mHb-Uu0QmBMZgM6Dkb7RSkQKprk68GIBUYF2zOQBSANXmZmh6bJN_bUzFeIt6eh50F7H5YWo9-T6L59D8Emi29mZ9LGHcEkOtmIwWVrCe0Whm50vjbKUbKgOLXhSbCuxBZE1ScIa4sXdrAdvaRBrHi_hhydaQl3fMWMci90cvB1iF3GyGxWKIZ4mUt2wOkaIufITTP4ggrpwCooO9kSKiKnDekmFBS0hj80kolHerhK33umyeCjHZAy-BmcqakQ45S1GADcOotLHNqjHWVcS8_f4qwhX0A_DSDsSja6Y1atSTxGQCYsqgT5gOEna45PMV0YY9sSDaw5QlBDetyBOvTZQhxJkDZOwivjufAgELT9HwWaW2YhNxltfTFqThZ9dPv7bQrgKU0aHEjjDLPi_UQZMstac8GutnmOnkG_N7qCU8vnZupvT-PnHSVRFYixDjWudZ9WeVQgFU9fAgwr4ZBIIgYhNNSSQmleVFjCujadhtQFuxbrRW_X7j_QZM_k_xzPwbvoEQj-QnJywkk_PqGsL2_- -fcuieSLvfTF0sT4Aifn6zjRKU5eqRy_ltd-uHM_UBcv-k-ytR__zjKmeE1GCW_LBHwXmYMcBRE4pdtoZCYLvQiQeMmYr2fJwhlensvun1NO5_BgtBFuwWNNmg0qVVJkLKKsOlGBM1J6zctaJ0TMB9sGKGq_yjOm5po6mu3-Hu8KVQSQY2naHP3AB7lrLZBhwMLOPa3V6RDKSljQBiJHbMwXcgwcQw-v9HF0Ow3sPBSKJUc7lkK6oKY_GJszDDtWjoIwPWKbfbhBIl9ap_KrmTIcSwjng6fngBXs5aqDtVmRcErTn1Y3yVPdUN7G99fpjNsA8feVVm4SWdJqDf_RSx8DeWq3boUz_FJkBjgvvqpVK8BHm_m80]--></g></svg>