<?xml version="1.0" encoding="us-ascii" standalone="no"?><svg xmlns="http://www.w3.org/2000/svg" xmlns:xlink="http://www.w3.org/1999/xlink" contentStyleType="text/css" height="1539px" preserveAspectRatio="none" style="width:2474px;height:1539px;background:#FFFFFF;" version="1.1" viewBox="0 0 2474 1539" width="2474px" zoomAndPan="magnify"><defs/><g><rect fill="#FFFFFF" height="1437.7109" style="stroke:#181818;stroke-width:1.0;" width="10" x="217" y="47.6094"/><rect fill="#FFFFFF" height="168.7578" style="stroke:#181818;stroke-width:1.0;" width="10" x="222" y="1286.2109"/><rect fill="#FFFFFF" height="117.0547" style="stroke:#181818;stroke-width:1.0;" width="10" x="425" y="1337.9141"/><rect fill="#FFFFFF" height="30.3516" style="stroke:#181818;stroke-width:1.0;" width="10" x="991" y="724.9375"/><rect fill="#FFFFFF" height="73.7031" style="stroke:#181818;stroke-width:1.0;" width="10" x="1148" y="187.3672"/><rect fill="#FFFFFF" height="818.3828" style="stroke:#181818;stroke-width:1.0;" width="10" x="1468" y="157.0156"/><rect fill="#FFFFFF" height="65.7031" style="stroke:#181818;stroke-width:1.0;" width="10" x="1473" y="689.5859"/><rect fill="#FFFFFF" height="965.1406" style="stroke:#181818;stroke-width:1.0;" width="10" x="1882" y="47.6094"/><rect fill="#FFFFFF" height="942.7891" style="stroke:#181818;stroke-width:1.0;" width="10" x="1887" y="47.6094"/><rect fill="#FFFFFF" height="160.4063" style="stroke:#181818;stroke-width:1.0;" width="10" x="2302" y="1087.4531"/><rect fill="none" height="926.7891" style="stroke:#000000;stroke-width:1.5;" width="1248.5" x="967.5" y="56.6094"/><line style="stroke:#181818;stroke-width:0.5;stroke-dasharray:5.0,5.0;" x1="221.5" x2="221.5" y1="37.6094" y2="1503.3203"/><line style="stroke:#181818;stroke-width:0.5;stroke-dasharray:5.0,5.0;" x1="429.5" x2="429.5" y1="37.6094" y2="1503.3203"/><line style="stroke:#181818;stroke-width:0.5;stroke-dasharray:5.0,5.0;" x1="718.5" x2="718.5" y1="37.6094" y2="1503.3203"/><line style="stroke:#181818;stroke-width:0.5;stroke-dasharray:5.0,5.0;" x1="995.5" x2="995.5" y1="37.6094" y2="1503.3203"/><line style="stroke:#181818;stroke-width:0.5;stroke-dasharray:5.0,5.0;" x1="1152.5" x2="1152.5" y1="37.6094" y2="1503.3203"/><line style="stroke:#181818;stroke-width:0.5;stroke-dasharray:5.0,5.0;" x1="1472.5" x2="1472.5" y1="37.6094" y2="1503.3203"/><line style="stroke:#181818;stroke-width:0.5;stroke-dasharray:5.0,5.0;" x1="1887" x2="1887" y1="37.6094" y2="1503.3203"/><line style="stroke:#181818;stroke-width:0.5;stroke-dasharray:5.0,5.0;" x1="2215.5" x2="2215.5" y1="37.6094" y2="1503.3203"/><line style="stroke:#181818;stroke-width:0.5;stroke-dasharray:5.0,5.0;" x1="2306.5" x2="2306.5" y1="37.6094" y2="1503.3203"/><rect fill="#E2E2F0" height="31.6094" rx="2.5" ry="2.5" style="stroke:#181818;stroke-width:0.5;" width="79" x="182.5" y="5"/><text fill="#000000" font-family="sans-serif" font-size="14" lengthAdjust="spacing" textLength="65" x="189.5" y="26.5332">Simulation</text><rect fill="#E2E2F0" height="31.6094" rx="2.5" ry="2.5" style="stroke:#181818;stroke-width:0.5;" width="79" x="182.5" y="1502.3203"/><text fill="#000000" font-family="sans-serif" font-size="14" lengthAdjust="spacing" textLength="65" x="189.5" y="1523.8535">Simulation</text><rect fill="#E2E2F0" height="31.6094" rx="2.5" ry="2.5" style="stroke:#181818;stroke-width:0.5;" width="45" x="407.5" y="5"/><text fill="#000000" font-family="sans-serif" font-size="14" lengthAdjust="spacing" textLength="31" x="414.5" y="26.5332">DRG</text><rect fill="#E2E2F0" height="31.6094" rx="2.5" ry="2.5" style="stroke:#181818;stroke-width:0.5;" width="45" x="407.5" y="1502.3203"/><text fill="#000000" font-family="sans-serif" font-size="14" lengthAdjust="spacing" textLength="31" x="414.5" y="1523.8535">DRG</text><rect fill="#E2E2F0" height="31.6094" rx="2.5" ry="2.5" style="stroke:#181818;stroke-width:0.5;" width="79" x="679.5" y="5"/><text fill="#000000" font-family="sans-serif" font-size="14" lengthAdjust="spacing" textLength="65" x="686.5" y="26.5332">Generator</text><rect fill="#E2E2F0" height="31.6094" rx="2.5" ry="2.5" style="stroke:#181818;stroke-width:0.5;" width="79" x="679.5" y="1502.3203"/><text fill="#000000" font-family="sans-serif" font-size="14" lengthAdjust="spacing" textLength="65" x="686.5" y="1523.8535">Generator</text><rect fill="#E2E2F0" height="31.6094" rx="2.5" ry="2.5" style="stroke:#181818;stroke-width:0.5;" width="37" x="977.5" y="5"/><text fill="#000000" font-family="sans-serif" font-size="14" lengthAdjust="spacing" textLength="23" x="984.5" y="26.5332">ICD</text><rect fill="#E2E2F0" height="31.6094" rx="2.5" ry="2.5" style="stroke:#181818;stroke-width:0.5;" width="37" x="977.5" y="1502.3203"/><text fill="#000000" font-family="sans-serif" font-size="14" lengthAdjust="spacing" textLength="23" x="984.5" y="1523.8535">ICD</text><rect fill="#E2E2F0" height="31.6094" rx="2.5" ry="2.5" style="stroke:#181818;stroke-width:0.5;" width="43" x="1131.5" y="5"/><text fill="#000000" font-family="sans-serif" font-size="14" lengthAdjust="spacing" textLength="29" x="1138.5" y="26.5332">OPS</text><rect fill="#E2E2F0" height="31.6094" rx="2.5" ry="2.5" style="stroke:#181818;stroke-width:0.5;" width="43" x="1131.5" y="1502.3203"/><text fill="#000000" font-family="sans-serif" font-size="14" lengthAdjust="spacing" textLength="29" x="1138.5" y="1523.8535">OPS</text><rect fill="#E2E2F0" height="31.6094" rx="2.5" ry="2.5" style="stroke:#181818;stroke-width:0.5;" width="91" x="1427.5" y="5"/><text fill="#000000" font-family="sans-serif" font-size="14" lengthAdjust="spacing" textLength="77" x="1434.5" y="26.5332">Adjustments</text><rect fill="#E2E2F0" height="31.6094" rx="2.5" ry="2.5" style="stroke:#181818;stroke-width:0.5;" width="91" x="1427.5" y="1502.3203"/><text fill="#000000" font-family="sans-serif" font-size="14" lengthAdjust="spacing" textLength="77" x="1434.5" y="1523.8535">Adjustments</text><rect fill="#E2E2F0" height="31.6094" rx="2.5" ry="2.5" style="stroke:#181818;stroke-width:0.5;" width="88" x="1843" y="5"/><text fill="#000000" font-family="sans-serif" font-size="14" lengthAdjust="spacing" textLength="74" x="1850" y="26.5332">inject_fraud</text><rect fill="#E2E2F0" height="31.6094" rx="2.5" ry="2.5" style="stroke:#181818;stroke-width:0.5;" width="88" x="1843" y="1502.3203"/><text fill="#000000" font-family="sans-serif" font-size="14" lengthAdjust="spacing" textLength="74" x="1850" y="1523.8535">inject_fraud</text><rect fill="#E2E2F0" height="31.6094" rx="2.5" ry="2.5" style="stroke:#181818;stroke-width:0.5;" width="95" x="2168.5" y="5"/><text fill="#000000" font-family="sans-serif" font-size="14" lengthAdjust="spacing" textLength="81" x="2175.5" y="26.5332">create_fraud</text><rect fill="#E2E2F0" height="31.6094" rx="2.5" ry="2.5" style="stroke:#181818;stroke-width:0.5;" width="95" x="2168.5" y="1502.3203"/><text fill="#000000" font-family="sans-serif" font-size="14" lengthAdjust="spacing" textLength="81" x="2175.5" y="1523.8535">create_fraud</text><rect fill="#E2E2F0" height="31.6094" rx="2.5" ry="2.5" style="stroke:#181818;stroke-width:0.5;" width="67" x="2273.5" y="5"/><text fill="#000000" font-family="sans-serif" font-size="14" lengthAdjust="spacing" textLength="53" x="2280.5" y="26.5332">Grouper</text><rect fill="#E2E2F0" height="31.6094" rx="2.5" ry="2.5" style="stroke:#181818;stroke-width:0.5;" width="67" x="2273.5" y="1502.3203"/><text fill="#000000" font-family="sans-serif" font-size="14" lengthAdjust="spacing" textLength="53" x="2280.5" y="1523.8535">Grouper</text><rect fill="#FFFFFF" height="1437.7109" style="stroke:#181818;stroke-width:1.0;" width="10" x="217" y="47.6094"/><rect fill="#FFFFFF" height="168.7578" style="stroke:#181818;stroke-width:1.0;" width="10" x="222" y="1286.2109"/><rect fill="#FFFFFF" height="117.0547" style="stroke:#181818;stroke-width:1.0;" width="10" x="425" y="1337.9141"/><rect fill="#FFFFFF" height="30.3516" style="stroke:#181818;stroke-width:1.0;" width="10" x="991" y="724.9375"/><rect fill="#FFFFFF" height="73.7031" style="stroke:#181818;stroke-width:1.0;" width="10" x="1148" y="187.3672"/><rect fill="#FFFFFF" height="818.3828" style="stroke:#181818;stroke-width:1.0;" width="10" x="1468" y="157.0156"/><rect fill="#FFFFFF" height="65.7031" style="stroke:#181818;stroke-width:1.0;" width="10" x="1473" y="689.5859"/><rect fill="#FFFFFF" height="965.1406" style="stroke:#181818;stroke-width:1.0;" width="10" x="1882" y="47.6094"/><rect fill="#FFFFFF" height="942.7891" style="stroke:#181818;stroke-width:1.0;" width="10" x="1887" y="47.6094"/><rect fill="#FFFFFF" height="160.4063" style="stroke:#181818;stroke-width:1.0;" width="10" x="2302" y="1087.4531"/><line style="stroke:#000000;stroke-width:1.0;stroke-dasharray:2.0,2.0;" x1="0" x2="2467" y1="48.6094" y2="48.6094"/><path d="M967.5,56.6094 L1040.5,56.6094 L1040.5,64.9609 L1030.5,74.9609 L967.5,74.9609 L967.5,56.6094 " fill="#EEEEEE" style="stroke:#000000;stroke-width:1.5;"/><rect fill="none" height="926.7891" style="stroke:#000000;stroke-width:1.5;" width="1248.5" x="967.5" y="56.6094"/><text fill="#000000" font-family="sans-serif" font-size="13" font-weight="bold" lengthAdjust="spacing" textLength="28" x="982.5" y="71.1045">loop</text><text fill="#000000" font-family="sans-serif" font-size="11" font-weight="bold" lengthAdjust="spacing" textLength="96" x="1055.5" y="70.0283">[len(unique(ids))]</text><line style="stroke:#181818;stroke-width:1.0;" x1="1897" x2="1939" y1="97.3125" y2="97.3125"/><line style="stroke:#181818;stroke-width:1.0;" x1="1939" x2="1939" y1="97.3125" y2="110.3125"/><line style="stroke:#181818;stroke-width:1.0;" x1="1898" x2="1939" y1="110.3125" y2="110.3125"/><polygon fill="#181818" points="1908,106.3125,1898,110.3125,1908,114.3125,1904,110.3125" style="stroke:#181818;stroke-width:1.0;"/><text fill="#000000" font-family="sans-serif" font-size="13" lengthAdjust="spacing" textLength="300" x="1904" y="92.4561">extract_primary_secondary(id, result, combinations)</text><polygon fill="#181818" points="1489,153.0156,1479,157.0156,1489,161.0156,1485,157.0156" style="stroke:#181818;stroke-width:1.0;"/><line style="stroke:#181818;stroke-width:1.0;" x1="1483" x2="1886" y1="157.0156" y2="157.0156"/><text fill="#000000" font-family="sans-serif" font-size="13" lengthAdjust="spacing" textLength="228" x="1495" y="135.8076">adjust_coding(primary, secondary, ops,</text><text fill="#000000" font-family="sans-serif" font-size="13" lengthAdjust="spacing" textLength="158" x="1495" y="152.1592">breathing, gender, age, plz)</text><polygon fill="#181818" points="1169,183.3672,1159,187.3672,1169,191.3672,1165,187.3672" style="stroke:#181818;stroke-width:1.0;"/><line style="stroke:#181818;stroke-width:1.0;" x1="1163" x2="1467" y1="187.3672" y2="187.3672"/><text fill="#000000" font-family="sans-serif" font-size="13" lengthAdjust="spacing" textLength="286" x="1175" y="182.5107">get_random_ops_from_major(age, gender, "5-74")</text><line style="stroke:#181818;stroke-width:1.0;" x1="1158" x2="1200" y1="217.7188" y2="217.7188"/><line style="stroke:#181818;stroke-width:1.0;" x1="1200" x2="1200" y1="217.7188" y2="230.7188"/><line style="stroke:#181818;stroke-width:1.0;" x1="1159" x2="1200" y1="230.7188" y2="230.7188"/><polygon fill="#181818" points="1169,226.7188,1159,230.7188,1169,234.7188,1165,230.7188" style="stroke:#181818;stroke-width:1.0;"/><text fill="#000000" font-family="sans-serif" font-size="13" lengthAdjust="spacing" textLength="78" x="1165" y="212.8623">get_ops_list()</text><polygon fill="#181818" points="1456,257.0703,1466,261.0703,1456,265.0703,1460,261.0703" style="stroke:#181818;stroke-width:1.0;"/><line style="stroke:#181818;stroke-width:1.0;stroke-dasharray:2.0,2.0;" x1="1153" x2="1462" y1="261.0703" y2="261.0703"/><text fill="#000000" font-family="sans-serif" font-size="13" lengthAdjust="spacing" textLength="80" x="1160" y="256.2139">full OPS code</text><line style="stroke:#181818;stroke-width:1.0;" x1="1478" x2="1520" y1="291.4219" y2="291.4219"/><line style="stroke:#181818;stroke-width:1.0;" x1="1520" x2="1520" y1="291.4219" y2="304.4219"/><line style="stroke:#181818;stroke-width:1.0;" x1="1479" x2="1520" y1="304.4219" y2="304.4219"/><polygon fill="#181818" points="1489,300.4219,1479,304.4219,1489,308.4219,1485,304.4219" style="stroke:#181818;stroke-width:1.0;"/><text fill="#000000" font-family="sans-serif" font-size="13" lengthAdjust="spacing" textLength="143" x="1485" y="286.5654">check_frustrane(primary)</text><line style="stroke:#181818;stroke-width:1.0;" x1="1478" x2="1520" y1="334.7734" y2="334.7734"/><line style="stroke:#181818;stroke-width:1.0;" x1="1520" x2="1520" y1="334.7734" y2="347.7734"/><line style="stroke:#181818;stroke-width:1.0;" x1="1479" x2="1520" y1="347.7734" y2="347.7734"/><polygon fill="#181818" points="1489,343.7734,1479,347.7734,1489,351.7734,1485,347.7734" style="stroke:#181818;stroke-width:1.0;"/><text fill="#000000" font-family="sans-serif" font-size="13" lengthAdjust="spacing" textLength="216" x="1485" y="329.917">replace_old_myocard_infarct(primary)</text><line style="stroke:#181818;stroke-width:1.0;" x1="1478" x2="1520" y1="378.125" y2="378.125"/><line style="stroke:#181818;stroke-width:1.0;" x1="1520" x2="1520" y1="378.125" y2="391.125"/><line style="stroke:#181818;stroke-width:1.0;" x1="1479" x2="1520" y1="391.125" y2="391.125"/><polygon fill="#181818" points="1489,387.125,1479,391.125,1489,395.125,1485,391.125" style="stroke:#181818;stroke-width:1.0;"/><text fill="#000000" font-family="sans-serif" font-size="13" lengthAdjust="spacing" textLength="179" x="1485" y="373.2686">replace_fluid_surpluss(primary)</text><line style="stroke:#181818;stroke-width:1.0;" x1="1478" x2="1520" y1="421.4766" y2="421.4766"/><line style="stroke:#181818;stroke-width:1.0;" x1="1520" x2="1520" y1="421.4766" y2="434.4766"/><line style="stroke:#181818;stroke-width:1.0;" x1="1479" x2="1520" y1="434.4766" y2="434.4766"/><polygon fill="#181818" points="1489,430.4766,1479,434.4766,1489,438.4766,1485,434.4766" style="stroke:#181818;stroke-width:1.0;"/><text fill="#000000" font-family="sans-serif" font-size="13" lengthAdjust="spacing" textLength="181" x="1485" y="416.6201">check_Z01_secondary(primary)</text><line style="stroke:#181818;stroke-width:1.0;" x1="1478" x2="1520" y1="464.8281" y2="464.8281"/><line style="stroke:#181818;stroke-width:1.0;" x1="1520" x2="1520" y1="464.8281" y2="477.8281"/><line style="stroke:#181818;stroke-width:1.0;" x1="1479" x2="1520" y1="477.8281" y2="477.8281"/><polygon fill="#181818" points="1489,473.8281,1479,477.8281,1489,481.8281,1485,477.8281" style="stroke:#181818;stroke-width:1.0;"/><text fill="#000000" font-family="sans-serif" font-size="13" lengthAdjust="spacing" textLength="228" x="1485" y="459.9717">replace_unknown_examination(primary)</text><line style="stroke:#181818;stroke-width:1.0;" x1="1478" x2="1520" y1="508.1797" y2="508.1797"/><line style="stroke:#181818;stroke-width:1.0;" x1="1520" x2="1520" y1="508.1797" y2="521.1797"/><line style="stroke:#181818;stroke-width:1.0;" x1="1479" x2="1520" y1="521.1797" y2="521.1797"/><polygon fill="#181818" points="1489,517.1797,1479,521.1797,1489,525.1797,1485,521.1797" style="stroke:#181818;stroke-width:1.0;"/><text fill="#000000" font-family="sans-serif" font-size="13" lengthAdjust="spacing" textLength="215" x="1485" y="503.3232">replace_senile_degeneration(primary)</text><line style="stroke:#181818;stroke-width:1.0;" x1="1478" x2="1520" y1="551.5313" y2="551.5313"/><line style="stroke:#181818;stroke-width:1.0;" x1="1520" x2="1520" y1="551.5313" y2="564.5313"/><line style="stroke:#181818;stroke-width:1.0;" x1="1479" x2="1520" y1="564.5313" y2="564.5313"/><polygon fill="#181818" points="1489,560.5313,1479,564.5313,1489,568.5313,1485,564.5313" style="stroke:#181818;stroke-width:1.0;"/><text fill="#000000" font-family="sans-serif" font-size="13" lengthAdjust="spacing" textLength="139" x="1485" y="546.6748">replace_chemo(primary)</text><line style="stroke:#181818;stroke-width:1.0;" x1="1478" x2="1520" y1="594.8828" y2="594.8828"/><line style="stroke:#181818;stroke-width:1.0;" x1="1520" x2="1520" y1="594.8828" y2="607.8828"/><line style="stroke:#181818;stroke-width:1.0;" x1="1479" x2="1520" y1="607.8828" y2="607.8828"/><polygon fill="#181818" points="1489,603.8828,1479,607.8828,1489,611.8828,1485,607.8828" style="stroke:#181818;stroke-width:1.0;"/><text fill="#000000" font-family="sans-serif" font-size="13" lengthAdjust="spacing" textLength="151" x="1485" y="590.0264">correct_lymphom(primary)</text><line style="stroke:#181818;stroke-width:1.0;" x1="1478" x2="1520" y1="638.2344" y2="638.2344"/><line style="stroke:#181818;stroke-width:1.0;" x1="1520" x2="1520" y1="638.2344" y2="651.2344"/><line style="stroke:#181818;stroke-width:1.0;" x1="1479" x2="1520" y1="651.2344" y2="651.2344"/><polygon fill="#181818" points="1489,647.2344,1479,651.2344,1489,655.2344,1485,651.2344" style="stroke:#181818;stroke-width:1.0;"/><text fill="#000000" font-family="sans-serif" font-size="13" lengthAdjust="spacing" textLength="342" x="1485" y="633.3779">change_gender_for_pregnancy(gender, primary, secondary)</text><line style="stroke:#181818;stroke-width:1.0;" x1="1478" x2="1525" y1="676.5859" y2="676.5859"/><line style="stroke:#181818;stroke-width:1.0;" x1="1525" x2="1525" y1="676.5859" y2="689.5859"/><line style="stroke:#181818;stroke-width:1.0;" x1="1484" x2="1525" y1="689.5859" y2="689.5859"/><polygon fill="#181818" points="1494,685.5859,1484,689.5859,1494,693.5859,1490,689.5859" style="stroke:#181818;stroke-width:1.0;"/><text fill="#000000" font-family="sans-serif" font-size="13" lengthAdjust="spacing" textLength="367" x="1490" y="671.7295">replace_caused_by_other_in_primary(primary, age, gender, plz)</text><polygon fill="#181818" points="1012,720.9375,1002,724.9375,1012,728.9375,1008,724.9375" style="stroke:#181818;stroke-width:1.0;"/><line style="stroke:#181818;stroke-width:1.0;" x1="1006" x2="1472" y1="724.9375" y2="724.9375"/><text fill="#000000" font-family="sans-serif" font-size="13" lengthAdjust="spacing" textLength="243" x="1018" y="720.0811">get_random_primary_icd(age, gender, plz)</text><polygon fill="#181818" points="1456,751.2891,1466,755.2891,1456,759.2891,1460,755.2891" style="stroke:#181818;stroke-width:1.0;"/><line style="stroke:#181818;stroke-width:1.0;stroke-dasharray:2.0,2.0;" x1="996" x2="1462" y1="755.2891" y2="755.2891"/><text fill="#000000" font-family="sans-serif" font-size="13" lengthAdjust="spacing" textLength="100" x="1003" y="750.4326">primary ICD code</text><line style="stroke:#181818;stroke-width:1.0;" x1="1478" x2="1520" y1="785.6406" y2="785.6406"/><line style="stroke:#181818;stroke-width:1.0;" x1="1520" x2="1520" y1="785.6406" y2="798.6406"/><line style="stroke:#181818;stroke-width:1.0;" x1="1479" x2="1520" y1="798.6406" y2="798.6406"/><polygon fill="#181818" points="1489,794.6406,1479,798.6406,1489,802.6406,1485,798.6406" style="stroke:#181818;stroke-width:1.0;"/><text fill="#000000" font-family="sans-serif" font-size="13" lengthAdjust="spacing" textLength="332" x="1485" y="780.7842">adjust_carcinoma_to_gender(gender, primary, secondary)</text><line style="stroke:#181818;stroke-width:1.0;" x1="1478" x2="1520" y1="828.9922" y2="828.9922"/><line style="stroke:#181818;stroke-width:1.0;" x1="1520" x2="1520" y1="828.9922" y2="841.9922"/><line style="stroke:#181818;stroke-width:1.0;" x1="1479" x2="1520" y1="841.9922" y2="841.9922"/><polygon fill="#181818" points="1489,837.9922,1479,841.9922,1489,845.9922,1485,841.9922" style="stroke:#181818;stroke-width:1.0;"/><text fill="#000000" font-family="sans-serif" font-size="13" lengthAdjust="spacing" textLength="313" x="1485" y="824.1357">adjust_kidney_secondary(gender, primary, secondary)</text><line style="stroke:#181818;stroke-width:1.0;" x1="1478" x2="1520" y1="872.3438" y2="872.3438"/><line style="stroke:#181818;stroke-width:1.0;" x1="1520" x2="1520" y1="872.3438" y2="885.3438"/><line style="stroke:#181818;stroke-width:1.0;" x1="1479" x2="1520" y1="885.3438" y2="885.3438"/><polygon fill="#181818" points="1489,881.3438,1479,885.3438,1489,889.3438,1485,885.3438" style="stroke:#181818;stroke-width:1.0;"/><text fill="#000000" font-family="sans-serif" font-size="13" lengthAdjust="spacing" textLength="163" x="1485" y="867.4873">change_companion(primary)</text><line style="stroke:#181818;stroke-width:1.0;" x1="1478" x2="1520" y1="915.6953" y2="915.6953"/><line style="stroke:#181818;stroke-width:1.0;" x1="1520" x2="1520" y1="915.6953" y2="928.6953"/><line style="stroke:#181818;stroke-width:1.0;" x1="1479" x2="1520" y1="928.6953" y2="928.6953"/><polygon fill="#181818" points="1489,924.6953,1479,928.6953,1489,932.6953,1485,928.6953" style="stroke:#181818;stroke-width:1.0;"/><text fill="#000000" font-family="sans-serif" font-size="13" lengthAdjust="spacing" textLength="178" x="1485" y="910.8389">change_fetus_abortus(primary)</text><polygon fill="#181818" points="1875,971.3984,1885,975.3984,1875,979.3984,1879,975.3984" style="stroke:#181818;stroke-width:1.0;"/><line style="stroke:#181818;stroke-width:1.0;stroke-dasharray:2.0,2.0;" x1="1473" x2="1881" y1="975.3984" y2="975.3984"/><text fill="#000000" font-family="sans-serif" font-size="13" lengthAdjust="spacing" textLength="164" x="1480" y="954.1904">adjusted primary ICD codes,</text><text fill="#000000" font-family="sans-serif" font-size="13" lengthAdjust="spacing" textLength="224" x="1480" y="970.542">secondary ICD codes, and OPS codes</text><polygon fill="#181818" points="238,1008.75,228,1012.75,238,1016.75,234,1012.75" style="stroke:#181818;stroke-width:1.0;"/><line style="stroke:#181818;stroke-width:1.0;stroke-dasharray:2.0,2.0;" x1="232" x2="1886" y1="1012.75" y2="1012.75"/><text fill="#000000" font-family="sans-serif" font-size="13" lengthAdjust="spacing" textLength="95" x="244" y="1007.8936">fraudulent cases</text><rect fill="#EEEEEE" height="3" style="stroke:#EEEEEE;stroke-width:1.0;" width="2467" x="0" y="1041.9258"/><line style="stroke:#000000;stroke-width:1.0;" x1="0" x2="2467" y1="1041.9258" y2="1041.9258"/><line style="stroke:#000000;stroke-width:1.0;" x1="0" x2="2467" y1="1044.9258" y2="1044.9258"/><rect fill="#EEEEEE" height="24.3516" style="stroke:#000000;stroke-width:2.0;" width="119" x="1174" y="1030.75"/><text fill="#000000" font-family="sans-serif" font-size="13" font-weight="bold" lengthAdjust="spacing" textLength="101" x="1180" y="1048.2451">GROUP CLAIMS</text><polygon fill="#181818" points="2290,1083.4531,2300,1087.4531,2290,1091.4531,2294,1087.4531" style="stroke:#181818;stroke-width:1.0;"/><line style="stroke:#181818;stroke-width:1.0;" x1="227" x2="2296" y1="1087.4531" y2="1087.4531"/><text fill="#000000" font-family="sans-serif" font-size="13" lengthAdjust="spacing" textLength="110" x="234" y="1082.5967">execute_grouping()</text><line style="stroke:#181818;stroke-width:1.0;" x1="2312" x2="2354" y1="1117.8047" y2="1117.8047"/><line style="stroke:#181818;stroke-width:1.0;" x1="2354" x2="2354" y1="1117.8047" y2="1130.8047"/><line style="stroke:#181818;stroke-width:1.0;" x1="2313" x2="2354" y1="1130.8047" y2="1130.8047"/><polygon fill="#181818" points="2323,1126.8047,2313,1130.8047,2323,1134.8047,2319,1130.8047" style="stroke:#181818;stroke-width:1.0;"/><text fill="#000000" font-family="sans-serif" font-size="13" lengthAdjust="spacing" textLength="101" x="2319" y="1112.9482">prepare_grouper()</text><line style="stroke:#181818;stroke-width:1.0;" x1="2312" x2="2354" y1="1161.1563" y2="1161.1563"/><line style="stroke:#181818;stroke-width:1.0;" x1="2354" x2="2354" y1="1161.1563" y2="1174.1563"/><line style="stroke:#181818;stroke-width:1.0;" x1="2313" x2="2354" y1="1174.1563" y2="1174.1563"/><polygon fill="#181818" points="2323,1170.1563,2313,1174.1563,2323,1178.1563,2319,1174.1563" style="stroke:#181818;stroke-width:1.0;"/><text fill="#000000" font-family="sans-serif" font-size="13" lengthAdjust="spacing" textLength="76" x="2319" y="1156.2998">run_grouper()</text><line style="stroke:#181818;stroke-width:1.0;" x1="2312" x2="2354" y1="1204.5078" y2="1204.5078"/><line style="stroke:#181818;stroke-width:1.0;" x1="2354" x2="2354" y1="1204.5078" y2="1217.5078"/><line style="stroke:#181818;stroke-width:1.0;" x1="2313" x2="2354" y1="1217.5078" y2="1217.5078"/><polygon fill="#181818" points="2323,1213.5078,2313,1217.5078,2323,1221.5078,2319,1217.5078" style="stroke:#181818;stroke-width:1.0;"/><text fill="#000000" font-family="sans-serif" font-size="13" lengthAdjust="spacing" textLength="76" x="2319" y="1199.6514">merge_data()</text><polygon fill="#181818" points="238,1243.8594,228,1247.8594,238,1251.8594,234,1247.8594" style="stroke:#181818;stroke-width:1.0;"/><line style="stroke:#181818;stroke-width:1.0;stroke-dasharray:2.0,2.0;" x1="232" x2="2306" y1="1247.8594" y2="1247.8594"/><text fill="#000000" font-family="sans-serif" font-size="13" lengthAdjust="spacing" textLength="35" x="244" y="1243.0029">DRGs</text><line style="stroke:#181818;stroke-width:1.0;" x1="227" x2="274" y1="1273.2109" y2="1273.2109"/><line style="stroke:#181818;stroke-width:1.0;" x1="274" x2="274" y1="1273.2109" y2="1286.2109"/><line style="stroke:#181818;stroke-width:1.0;" x1="233" x2="274" y1="1286.2109" y2="1286.2109"/><polygon fill="#181818" points="243,1282.2109,233,1286.2109,243,1290.2109,239,1286.2109" style="stroke:#181818;stroke-width:1.0;"/><text fill="#000000" font-family="sans-serif" font-size="13" lengthAdjust="spacing" textLength="67" x="239" y="1268.3545">add_claim()</text><polygon fill="#181818" points="413,1333.9141,423,1337.9141,413,1341.9141,417,1337.9141" style="stroke:#181818;stroke-width:1.0;"/><line style="stroke:#181818;stroke-width:1.0;" x1="232" x2="419" y1="1337.9141" y2="1337.9141"/><text fill="#000000" font-family="sans-serif" font-size="13" lengthAdjust="spacing" textLength="170" x="239" y="1316.7061">calculate_claim(drg, duration,</text><text fill="#000000" font-family="sans-serif" font-size="13" lengthAdjust="spacing" textLength="166" x="239" y="1333.0576">discharge date, hospital_plz)</text><line style="stroke:#181818;stroke-width:1.0;" x1="435" x2="477" y1="1368.2656" y2="1368.2656"/><line style="stroke:#181818;stroke-width:1.0;" x1="477" x2="477" y1="1368.2656" y2="1381.2656"/><line style="stroke:#181818;stroke-width:1.0;" x1="436" x2="477" y1="1381.2656" y2="1381.2656"/><polygon fill="#181818" points="446,1377.2656,436,1381.2656,446,1385.2656,442,1381.2656" style="stroke:#181818;stroke-width:1.0;"/><text fill="#000000" font-family="sans-serif" font-size="13" lengthAdjust="spacing" textLength="130" x="442" y="1363.4092">get_DRG_list_details()</text><line style="stroke:#181818;stroke-width:1.0;" x1="435" x2="477" y1="1411.6172" y2="1411.6172"/><line style="stroke:#181818;stroke-width:1.0;" x1="477" x2="477" y1="1411.6172" y2="1424.6172"/><line style="stroke:#181818;stroke-width:1.0;" x1="436" x2="477" y1="1424.6172" y2="1424.6172"/><polygon fill="#181818" points="446,1420.6172,436,1424.6172,446,1428.6172,442,1424.6172" style="stroke:#181818;stroke-width:1.0;"/><text fill="#000000" font-family="sans-serif" font-size="13" lengthAdjust="spacing" textLength="182" x="442" y="1406.7607">get_care_value(discharge_date)</text><polygon fill="#181818" points="238,1450.9688,228,1454.9688,238,1458.9688,234,1454.9688" style="stroke:#181818;stroke-width:1.0;"/><line style="stroke:#181818;stroke-width:1.0;stroke-dasharray:2.0,2.0;" x1="232" x2="429" y1="1454.9688" y2="1454.9688"/><text fill="#000000" font-family="sans-serif" font-size="13" lengthAdjust="spacing" textLength="67" x="244" y="1450.1123">claim_value</text><polygon fill="#181818" points="11,1481.3203,1,1485.3203,11,1489.3203,7,1485.3203" style="stroke:#181818;stroke-width:1.0;"/><line style="stroke:#181818;stroke-width:1.0;stroke-dasharray:2.0,2.0;" x1="5" x2="221" y1="1485.3203" y2="1485.3203"/><text fill="#000000" font-family="sans-serif" font-size="13" lengthAdjust="spacing" textLength="99" x="17" y="1480.4639">generated claims</text><!--SRC=[xHfhRzkwzRj-1TVxmGwG36rtXm71Ci1eSdCpzBP1alR3RW62bcYRhKHg9EN4_VKxf2YArCEHtGxRi0Q8RP67vyNpfFZxsT_GFIkgd6Wc-3bYdEavnobHL9qYZaiOfrp3xq-SuurG9TCaXqUbYQQdI1AUYGAxfqySC6bMIf5IfHXVdoGarMmBam6LfFs9WFpbtRMZ6q33O79nWQwltbtTBHwkqEtYuURgtSCzMhoxHB- -lx-zULYylKSN5md9DUfGHN-uG2yJ17ynfMlAgIHQo7EqhdzIB-0ybjKAT69nU9xySZlidmpccpUNNePe3KpqeT_VtWz3muGTo8Ke0-NRiHwMlTBKY2dFkjGx-nsHU5vRtW3cG-Pm4ZBl9wTptsAVodvCv7d-CwB9FDpdG0IEjQH45sRg9A6veiXy78BPEuxHJaicKCR9yxQprrI-jsLytyqo__0t0y-zkrfSeZVt7z4lDs-lhACcCv3KO6DfzkhbkdZzylKhjLCQVn4PLNzCrTPWrxYKhC00WtEcZDYpo9dQfr4qoMnqoXgGLRYXGkJEF213Q2ftYgOHSnD8mHB1iqE9fHkQVi6WxenAB6bEjuIdkuaa6qBeaUaDWkbKijAOhqfc6PsWmcG6bkSC47P4B1rNu24PRiR8akKCp4g5aTl4i6Z7efW- -oa4R35RUksZbSGQVyHlVqd48duzmAGR3GodDzCPiCJ7QJUhG1oNlh3W-BQsfu21U28oPAk9yAc3mIBlZ5ckJAwCk1fP6p1strZVPDPwgpmxqUXUXlhh0vP0bNrcO7284GVhMN3FUuc7QppPBPLRHX-xXDrmdtG0xuW78tl8X-iuVIp9cYPHAVC0eV7XDoXcqENLm-Achc9S76upKB8l21T4fniVWOt8BhpFn_AB2LskLdEHpqInEJ1tYkeOSuhA_6kzl8bE3MJN_wDnHxBLNczLFTyR7e_5TTIA8aoD8z3r29N_MSuTutwp1WA_1ukDmGob4BZtxBpFG7NQsh_hBN0_gFRcGhPgWXsT3cAhOSp7uFI-r3b5m-CqQpUhYYMLIAnYz6tjCt4lkg0hni4P5K2b9jLsAgs1dRFo01imTVR6fDwH-YzmNb4gkuTu-phUna_SsTLfAvNRLvScpTAkF_YndYz4qFLSDEIJfFcOl3C3MBlSHVOMZ8vp6DfKP_0RkGmmEpPjishsmvG3TYCW-CB-pSUqtwQWUft94NPTwPFlNZ2FBWHiX6eCo5ccjboctfBQ-WWygLegBK54pEaQaiMMDdjkeOODiqMtDnqnXPScSMsWznxAG95K9P6aK0FwEZLwDuRiSPsYp1uh1Ctba9w27Du7STsASv-CxDGy5u_6OwgoD5y59JnMRI2PWQzbRr9vJxX5zhbITSu-HyG-OD2PKSKq6HiFjkxiex4tnW2_dGYUU-Jhdc5BSfOnlSE_tdmSjSldqNpTQQ754qinb1jKCjFg6IID74O5fgEOYcybSi15KfOTnHJ9CjTqvD1jCxAa6j2beX1oQSGrRSWnUBd01TLaQRbxt53kaDDX6urswoihfp5k8egfqggYd9kFm_GNO91qonIieXdUK2Br_50yJQYmJUoIIRqvUZTYL11EgS8RHeypEI4bf4qJxa2OJeKow4Qns5FTPIYVhYJyACXd8MEwB_vyzfUVNvpqGgbPtkJXJWoDP5fLUUv3g0KBSipXRhsIbOdWt2luUQrAMkOafLZa6Ivs8YKomuolY4pruKXMUSMW0gnacLTAJLzVS_-Fbw-2N7OmyOf_uUAHO_f42YYpR7rrC195EJF1WxgqS1GI4ASG1qZl33lV5UL658UeZV0rRMhFbP0G_UYQs_fpt3CEa8DK2gB8SeU5tW05ndr9uj4EDmfJRVZmnhEfaIE6mnxhMpsfoS_W0OoBWc0jd8Q_IQSExHUMSReBpFnRSBhzXmHN4dwGfRgLAwehXI6nIVZUipgkU6fHQDPJU_rQ9Eh7t33iRgVm7DaTUpmSp9dJmVY4BObFKv9a_EZV7vLWRKg2S6NxeYOyWBbvz_UhDm_ebxl5Xqjpv1AVwJF-sRZfIf8gEu-UvZUNoXJ3mHb-Uu0QmBMZgM6Dkb7RSkQKprk68GIBUYF2zOQBSANXmZmh6bJN_bUzFeIt6eh50F7H5YWo9-T6L59D8Emi29mZ9LGHcEkOtmIwWVrCe0Whm50vjbKUbKgOLXhSbCuxBZE1ScIa4sXdrAdvaRBrHi_hhydaQl3fMWMci90cvB1iF3GyGxWKIZ4mUt2wOkaIufITTP4ggrpwCooO9kSKiKnDekmFBS0hj80kolHerhK33umyeCjHZAy-BmcqakQ45S1GADcOotLHNqjHWVcS8_f4qwhX0A_DSDsSja6Y1atSTxGQCYsqgT5gOEna45PMV0YY9sSDaw5QlBDetyBOvTZQhxJkDZOwivjufAgELT9HwWaW2YhNxltfTFqThZ9dPv7bQrgKU0aHEjjDLPi_UQZMstac8GutnmOnkG_N7qCU8vnZupvT-PnHSVRFYixDjWudZ9WeVQgFU9fAgwr4ZBIIgYhNNSSQmleVFjCujadhtQFuxbrRW_X7j_QZM_k_xzPwbvoEQj-QnJywkk_PqGsL2_- -fcuieSLvfTF0sT4Aifn6zjRKU5eqRy_ltd-uHM_UBcv-k-ytR__zjKmeE1GCW_LBHwXmYMcBRE4pdtoZCYLvQiQeMmYr2fJwhlensvun1NO5_BgtBFuwWNNmg0qVVJkLKKsOlGBM1J6zctaJ0TMB9sGKGq_yjOm5po6mu3-Hu8KVQSQY2naHP3AB7lrLZBhwMLOPa3V6RDKSljQBiJHbMwXcgwcQw-v9HF0Ow3sPBSKJUc7lkK6oKY_GJszDDtWjoIwPWKbfbhBIl9ap_KrmTIcSwjng6fngBXs5aqDtVmRcErTn1Y3yVPdUN7G99fpjNsA8feVVm4SWdJqDf_RSx8DeWq3boUz_FJkBjgvvqpVK8BHm_m80]--></g></svg>