<?xml version="1.0" encoding="us-ascii" standalone="no"?><svg xmlns="http://www.w3.org/2000/svg" xmlns:xlink="http://www.w3.org/1999/xlink" contentStyleType="text/css" height="1433px" preserveAspectRatio="none" style="width:2474px;height:1433px;background:#FFFFFF;" version="1.1" viewBox="0 0 2474 1433" width="2474px" zoomAndPan="magnify"><defs/><g><rect fill="#FFFFFF" height="1339.9531" style="stroke:#181818;stroke-width:1.0;" width="10" x="217" y="47.6094"/><rect fill="#FFFFFF" height="1307.6016" style="stroke:#181818;stroke-width:1.0;" width="10" x="425" y="47.6094"/><rect fill="#FFFFFF" height="1329.9531" style="stroke:#181818;stroke-width:1.0;" width="10" x="714" y="47.6094"/><rect fill="#FFFFFF" height="1307.6016" style="stroke:#181818;stroke-width:1.0;" width="10" x="991" y="47.6094"/><rect fill="#FFFFFF" height="1307.6016" style="stroke:#181818;stroke-width:1.0;" width="10" x="1148" y="47.6094"/><rect fill="#FFFFFF" height="1251.8984" style="stroke:#181818;stroke-width:1.0;" width="10" x="1468" y="88.3125"/><rect fill="#FFFFFF" height="109.0547" style="stroke:#181818;stroke-width:1.0;" width="10" x="1473" y="516.8281"/><rect fill="#FFFFFF" height="65.7031" style="stroke:#181818;stroke-width:1.0;" width="10" x="1473" y="1054.3984"/><rect fill="none" height="1300.6016" style="stroke:#000000;stroke-width:1.5;" width="1489.5" x="397.5" y="47.6094"/><line style="stroke:#181818;stroke-width:0.5;stroke-dasharray:5.0,5.0;" x1="221.5" x2="221.5" y1="37.6094" y2="1396.5625"/><line style="stroke:#181818;stroke-width:0.5;stroke-dasharray:5.0,5.0;" x1="429.5" x2="429.5" y1="37.6094" y2="1396.5625"/><line style="stroke:#181818;stroke-width:0.5;stroke-dasharray:5.0,5.0;" x1="718.5" x2="718.5" y1="37.6094" y2="1396.5625"/><line style="stroke:#181818;stroke-width:0.5;stroke-dasharray:5.0,5.0;" x1="995.5" x2="995.5" y1="37.6094" y2="1396.5625"/><line style="stroke:#181818;stroke-width:0.5;stroke-dasharray:5.0,5.0;" x1="1152.5" x2="1152.5" y1="37.6094" y2="1396.5625"/><line style="stroke:#181818;stroke-width:0.5;stroke-dasharray:5.0,5.0;" x1="1472.5" x2="1472.5" y1="37.6094" y2="1396.5625"/><line style="stroke:#181818;stroke-width:0.5;stroke-dasharray:5.0,5.0;" x1="1887" x2="1887" y1="37.6094" y2="1396.5625"/><line style="stroke:#181818;stroke-width:0.5;stroke-dasharray:5.0,5.0;" x1="2215.5" x2="2215.5" y1="37.6094" y2="1396.5625"/><line style="stroke:#181818;stroke-width:0.5;stroke-dasharray:5.0,5.0;" x1="2306.5" x2="2306.5" y1="37.6094" y2="1396.5625"/><rect fill="#E2E2F0" height="31.6094" rx="2.5" ry="2.5" style="stroke:#181818;stroke-width:0.5;" width="79" x="182.5" y="5"/><text fill="#000000" font-family="sans-serif" font-size="14" lengthAdjust="spacing" textLength="65" x="189.5" y="26.5332">Simulation</text><rect fill="#E2E2F0" height="31.6094" rx="2.5" ry="2.5" style="stroke:#181818;stroke-width:0.5;" width="79" x="182.5" y="1395.5625"/><text fill="#000000" font-family="sans-serif" font-size="14" lengthAdjust="spacing" textLength="65" x="189.5" y="1417.0957">Simulation</text><rect fill="#E2E2F0" height="31.6094" rx="2.5" ry="2.5" style="stroke:#181818;stroke-width:0.5;" width="45" x="407.5" y="5"/><text fill="#000000" font-family="sans-serif" font-size="14" lengthAdjust="spacing" textLength="31" x="414.5" y="26.5332">DRG</text><rect fill="#E2E2F0" height="31.6094" rx="2.5" ry="2.5" style="stroke:#181818;stroke-width:0.5;" width="45" x="407.5" y="1395.5625"/><text fill="#000000" font-family="sans-serif" font-size="14" lengthAdjust="spacing" textLength="31" x="414.5" y="1417.0957">DRG</text><rect fill="#E2E2F0" height="31.6094" rx="2.5" ry="2.5" style="stroke:#181818;stroke-width:0.5;" width="79" x="679.5" y="5"/><text fill="#000000" font-family="sans-serif" font-size="14" lengthAdjust="spacing" textLength="65" x="686.5" y="26.5332">Generator</text><rect fill="#E2E2F0" height="31.6094" rx="2.5" ry="2.5" style="stroke:#181818;stroke-width:0.5;" width="79" x="679.5" y="1395.5625"/><text fill="#000000" font-family="sans-serif" font-size="14" lengthAdjust="spacing" textLength="65" x="686.5" y="1417.0957">Generator</text><rect fill="#E2E2F0" height="31.6094" rx="2.5" ry="2.5" style="stroke:#181818;stroke-width:0.5;" width="37" x="977.5" y="5"/><text fill="#000000" font-family="sans-serif" font-size="14" lengthAdjust="spacing" textLength="23" x="984.5" y="26.5332">ICD</text><rect fill="#E2E2F0" height="31.6094" rx="2.5" ry="2.5" style="stroke:#181818;stroke-width:0.5;" width="37" x="977.5" y="1395.5625"/><text fill="#000000" font-family="sans-serif" font-size="14" lengthAdjust="spacing" textLength="23" x="984.5" y="1417.0957">ICD</text><rect fill="#E2E2F0" height="31.6094" rx="2.5" ry="2.5" style="stroke:#181818;stroke-width:0.5;" width="43" x="1131.5" y="5"/><text fill="#000000" font-family="sans-serif" font-size="14" lengthAdjust="spacing" textLength="29" x="1138.5" y="26.5332">OPS</text><rect fill="#E2E2F0" height="31.6094" rx="2.5" ry="2.5" style="stroke:#181818;stroke-width:0.5;" width="43" x="1131.5" y="1395.5625"/><text fill="#000000" font-family="sans-serif" font-size="14" lengthAdjust="spacing" textLength="29" x="1138.5" y="1417.0957">OPS</text><rect fill="#E2E2F0" height="31.6094" rx="2.5" ry="2.5" style="stroke:#181818;stroke-width:0.5;" width="91" x="1427.5" y="5"/><text fill="#000000" font-family="sans-serif" font-size="14" lengthAdjust="spacing" textLength="77" x="1434.5" y="26.5332">Adjustments</text><rect fill="#E2E2F0" height="31.6094" rx="2.5" ry="2.5" style="stroke:#181818;stroke-width:0.5;" width="91" x="1427.5" y="1395.5625"/><text fill="#000000" font-family="sans-serif" font-size="14" lengthAdjust="spacing" textLength="77" x="1434.5" y="1417.0957">Adjustments</text><rect fill="#E2E2F0" height="31.6094" rx="2.5" ry="2.5" style="stroke:#181818;stroke-width:0.5;" width="88" x="1843" y="5"/><text fill="#000000" font-family="sans-serif" font-size="14" lengthAdjust="spacing" textLength="74" x="1850" y="26.5332">inject_fraud</text><rect fill="#E2E2F0" height="31.6094" rx="2.5" ry="2.5" style="stroke:#181818;stroke-width:0.5;" width="88" x="1843" y="1395.5625"/><text fill="#000000" font-family="sans-serif" font-size="14" lengthAdjust="spacing" textLength="74" x="1850" y="1417.0957">inject_fraud</text><rect fill="#E2E2F0" height="31.6094" rx="2.5" ry="2.5" style="stroke:#181818;stroke-width:0.5;" width="95" x="2168.5" y="5"/><text fill="#000000" font-family="sans-serif" font-size="14" lengthAdjust="spacing" textLength="81" x="2175.5" y="26.5332">create_fraud</text><rect fill="#E2E2F0" height="31.6094" rx="2.5" ry="2.5" style="stroke:#181818;stroke-width:0.5;" width="95" x="2168.5" y="1395.5625"/><text fill="#000000" font-family="sans-serif" font-size="14" lengthAdjust="spacing" textLength="81" x="2175.5" y="1417.0957">create_fraud</text><rect fill="#E2E2F0" height="31.6094" rx="2.5" ry="2.5" style="stroke:#181818;stroke-width:0.5;" width="67" x="2273.5" y="5"/><text fill="#000000" font-family="sans-serif" font-size="14" lengthAdjust="spacing" textLength="53" x="2280.5" y="26.5332">Grouper</text><rect fill="#E2E2F0" height="31.6094" rx="2.5" ry="2.5" style="stroke:#181818;stroke-width:0.5;" width="67" x="2273.5" y="1395.5625"/><text fill="#000000" font-family="sans-serif" font-size="14" lengthAdjust="spacing" textLength="53" x="2280.5" y="1417.0957">Grouper</text><rect fill="#FFFFFF" height="1339.9531" style="stroke:#181818;stroke-width:1.0;" width="10" x="217" y="47.6094"/><rect fill="#FFFFFF" height="1307.6016" style="stroke:#181818;stroke-width:1.0;" width="10" x="425" y="47.6094"/><rect fill="#FFFFFF" height="1329.9531" style="stroke:#181818;stroke-width:1.0;" width="10" x="714" y="47.6094"/><rect fill="#FFFFFF" height="1307.6016" style="stroke:#181818;stroke-width:1.0;" width="10" x="991" y="47.6094"/><rect fill="#FFFFFF" height="1307.6016" style="stroke:#181818;stroke-width:1.0;" width="10" x="1148" y="47.6094"/><rect fill="#FFFFFF" height="1251.8984" style="stroke:#181818;stroke-width:1.0;" width="10" x="1468" y="88.3125"/><rect fill="#FFFFFF" height="109.0547" style="stroke:#181818;stroke-width:1.0;" width="10" x="1473" y="516.8281"/><rect fill="#FFFFFF" height="65.7031" style="stroke:#181818;stroke-width:1.0;" width="10" x="1473" y="1054.3984"/><rect fill="none" height="1300.6016" style="stroke:#000000;stroke-width:1.5;" width="1489.5" x="397.5" y="47.6094"/><line style="stroke:#000000;stroke-width:1.0;stroke-dasharray:2.0,2.0;" x1="0" x2="2467" y1="48.6094" y2="48.6094"/><polygon fill="#181818" points="1456,84.3125,1466,88.3125,1456,92.3125,1460,88.3125" style="stroke:#181818;stroke-width:1.0;"/><line style="stroke:#181818;stroke-width:1.0;" x1="724" x2="1462" y1="88.3125" y2="88.3125"/><text fill="#000000" font-family="sans-serif" font-size="13" lengthAdjust="spacing" textLength="228" x="731" y="67.1045">adjust_coding(primary, secondary, ops,</text><text fill="#000000" font-family="sans-serif" font-size="13" lengthAdjust="spacing" textLength="158" x="731" y="83.4561">breathing, gender, age, plz)</text><line style="stroke:#181818;stroke-width:1.0;" x1="1478" x2="1520" y1="118.6641" y2="118.6641"/><line style="stroke:#181818;stroke-width:1.0;" x1="1520" x2="1520" y1="118.6641" y2="131.6641"/><line style="stroke:#181818;stroke-width:1.0;" x1="1479" x2="1520" y1="131.6641" y2="131.6641"/><polygon fill="#181818" points="1489,127.6641,1479,131.6641,1489,135.6641,1485,131.6641" style="stroke:#181818;stroke-width:1.0;"/><text fill="#000000" font-family="sans-serif" font-size="13" lengthAdjust="spacing" textLength="228" x="1485" y="113.8076">check_validity_HIV(primary, secondary)</text><line style="stroke:#181818;stroke-width:1.0;" x1="1478" x2="1520" y1="162.0156" y2="162.0156"/><line style="stroke:#181818;stroke-width:1.0;" x1="1520" x2="1520" y1="162.0156" y2="175.0156"/><line style="stroke:#181818;stroke-width:1.0;" x1="1479" x2="1520" y1="175.0156" y2="175.0156"/><polygon fill="#181818" points="1489,171.0156,1479,175.0156,1489,179.0156,1485,175.0156" style="stroke:#181818;stroke-width:1.0;"/><text fill="#000000" font-family="sans-serif" font-size="13" lengthAdjust="spacing" textLength="284" x="1485" y="157.1592">check_zytotoxic_materials(secodary, operations)</text><line style="stroke:#181818;stroke-width:1.0;" x1="1478" x2="1520" y1="205.3672" y2="205.3672"/><line style="stroke:#181818;stroke-width:1.0;" x1="1520" x2="1520" y1="205.3672" y2="218.3672"/><line style="stroke:#181818;stroke-width:1.0;" x1="1479" x2="1520" y1="218.3672" y2="218.3672"/><polygon fill="#181818" points="1489,214.3672,1479,218.3672,1489,222.3672,1485,218.3672" style="stroke:#181818;stroke-width:1.0;"/><text fill="#000000" font-family="sans-serif" font-size="13" lengthAdjust="spacing" textLength="215" x="1485" y="200.5107">check_folic_acid(primary, secondary)</text><line style="stroke:#181818;stroke-width:1.0;" x1="1478" x2="1520" y1="248.7188" y2="248.7188"/><line style="stroke:#181818;stroke-width:1.0;" x1="1520" x2="1520" y1="248.7188" y2="261.7188"/><line style="stroke:#181818;stroke-width:1.0;" x1="1479" x2="1520" y1="261.7188" y2="261.7188"/><polygon fill="#181818" points="1489,257.7188,1479,261.7188,1489,265.7188,1485,261.7188" style="stroke:#181818;stroke-width:1.0;"/><text fill="#000000" font-family="sans-serif" font-size="13" lengthAdjust="spacing" textLength="332" x="1485" y="243.8623">add_probable_diabetic_comorbidities(primary, secondary)</text><line style="stroke:#181818;stroke-width:1.0;" x1="1478" x2="1520" y1="292.0703" y2="292.0703"/><line style="stroke:#181818;stroke-width:1.0;" x1="1520" x2="1520" y1="292.0703" y2="305.0703"/><line style="stroke:#181818;stroke-width:1.0;" x1="1479" x2="1520" y1="305.0703" y2="305.0703"/><polygon fill="#181818" points="1489,301.0703,1479,305.0703,1489,309.0703,1485,305.0703" style="stroke:#181818;stroke-width:1.0;"/><text fill="#000000" font-family="sans-serif" font-size="13" lengthAdjust="spacing" textLength="390" x="1485" y="287.2139">no_metabolic_when_diabetes(primary, secondary, gender, age, zip)</text><line style="stroke:#181818;stroke-width:1.0;" x1="1478" x2="1520" y1="335.4219" y2="335.4219"/><line style="stroke:#181818;stroke-width:1.0;" x1="1520" x2="1520" y1="335.4219" y2="348.4219"/><line style="stroke:#181818;stroke-width:1.0;" x1="1479" x2="1520" y1="348.4219" y2="348.4219"/><polygon fill="#181818" points="1489,344.4219,1479,348.4219,1489,352.4219,1485,348.4219" style="stroke:#181818;stroke-width:1.0;"/><text fill="#000000" font-family="sans-serif" font-size="13" lengthAdjust="spacing" textLength="217" x="1485" y="330.5654">add_ops_on_pump(pump, operations)</text><line style="stroke:#181818;stroke-width:1.0;" x1="1478" x2="1520" y1="378.7734" y2="378.7734"/><line style="stroke:#181818;stroke-width:1.0;" x1="1520" x2="1520" y1="378.7734" y2="391.7734"/><line style="stroke:#181818;stroke-width:1.0;" x1="1479" x2="1520" y1="391.7734" y2="391.7734"/><polygon fill="#181818" points="1489,387.7734,1479,391.7734,1489,395.7734,1485,391.7734" style="stroke:#181818;stroke-width:1.0;"/><text fill="#000000" font-family="sans-serif" font-size="13" lengthAdjust="spacing" textLength="238" x="1485" y="373.917">add_ops_on_revisioned_heart(operations)</text><line style="stroke:#181818;stroke-width:1.0;" x1="1478" x2="1520" y1="422.125" y2="422.125"/><line style="stroke:#181818;stroke-width:1.0;" x1="1520" x2="1520" y1="422.125" y2="435.125"/><line style="stroke:#181818;stroke-width:1.0;" x1="1479" x2="1520" y1="435.125" y2="435.125"/><polygon fill="#181818" points="1489,431.125,1479,435.125,1489,439.125,1485,435.125" style="stroke:#181818;stroke-width:1.0;"/><text fill="#000000" font-family="sans-serif" font-size="13" lengthAdjust="spacing" textLength="247" x="1485" y="417.2686">add_relevant_icd_birth(primary, secondary)</text><line style="stroke:#181818;stroke-width:1.0;" x1="1478" x2="1520" y1="465.4766" y2="465.4766"/><line style="stroke:#181818;stroke-width:1.0;" x1="1520" x2="1520" y1="465.4766" y2="478.4766"/><line style="stroke:#181818;stroke-width:1.0;" x1="1479" x2="1520" y1="478.4766" y2="478.4766"/><polygon fill="#181818" points="1489,474.4766,1479,478.4766,1489,482.4766,1485,478.4766" style="stroke:#181818;stroke-width:1.0;"/><text fill="#000000" font-family="sans-serif" font-size="13" lengthAdjust="spacing" textLength="284" x="1485" y="460.6201">add_relevant_icd_babies_hie(primary, secondary)</text><line style="stroke:#181818;stroke-width:1.0;" x1="1478" x2="1525" y1="503.8281" y2="503.8281"/><line style="stroke:#181818;stroke-width:1.0;" x1="1525" x2="1525" y1="503.8281" y2="516.8281"/><line style="stroke:#181818;stroke-width:1.0;" x1="1484" x2="1525" y1="516.8281" y2="516.8281"/><polygon fill="#181818" points="1494,512.8281,1484,516.8281,1494,520.8281,1490,516.8281" style="stroke:#181818;stroke-width:1.0;"/><text fill="#000000" font-family="sans-serif" font-size="13" lengthAdjust="spacing" textLength="345" x="1490" y="498.9717">correct_sectio(age, gender, primary, secondary, operations)</text><polygon fill="#181818" points="1169,548.1797,1159,552.1797,1169,556.1797,1165,552.1797" style="stroke:#181818;stroke-width:1.0;"/><line style="stroke:#181818;stroke-width:1.0;" x1="1163" x2="1472" y1="552.1797" y2="552.1797"/><text fill="#000000" font-family="sans-serif" font-size="13" lengthAdjust="spacing" textLength="286" x="1175" y="547.3232">get_random_ops_from_major(age, gender, "5-74")</text><line style="stroke:#181818;stroke-width:1.0;" x1="1158" x2="1200" y1="582.5313" y2="582.5313"/><line style="stroke:#181818;stroke-width:1.0;" x1="1200" x2="1200" y1="582.5313" y2="595.5313"/><line style="stroke:#181818;stroke-width:1.0;" x1="1159" x2="1200" y1="595.5313" y2="595.5313"/><polygon fill="#181818" points="1169,591.5313,1159,595.5313,1169,599.5313,1165,595.5313" style="stroke:#181818;stroke-width:1.0;"/><text fill="#000000" font-family="sans-serif" font-size="13" lengthAdjust="spacing" textLength="78" x="1165" y="577.6748">get_ops_list()</text><polygon fill="#181818" points="1456,621.8828,1466,625.8828,1456,629.8828,1460,625.8828" style="stroke:#181818;stroke-width:1.0;"/><line style="stroke:#181818;stroke-width:1.0;stroke-dasharray:2.0,2.0;" x1="1158" x2="1462" y1="625.8828" y2="625.8828"/><text fill="#000000" font-family="sans-serif" font-size="13" lengthAdjust="spacing" textLength="80" x="1165" y="621.0264">full OPS code</text><line style="stroke:#181818;stroke-width:1.0;" x1="1478" x2="1520" y1="656.2344" y2="656.2344"/><line style="stroke:#181818;stroke-width:1.0;" x1="1520" x2="1520" y1="656.2344" y2="669.2344"/><line style="stroke:#181818;stroke-width:1.0;" x1="1479" x2="1520" y1="669.2344" y2="669.2344"/><polygon fill="#181818" points="1489,665.2344,1479,669.2344,1489,673.2344,1485,669.2344" style="stroke:#181818;stroke-width:1.0;"/><text fill="#000000" font-family="sans-serif" font-size="13" lengthAdjust="spacing" textLength="143" x="1485" y="651.3779">check_frustrane(primary)</text><line style="stroke:#181818;stroke-width:1.0;" x1="1478" x2="1520" y1="699.5859" y2="699.5859"/><line style="stroke:#181818;stroke-width:1.0;" x1="1520" x2="1520" y1="699.5859" y2="712.5859"/><line style="stroke:#181818;stroke-width:1.0;" x1="1479" x2="1520" y1="712.5859" y2="712.5859"/><polygon fill="#181818" points="1489,708.5859,1479,712.5859,1489,716.5859,1485,712.5859" style="stroke:#181818;stroke-width:1.0;"/><text fill="#000000" font-family="sans-serif" font-size="13" lengthAdjust="spacing" textLength="216" x="1485" y="694.7295">replace_old_myocard_infarct(primary)</text><line style="stroke:#181818;stroke-width:1.0;" x1="1478" x2="1520" y1="742.9375" y2="742.9375"/><line style="stroke:#181818;stroke-width:1.0;" x1="1520" x2="1520" y1="742.9375" y2="755.9375"/><line style="stroke:#181818;stroke-width:1.0;" x1="1479" x2="1520" y1="755.9375" y2="755.9375"/><polygon fill="#181818" points="1489,751.9375,1479,755.9375,1489,759.9375,1485,755.9375" style="stroke:#181818;stroke-width:1.0;"/><text fill="#000000" font-family="sans-serif" font-size="13" lengthAdjust="spacing" textLength="179" x="1485" y="738.0811">replace_fluid_surpluss(primary)</text><line style="stroke:#181818;stroke-width:1.0;" x1="1478" x2="1520" y1="786.2891" y2="786.2891"/><line style="stroke:#181818;stroke-width:1.0;" x1="1520" x2="1520" y1="786.2891" y2="799.2891"/><line style="stroke:#181818;stroke-width:1.0;" x1="1479" x2="1520" y1="799.2891" y2="799.2891"/><polygon fill="#181818" points="1489,795.2891,1479,799.2891,1489,803.2891,1485,799.2891" style="stroke:#181818;stroke-width:1.0;"/><text fill="#000000" font-family="sans-serif" font-size="13" lengthAdjust="spacing" textLength="181" x="1485" y="781.4326">check_Z01_secondary(primary)</text><line style="stroke:#181818;stroke-width:1.0;" x1="1478" x2="1520" y1="829.6406" y2="829.6406"/><line style="stroke:#181818;stroke-width:1.0;" x1="1520" x2="1520" y1="829.6406" y2="842.6406"/><line style="stroke:#181818;stroke-width:1.0;" x1="1479" x2="1520" y1="842.6406" y2="842.6406"/><polygon fill="#181818" points="1489,838.6406,1479,842.6406,1489,846.6406,1485,842.6406" style="stroke:#181818;stroke-width:1.0;"/><text fill="#000000" font-family="sans-serif" font-size="13" lengthAdjust="spacing" textLength="228" x="1485" y="824.7842">replace_unknown_examination(primary)</text><line style="stroke:#181818;stroke-width:1.0;" x1="1478" x2="1520" y1="872.9922" y2="872.9922"/><line style="stroke:#181818;stroke-width:1.0;" x1="1520" x2="1520" y1="872.9922" y2="885.9922"/><line style="stroke:#181818;stroke-width:1.0;" x1="1479" x2="1520" y1="885.9922" y2="885.9922"/><polygon fill="#181818" points="1489,881.9922,1479,885.9922,1489,889.9922,1485,885.9922" style="stroke:#181818;stroke-width:1.0;"/><text fill="#000000" font-family="sans-serif" font-size="13" lengthAdjust="spacing" textLength="215" x="1485" y="868.1357">replace_senile_degeneration(primary)</text><line style="stroke:#181818;stroke-width:1.0;" x1="1478" x2="1520" y1="916.3438" y2="916.3438"/><line style="stroke:#181818;stroke-width:1.0;" x1="1520" x2="1520" y1="916.3438" y2="929.3438"/><line style="stroke:#181818;stroke-width:1.0;" x1="1479" x2="1520" y1="929.3438" y2="929.3438"/><polygon fill="#181818" points="1489,925.3438,1479,929.3438,1489,933.3438,1485,929.3438" style="stroke:#181818;stroke-width:1.0;"/><text fill="#000000" font-family="sans-serif" font-size="13" lengthAdjust="spacing" textLength="139" x="1485" y="911.4873">replace_chemo(primary)</text><line style="stroke:#181818;stroke-width:1.0;" x1="1478" x2="1520" y1="959.6953" y2="959.6953"/><line style="stroke:#181818;stroke-width:1.0;" x1="1520" x2="1520" y1="959.6953" y2="972.6953"/><line style="stroke:#181818;stroke-width:1.0;" x1="1479" x2="1520" y1="972.6953" y2="972.6953"/><polygon fill="#181818" points="1489,968.6953,1479,972.6953,1489,976.6953,1485,972.6953" style="stroke:#181818;stroke-width:1.0;"/><text fill="#000000" font-family="sans-serif" font-size="13" lengthAdjust="spacing" textLength="151" x="1485" y="954.8389">correct_lymphom(primary)</text><line style="stroke:#181818;stroke-width:1.0;" x1="1478" x2="1520" y1="1003.0469" y2="1003.0469"/><line style="stroke:#181818;stroke-width:1.0;" x1="1520" x2="1520" y1="1003.0469" y2="1016.0469"/><line style="stroke:#181818;stroke-width:1.0;" x1="1479" x2="1520" y1="1016.0469" y2="1016.0469"/><polygon fill="#181818" points="1489,1012.0469,1479,1016.0469,1489,1020.0469,1485,1016.0469" style="stroke:#181818;stroke-width:1.0;"/><text fill="#000000" font-family="sans-serif" font-size="13" lengthAdjust="spacing" textLength="342" x="1485" y="998.1904">change_gender_for_pregnancy(gender, primary, secondary)</text><line style="stroke:#181818;stroke-width:1.0;" x1="1478" x2="1525" y1="1041.3984" y2="1041.3984"/><line style="stroke:#181818;stroke-width:1.0;" x1="1525" x2="1525" y1="1041.3984" y2="1054.3984"/><line style="stroke:#181818;stroke-width:1.0;" x1="1484" x2="1525" y1="1054.3984" y2="1054.3984"/><polygon fill="#181818" points="1494,1050.3984,1484,1054.3984,1494,1058.3984,1490,1054.3984" style="stroke:#181818;stroke-width:1.0;"/><text fill="#000000" font-family="sans-serif" font-size="13" lengthAdjust="spacing" textLength="367" x="1490" y="1036.542">replace_caused_by_other_in_primary(primary, age, gender, plz)</text><polygon fill="#181818" points="1012,1085.75,1002,1089.75,1012,1093.75,1008,1089.75" style="stroke:#181818;stroke-width:1.0;"/><line style="stroke:#181818;stroke-width:1.0;" x1="1006" x2="1472" y1="1089.75" y2="1089.75"/><text fill="#000000" font-family="sans-serif" font-size="13" lengthAdjust="spacing" textLength="243" x="1018" y="1084.8936">get_random_primary_icd(age, gender, plz)</text><polygon fill="#181818" points="1456,1116.1016,1466,1120.1016,1456,1124.1016,1460,1120.1016" style="stroke:#181818;stroke-width:1.0;"/><line style="stroke:#181818;stroke-width:1.0;stroke-dasharray:2.0,2.0;" x1="1001" x2="1462" y1="1120.1016" y2="1120.1016"/><text fill="#000000" font-family="sans-serif" font-size="13" lengthAdjust="spacing" textLength="100" x="1008" y="1115.2451">primary ICD code</text><line style="stroke:#181818;stroke-width:1.0;" x1="1478" x2="1520" y1="1150.4531" y2="1150.4531"/><line style="stroke:#181818;stroke-width:1.0;" x1="1520" x2="1520" y1="1150.4531" y2="1163.4531"/><line style="stroke:#181818;stroke-width:1.0;" x1="1479" x2="1520" y1="1163.4531" y2="1163.4531"/><polygon fill="#181818" points="1489,1159.4531,1479,1163.4531,1489,1167.4531,1485,1163.4531" style="stroke:#181818;stroke-width:1.0;"/><text fill="#000000" font-family="sans-serif" font-size="13" lengthAdjust="spacing" textLength="332" x="1485" y="1145.5967">adjust_carcinoma_to_gender(gender, primary, secondary)</text><line style="stroke:#181818;stroke-width:1.0;" x1="1478" x2="1520" y1="1193.8047" y2="1193.8047"/><line style="stroke:#181818;stroke-width:1.0;" x1="1520" x2="1520" y1="1193.8047" y2="1206.8047"/><line style="stroke:#181818;stroke-width:1.0;" x1="1479" x2="1520" y1="1206.8047" y2="1206.8047"/><polygon fill="#181818" points="1489,1202.8047,1479,1206.8047,1489,1210.8047,1485,1206.8047" style="stroke:#181818;stroke-width:1.0;"/><text fill="#000000" font-family="sans-serif" font-size="13" lengthAdjust="spacing" textLength="313" x="1485" y="1188.9482">adjust_kidney_secondary(gender, primary, secondary)</text><line style="stroke:#181818;stroke-width:1.0;" x1="1478" x2="1520" y1="1237.1563" y2="1237.1563"/><line style="stroke:#181818;stroke-width:1.0;" x1="1520" x2="1520" y1="1237.1563" y2="1250.1563"/><line style="stroke:#181818;stroke-width:1.0;" x1="1479" x2="1520" y1="1250.1563" y2="1250.1563"/><polygon fill="#181818" points="1489,1246.1563,1479,1250.1563,1489,1254.1563,1485,1250.1563" style="stroke:#181818;stroke-width:1.0;"/><text fill="#000000" font-family="sans-serif" font-size="13" lengthAdjust="spacing" textLength="163" x="1485" y="1232.2998">change_companion(primary)</text><line style="stroke:#181818;stroke-width:1.0;" x1="1478" x2="1520" y1="1280.5078" y2="1280.5078"/><line style="stroke:#181818;stroke-width:1.0;" x1="1520" x2="1520" y1="1280.5078" y2="1293.5078"/><line style="stroke:#181818;stroke-width:1.0;" x1="1479" x2="1520" y1="1293.5078" y2="1293.5078"/><polygon fill="#181818" points="1489,1289.5078,1479,1293.5078,1489,1297.5078,1485,1293.5078" style="stroke:#181818;stroke-width:1.0;"/><text fill="#000000" font-family="sans-serif" font-size="13" lengthAdjust="spacing" textLength="178" x="1485" y="1275.6514">change_fetus_abortus(primary)</text><polygon fill="#181818" points="735,1336.2109,725,1340.2109,735,1344.2109,731,1340.2109" style="stroke:#181818;stroke-width:1.0;"/><line style="stroke:#181818;stroke-width:1.0;stroke-dasharray:2.0,2.0;" x1="729" x2="1472" y1="1340.2109" y2="1340.2109"/><text fill="#000000" font-family="sans-serif" font-size="13" lengthAdjust="spacing" textLength="164" x="741" y="1319.0029">adjusted primary ICD codes,</text><text fill="#000000" font-family="sans-serif" font-size="13" lengthAdjust="spacing" textLength="224" x="741" y="1335.3545">secondary ICD codes, and OPS codes</text><polygon fill="#181818" points="238,1373.5625,228,1377.5625,238,1381.5625,234,1377.5625" style="stroke:#181818;stroke-width:1.0;"/><line style="stroke:#181818;stroke-width:1.0;stroke-dasharray:2.0,2.0;" x1="232" x2="718" y1="1377.5625" y2="1377.5625"/><text fill="#000000" font-family="sans-serif" font-size="13" lengthAdjust="spacing" textLength="90" x="244" y="1372.7061">treatment_table</text><line style="stroke:#000000;stroke-width:1.0;stroke-dasharray:2.0,2.0;" x1="0" x2="2467" y1="1385.5625" y2="1385.5625"/><!--SRC=[xHfhRzkwzRj-1TVxmGwG36rtXm71Ci1eSdCpzBP1alR3RW62bcYRhKHg9EN4_VKxf2YArCEHtGxRi0Q8RP67vyNpfFZxsT_GFIkgd6Wc-3bYdEavnobHL9qYZaiOfrp3xq-SuurG9TCaXqUbYQQdI1AUYGAxfqySC6bMIf5IfHXVdoGarMmBam6LfFs9WFpbtRMZ6q33O79nWQwltbtTBHwkqEtYuURgtSCzMhoxHB- -lx-zULYylKSN5md9DUfGHN-uG2yJ17ynfMlAgIHQo7EqhdzIB-0ybjKAT69nU9xySZlidmpccpUNNePe3KpqeT_VtWz3muGTo8Ke0-NRiHwMlTBKY2dFkjGx-nsHU5vRtW3cG-Pm4ZBl9wTptsAVodvCv7d-CwB9FDpdG0IEjQH45sRg9A6veiXy78BPEuxHJaicKCR9yxQprrI-jsLytyqo__0t0y-zkrfSeZVt7z4lDs-lhACcCv3KO6DfzkhbkdZzylKhjLCQVn4PLNzCrTPWrxYKhC00WtEcZDYpo9dQfr4qoMnqoXgGLRYXGkJEF213Q2ftYgOHSnD8mHB1iqE9fHkQVi6WxenAB6bEjuIdkuaa6qBeaUaDWkbKijAOhqfc6PsWmcG6bkSC47P4B1rNu24PRiR8akKCp4g5aTl4i6Z7efW- -oa4R35RUksZbSGQVyHlVqd48duzmAGR3GodDzCPiCJ7QJUhG1oNlh3W-BQsfu21U28oPAk9yAc3mIBlZ5ckJAwCk1fP6p1strZVPDPwgpmxqUXUXlhh0vP0bNrcO7284GVhMN3FUuc7QppPBPLRHX-xXDrmdtG0xuW78tl8X-iuVIp9cYPHAVC0eV7XDoXcqENLm-Achc9S76upKB8l21T4fniVWOt8BhpFn_AB2LskLdEHpqInEJ1tYkeOSuhA_6kzl8bE3MJN_wDnHxBLNczLFTyR7e_5TTIA8aoD8z3r29N_MSuTutwp1WA_1ukDmGob4BZtxBpFG7NQsh_hBN0_gFRcGhPgWXsT3cAhOSp7uFI-r3b5m-CqQpUhYYMLIAnYz6tjCt4lkg0hni4P5K2b9jLsAgs1dRFo01imTVR6fDwH-YzmNb4gkuTu-phUna_SsTLfAvNRLvScpTAkF_YndYz4qFLSDEIJfFcOl3C3MBlSHVOMZ8vp6DfKP_0RkGmmEpPjishsmvG3TYCW-CB-pSUqtwQWUft94NPTwPFlNZ2FBWHiX6eCo5ccjboctfBQ-WWygLegBK54pEaQaiMMDdjkeOODiqMtDnqnXPScSMsWznxAG95K9P6aK0FwEZLwDuRiSPsYp1uh1Ctba9w27Du7STsASv-CxDGy5u_6OwgoD5y59JnMRI2PWQzbRr9vJxX5zhbITSu-HyG-OD2PKSKq6HiFjkxiex4tnW2_dGYUU-Jhdc5BSfOnlSE_tdmSjSldqNpTQQ754qinb1jKCjFg6IID74O5fgEOYcybSi15KfOTnHJ9CjTqvD1jCxAa6j2beX1oQSGrRSWnUBd01TLaQRbxt53kaDDX6urswoihfp5k8egfqggYd9kFm_GNO91qonIieXdUK2Br_50yJQYmJUoIIRqvUZTYL11EgS8RHeypEI4bf4qJxa2OJeKow4Qns5FTPIYVhYJyACXd8MEwB_vyzfUVNvpqGgbPtkJXJWoDP5fLUUv3g0KBSipXRhsIbOdWt2luUQrAMkOafLZa6Ivs8YKomuolY4pruKXMUSMW0gnacLTAJLzVS_-Fbw-2N7OmyOf_uUAHO_f42YYpR7rrC195EJF1WxgqS1GI4ASG1qZl33lV5UL658UeZV0rRMhFbP0G_UYQs_fpt3CEa8DK2gB8SeU5tW05ndr9uj4EDmfJRVZmnhEfaIE6mnxhMpsfoS_W0OoBWc0jd8Q_IQSExHUMSReBpFnRSBhzXmHN4dwGfRgLAwehXI6nIVZUipgkU6fHQDPJU_rQ9Eh7t33iRgVm7DaTUpmSp9dJmVY4BObFKv9a_EZV7vLWRKg2S6NxeYOyWBbvz_UhDm_ebxl5Xqjpv1AVwJF-sRZfIf8gEu-UvZUNoXJ3mHb-Uu0QmBMZgM6Dkb7RSkQKprk68GIBUYF2zOQBSANXmZmh6bJN_bUzFeIt6eh50F7H5YWo9-T6L59D8Emi29mZ9LGHcEkOtmIwWVrCe0Whm50vjbKUbKgOLXhSbCuxBZE1ScIa4sXdrAdvaRBrHi_hhydaQl3fMWMci90cvB1iF3GyGxWKIZ4mUt2wOkaIufITTP4ggrpwCooO9kSKiKnDekmFBS0hj80kolHerhK33umyeCjHZAy-BmcqakQ45S1GADcOotLHNqjHWVcS8_f4qwhX0A_DSDsSja6Y1atSTxGQCYsqgT5gOEna45PMV0YY9sSDaw5QlBDetyBOvTZQhxJkDZOwivjufAgELT9HwWaW2YhNxltfTFqThZ9dPv7bQrgKU0aHEjjDLPi_UQZMstac8GutnmOnkG_N7qCU8vnZupvT-PnHSVRFYixDjWudZ9WeVQgFU9fAgwr4ZBIIgYhNNSSQmleVFjCujadhtQFuxbrRW_X7j_QZM_k_xzPwbvoEQj-QnJywkk_PqGsL2_- -fcuieSLvfTF0sT4Aifn6zjRKU5eqRy_ltd-uHM_UBcv-k-ytR__zjKmeE1GCW_LBHwXmYMcBRE4pdtoZCYLvQiQeMmYr2fJwhlensvun1NO5_BgtBFuwWNNmg0qVVJkLKKsOlGBM1J6zctaJ0TMB9sGKGq_yjOm5po6mu3-Hu8KVQSQY2naHP3AB7lrLZBhwMLOPa3V6RDKSljQBiJHbMwXcgwcQw-v9HF0Ow3sPBSKJUc7lkK6oKY_GJszDDtWjoIwPWKbfbhBIl9ap_KrmTIcSwjng6fngBXs5aqDtVmRcErTn1Y3yVPdUN7G99fpjNsA8feVVm4SWdJqDf_RSx8DeWq3boUz_FJkBjgvvqpVK8BHm_m80]--></g></svg>